<svg width="176" height="84" viewBox="0 0 176 84" fill="none" xmlns="http://www.w3.org/2000/svg">
<path d="M3.38464 72.0715L3.01871 71.8633C3.81053 72.2986 3.38464 72.0589 3.38464 72.0715Z" fill="url(#paint0_linear_85_524)"/>
<path d="M11.2527 76.0023L11.1139 75.936L12.2969 76.4597L11.2527 76.0023Z" fill="url(#paint1_linear_85_524)"/>
<path d="M18.9238 78.9108C18.173 78.7121 16.1067 77.9644 14.7407 77.4408L14.5136 77.3587L13.9079 77.0938C15.5578 77.7562 17.7314 78.5512 18.9238 78.9108Z" fill="url(#paint2_linear_85_524)"/>
<path d="M23.1546 80.0276C22.8896 79.9803 24.0632 80.2863 22.1672 79.7753L22.347 79.8163L23.1546 80.0276Z" fill="url(#paint3_linear_85_524)"/>
<path d="M22.3473 79.8131C21.5145 79.5923 22.8994 79.9393 22.3473 79.8131V79.8131Z" fill="url(#paint4_linear_85_524)"/>
<path d="M26.215 80.7815C25.8459 80.6964 25.4799 80.5986 25.1108 80.5071C25.3443 80.5512 26.3317 80.7721 25.9689 80.6774C27.1046 80.933 26.868 80.8983 26.215 80.7815Z" fill="url(#paint5_linear_85_524)"/>
<path d="M27.2588 81.0528L26.6846 80.9203C26.8784 80.9532 27.0702 80.9974 27.2588 81.0528Z" fill="url(#paint6_linear_85_524)"/>
<path d="M25.4669 80.6301C25.8707 80.7374 26.2776 80.8226 26.6846 80.9204C26.4927 80.9013 26.304 80.8579 26.123 80.791C25.8989 80.7626 25.6787 80.7086 25.4669 80.6301Z" fill="url(#paint7_linear_85_524)"/>
<path d="M24.7803 80.4724C24.1493 80.3367 23.3512 80.1569 24.4648 80.4377C23.9844 80.335 23.5104 80.2044 23.0452 80.0465C23.1209 80.056 23.7203 80.2232 24.7803 80.4724Z" fill="url(#paint8_linear_85_524)"/>
<path d="M19.3129 79.0812C19.0385 79.0023 18.7672 78.9171 18.4959 78.8288L17.7987 78.5796C18.1457 78.7058 19.3634 79.0906 19.3129 79.0812Z" fill="url(#paint9_linear_85_524)"/>
<path d="M33.1836 81.996C33.026 82.0067 32.8679 82.0067 32.7104 81.996L31.887 81.8478C32.3129 81.9077 33.1237 82.0213 33.1836 81.996Z" fill="url(#paint10_linear_85_524)"/>
<path d="M32.7231 81.9993L33.9629 82.2012C32.8398 82.0497 32.6379 82.0214 32.7231 81.9993Z" fill="url(#paint11_linear_85_524)"/>
<path d="M27.4389 81.1663C26.7733 80.9991 26.1013 80.8508 25.4357 80.671C26.2307 80.8761 27.0319 81.059 27.8301 81.2515L27.4389 81.1663Z" fill="url(#paint12_linear_85_524)"/>
<path d="M37.9443 82.5229L37.2408 82.4188L38.4932 82.5892L37.9443 82.5229Z" fill="url(#paint13_linear_85_524)"/>
<path d="M41.1015 82.7154C40.846 82.687 41.0227 82.6744 41.1962 82.6618H41.2908C41.2379 82.6608 41.1853 82.6704 41.1362 82.6902C41.0761 82.7144 41.022 82.7515 40.9779 82.7989C40.9337 82.8464 40.9005 82.9029 40.8807 82.9646C40.8491 83.0656 40.8807 83.1129 40.846 83.1602C40.8113 83.2075 40.846 83.2422 40.846 83.2391C40.8402 83.2046 40.8402 83.1695 40.846 83.135V83.1129C41.0826 83.1413 40.3192 83.0467 41.376 83.176H41.3476L41.2246 83.1602L40.969 83.1161L40.846 83.0877V83.0309C40.8543 82.9579 40.8815 82.8883 40.9249 82.829C40.9836 82.7444 41.0692 82.6822 41.1678 82.6523C41.2076 82.6471 41.2479 82.6471 41.2877 82.6523H41.2624H41.2088C41.1057 82.6724 41.0125 82.7272 40.9448 82.8075C40.8771 82.8879 40.8389 82.9889 40.8365 83.094C40.8151 83.1895 40.8151 83.2887 40.8365 83.3842C40.8538 83.4521 40.8857 83.5155 40.9298 83.5699C40.9739 83.6244 41.0292 83.6686 41.0921 83.6997C41.1397 83.7252 41.1926 83.7392 41.2466 83.7407H41.1646L40.8492 83.7249L40.2592 83.6839C39.8807 83.6524 39.5273 83.6145 39.193 83.5766C39.5494 83.6082 39.9154 83.6334 40.3192 83.6492C40.5211 83.6492 40.7293 83.6492 40.9501 83.6492H41.2403C41.167 83.6421 41.0971 83.6148 41.0384 83.5703C40.9915 83.5322 40.9536 83.4841 40.9274 83.4296C40.9012 83.375 40.8874 83.3154 40.887 83.2549C40.8837 83.2329 40.8837 83.2106 40.887 83.1886V83.1602L41.3034 83.2107L41.152 83.1886L41.0037 83.1634L40.928 83.1476C40.8996 83.1476 40.8775 83.1476 40.887 83.1476V83.1066C40.8842 83.0857 40.8842 83.0644 40.887 83.0435C40.9018 82.9933 40.9264 82.9465 40.9594 82.9059C40.9925 82.8652 41.0333 82.8316 41.0794 82.8069C41.1157 82.7879 41.1554 82.7761 41.1962 82.7722H41.0542L41.1015 82.7154Z" fill="url(#paint14_linear_85_524)"/>
<path d="M38.0862 83.4094L39.2061 83.5388C38.8212 83.5072 38.4521 83.4599 38.0862 83.4094Z" fill="url(#paint15_linear_85_524)"/>
<path d="M36.077 82.4472C36.4068 82.4434 36.7365 82.4592 37.0645 82.4945H36.5692L36.077 82.4472Z" fill="url(#paint16_linear_85_524)"/>
<path d="M36.55 82.4977H36.5689C37.0989 82.5545 37.4712 82.5797 37.6289 82.5955C37.4933 82.5829 37.1683 82.5608 36.55 82.4977Z" fill="url(#paint17_linear_85_524)"/>
<path d="M35.9531 82.4346H36.0762C36.0354 82.4408 35.9939 82.4408 35.9531 82.4346Z" fill="url(#paint18_linear_85_524)"/>
<path d="M30.685 81.7501C31.4074 81.9047 32.9249 82.1634 31.4453 81.9709C30.9279 81.8511 31.7765 81.9773 30.685 81.7501Z" fill="url(#paint19_linear_85_524)"/>
<path d="M35.335 82.4283C34.8933 82.3746 34.4485 82.3336 34.01 82.2737C34.0384 82.2737 34.2781 82.2737 33.9185 82.2137C34.3885 82.2958 34.8618 82.3557 35.335 82.4283Z" fill="url(#paint20_linear_85_524)"/>
<path d="M35.9814 82.5197C35.7669 82.4913 35.5493 82.4629 35.3347 82.4282L35.8269 82.4818L35.9814 82.5197Z" fill="url(#paint21_linear_85_524)"/>
<path d="M40.3852 83.4977L38.4577 83.34C39.2243 83.3904 40.035 83.4315 40.7732 83.463C40.8805 83.4882 41.2117 83.5356 40.3852 83.4977Z" fill="url(#paint22_linear_85_524)"/>
<path d="M39.5369 82.7374H39.6631C39.5842 82.75 39.5211 82.7469 39.5369 82.7374Z" fill="url(#paint23_linear_85_524)"/>
<path d="M40.9068 83.4566H41.1118H41.2412C41.279 83.4566 41.2128 83.4567 41.1591 83.4251C41.1137 83.3938 41.0796 83.3486 41.0619 83.2963C41.0443 83.2439 41.0441 83.1873 41.0613 83.1349L41.3516 83.1696H41.279L41.1308 83.1475H41.0613V83.1002C41.0635 83.0692 41.0718 83.039 41.0859 83.0114C41.1 82.9837 41.1196 82.9592 41.1434 82.9393C41.1771 82.9084 41.2207 82.8905 41.2664 82.8888H41.1213C40.9257 82.8888 40.7585 82.8636 40.5945 82.851L41.2538 82.8793C41.2329 82.8757 41.2116 82.8757 41.1907 82.8793C41.1591 82.8914 41.1303 82.91 41.1064 82.9339C41.0825 82.9578 41.0639 82.9865 41.0519 83.0181C41.0402 83.0462 41.0338 83.0761 41.033 83.1065V83.1349H41.0677L41.2159 83.1601H41.2916H41.3295L41.0361 83.1222V83.138V83.157C41.0266 83.1947 41.0256 83.2342 41.0332 83.2724C41.0409 83.3106 41.0569 83.3466 41.0803 83.3778C41.0988 83.4044 41.1227 83.4268 41.1504 83.4436C41.1781 83.4605 41.209 83.4713 41.2412 83.4756H41.1244L40.7585 83.4598C40.7269 83.4535 40.7206 83.4472 40.9068 83.4566Z" fill="url(#paint24_linear_85_524)"/>
<path d="M36.1211 83.1948L37.1211 83.2579C36.7869 83.2543 36.4531 83.2332 36.1211 83.1948Z" fill="url(#paint25_linear_85_524)"/>
<path d="M39.8558 82.7468H39.7706C39.9599 82.7374 39.9346 82.7405 39.8558 82.7468Z" fill="url(#paint26_linear_85_524)"/>
<path d="M39.8554 82.7469C40.1488 82.769 40.3791 82.7974 40.6094 82.8195C40.2624 82.7974 39.9406 82.7785 39.663 82.7501L39.8554 82.7469Z" fill="url(#paint27_linear_85_524)"/>
<path d="M29.4325 81.6491C30.3635 81.9426 31.3242 82.132 32.2969 82.2137C33.5588 82.463 32.6976 82.5544 31.5619 82.5071C31.5272 82.4661 31.5303 82.4567 30.2306 82.1917C30.6943 82.2484 33.1487 82.5797 32.054 82.3431C31.3044 82.1955 30.5472 82.0901 29.7858 82.0276C30.1517 82.0465 29.606 81.9267 29.0255 81.7658C28.4451 81.6049 27.8204 81.4503 28.0223 81.4093L29.5177 81.7595C29.5492 81.7248 29.0097 81.5828 29.4325 81.6491Z" fill="url(#paint28_linear_85_524)"/>
<path d="M34.067 82.8637L34.6064 82.9394C33.9755 82.8794 33.5433 82.8353 32.7136 82.7816C32.3281 82.7299 31.9479 82.6433 31.578 82.5229C32.4644 82.6618 33.3541 82.7816 34.2437 82.8984L34.067 82.8637Z" fill="url(#paint29_linear_85_524)"/>
<path d="M37.0447 83.2107C36.6283 83.1034 35.3286 82.9299 36.1362 82.9425C37.7135 83.1192 37.2435 83.1129 38.1962 83.2296C35.622 82.9804 38.9312 83.3369 37.0668 83.2044C37.5716 83.2612 38.0132 83.3085 38.458 83.34L37.1204 83.258H37.1898C37.3002 83.258 37.3381 83.258 37.2119 83.258H37.1583C37.1216 83.2429 37.0836 83.2313 37.0447 83.2233C36.2971 83.1634 36.9248 83.2233 37.1583 83.258H37.1898C36.3286 83.1665 35.4737 83.0593 34.6156 82.9425L37.0447 83.2107Z" fill="url(#paint30_linear_85_524)"/>
<path d="M32.7891 82.2894C32.8679 82.2894 32.8648 82.2894 32.8711 82.2894C33.0383 82.3178 33.0982 82.3367 32.7891 82.2894Z" fill="url(#paint31_linear_85_524)"/>
<path d="M33.843 82.4125C33.66 82.3778 33.5055 82.3368 32.8966 82.2547C32.3729 82.1916 32.8966 82.28 32.8651 82.2894C32.5054 82.2232 31.6032 82.0528 32.742 82.2137L32.9218 82.2453C33.9503 82.3841 35.2815 82.4882 35.1017 82.4566C34.6816 82.4662 34.2614 82.4514 33.843 82.4125Z" fill="url(#paint32_linear_85_524)"/>
<path d="M39.8307 82.9268L40.9001 82.993H41.1683H41.2661C41.285 82.993 41.285 82.993 41.2661 82.993C41.2465 83.0024 41.2306 83.018 41.2209 83.0375C41.2112 83.0569 41.2082 83.079 41.2124 83.1003C41.2138 83.1097 41.2138 83.1192 41.2124 83.1287C41.2053 83.137 41.2 83.1466 41.1967 83.1571C41.1857 83.1855 41.1857 83.217 41.1967 83.2454C41.2187 83.3022 41.285 83.2959 41.2408 83.2959H41.1746H41.0389L40.7708 83.2801H41.2503C41.2724 83.2801 41.2219 83.2801 41.2187 83.217C41.2178 83.206 41.2193 83.1949 41.2232 83.1846C41.227 83.1742 41.233 83.1648 41.2408 83.1571C41.2566 83.1413 41.2408 83.1287 41.2408 83.1097C41.2395 83.0969 41.2421 83.084 41.2483 83.0727C41.2545 83.0615 41.264 83.0524 41.2755 83.0466H40.8717L40.9285 83.0182C39.7171 82.9867 39.979 82.9678 39.8307 82.9268Z" fill="url(#paint33_linear_85_524)"/>
<path d="M31.1955 82.5008L31.4668 82.6238C31.0598 82.5292 30.656 82.4156 30.2554 82.3083L31.1955 82.5008Z" fill="url(#paint34_linear_85_524)"/>
<path d="M28.4363 81.9993L28.5215 82.0908L27.8022 81.9047L28.4363 81.9993Z" fill="url(#paint35_linear_85_524)"/>
<path d="M48.6542 71.1062H49.2852C49.0751 71.1197 48.8643 71.1197 48.6542 71.1062Z" fill="url(#paint36_linear_85_524)"/>
<path d="M44.0806 71.6424L43.9512 71.5162C44.1721 71.5699 44.2667 71.6109 44.0806 71.6424Z" fill="url(#paint37_linear_85_524)"/>
<path d="M38.3008 55.9007C38.9885 55.2698 39.6983 54.5127 39.7109 54.7335L39.5784 55.049C39.1338 55.3037 38.707 55.5883 38.3008 55.9007Z" fill="url(#paint38_linear_85_524)"/>
<path d="M6.47949 71.2354L6.20504 71.3017L5.59619 71.0272L6.47949 71.2354Z" fill="url(#paint39_linear_85_524)"/>
<path d="M7.08165 72.3271C7.4886 72.2955 7.89871 72.2577 8.30566 72.2167C7.9004 72.2793 7.49158 72.3161 7.08165 72.3271Z" fill="url(#paint40_linear_85_524)"/>
<path d="M73.5129 67.3838L74.3174 67.592C73.1754 67.8254 73.6391 67.5384 73.5129 67.3838Z" fill="url(#paint41_linear_85_524)"/>
<path d="M0.0351386 70.9169L0.000442028 70.898C1.01624 70.6267 2.0415 70.4185 2.9248 70.2261L1.14873 70.6898C0.918435 70.7466 0.710227 70.7939 0.517793 70.8286C0.325358 70.8633 0.142401 70.8854 0.0193691 70.9043C0.0255313 70.9073 0.0309262 70.9116 0.0351386 70.9169Z" fill="url(#paint42_linear_85_524)"/>
<path d="M46.4428 67.9799C46.8276 67.9799 47.0012 68.0272 46.998 68.0997C46.6037 68.0966 46.3702 68.0682 46.4428 67.9799Z" fill="url(#paint43_linear_85_524)"/>
<path d="M5.83301 69.5919L5.43236 69.715L4.53644 69.8885L2.9244 70.226L3.79509 70.0083L4.6847 69.797C5.0635 69.708 5.44683 69.6395 5.83301 69.5919Z" fill="url(#paint44_linear_85_524)"/>
<path d="M155.439 28.105C155.482 28.0473 155.522 27.9872 155.559 27.9252C155.622 27.963 155.553 28.0261 155.439 28.105Z" fill="url(#paint45_linear_85_524)"/>
<path d="M170.405 5.75415C170.216 5.93081 169.948 6.24943 169.689 6.54913C169.888 6.25079 170.129 5.98299 170.405 5.75415Z" fill="url(#paint46_linear_85_524)"/>
<path d="M17.4927 79.1821C18.0574 79.3746 17.5779 79.22 17.4927 79.1821V79.1821Z" fill="url(#paint47_linear_85_524)"/>
<path d="M20.3662 79.6932C20.2874 79.6728 20.2141 79.6351 20.1517 79.5828C20.2166 79.6312 20.2891 79.6685 20.3662 79.6932Z" fill="url(#paint48_linear_85_524)"/>
<path d="M11.7288 68.9358L11.7793 68.92C11.6153 68.9958 11.6437 68.9831 11.7288 68.9358Z" fill="url(#paint49_linear_85_524)"/>
<path d="M18.3564 79.4125C18.1419 79.3526 17.8927 79.2832 17.6246 79.2012C17.7444 79.2327 17.9684 79.2958 18.3564 79.4125Z" fill="url(#paint50_linear_85_524)"/>
<path d="M18.2116 79.4187L18.7132 79.5701C18.7952 79.6048 18.7258 79.6017 18.2116 79.4187Z" fill="url(#paint51_linear_85_524)"/>
<path d="M16.706 78.8982C17.0215 79.0181 17.3369 79.1064 17.624 79.2137C17.5105 79.1821 17.4631 79.1726 17.4915 79.1853C17.3275 79.1127 17.0909 79.0402 16.706 78.8982Z" fill="url(#paint52_linear_85_524)"/>
<path d="M113.451 53.2917C113.483 53.2633 113.52 53.2349 113.552 53.2034C114.18 53.1214 113.924 53.2034 113.451 53.2917Z" fill="url(#paint53_linear_85_524)"/>
<path d="M32.8752 59.1058L32.9414 59.0837L32.8657 59.1311L32.8752 59.1058Z" fill="url(#paint54_linear_85_524)"/>
<path d="M30.9336 59.9386C31.6306 59.8137 32.2905 59.5334 32.8643 59.1184L32.5488 59.9796C32.003 59.9859 31.4604 59.9733 30.9336 59.9386Z" fill="url(#paint55_linear_85_524)"/>
<path d="M59.5786 69.6235L58.1496 70.1629C60.0203 70.3617 61.2853 69.9863 59.9666 70.6298C59.5944 69.6392 54.1558 71.4153 53.7867 70.4184L52.8403 70.7655C53.121 70.7181 53.1747 70.7655 53.4523 70.7244C51.6068 71.4626 51.9254 70.1976 49.4837 70.6614C48.6351 70.8443 48.0546 71.0588 48.6572 71.1062H46.7108C46.1555 71.1945 46.3101 71.3491 46.8653 71.2639C45.8874 71.3585 44.9063 71.4216 43.9283 71.5005L43.9536 71.5289C43.5182 71.4153 42.5497 71.2891 42.0608 71.2292C41.332 71.4342 42.4456 71.2954 42.269 71.4342L40.6254 71.3491C39.9945 71.6645 41.3541 71.7781 42.474 71.6425C42.2619 71.8458 42.0032 71.9939 41.7204 72.0736C41.4376 72.1534 41.1396 72.1624 40.8525 72.0999C40.2847 72.0305 39.4992 71.9611 37.884 72.3554C38.3982 72.3554 38.9156 72.3554 39.4298 72.3554C38.4834 72.9863 37.2688 72.8633 35.5527 73.3207C35.9565 73.122 38.966 72.2324 37.1805 72.1251C36.4877 72.2726 35.7742 72.2961 35.0732 72.1945C35.0732 72.5289 34.152 72.51 32.988 72.551L33.0952 72.9832C31.8333 72.9264 31.9122 72.7056 31.1614 72.5447C29.7607 72.6488 29.4863 72.9958 29.1708 73.2892C26.9215 73.4501 30.6977 72.693 28.032 72.7214C26.1676 72.9422 24.8457 72.816 22.6059 72.6015C21.3031 72.7687 22.8425 72.8507 22.3757 72.9769L21.2084 72.6614C20.9245 72.6614 21.0191 72.7718 21.0665 72.8223C20.0885 72.6993 20.9781 72.4122 19.445 72.3112C19.0317 71.8791 16.2903 72.9674 14.3975 72.4248C13.9306 72.5289 14.6215 72.6709 14.4763 72.8223C13.0083 72.6622 11.5528 72.4029 10.1198 72.0462L8.29321 72.2292C9.64024 71.9895 7.94307 71.5983 6.46667 71.2481C6.94304 71.1314 7.35312 71.0273 7.62442 70.9831L5.25842 70.6677L5.34991 71.5541C5.49818 71.4753 5.46033 71.4248 5.30574 71.3869L5.25211 70.8412C5.35982 70.9143 5.47513 70.9757 5.59599 71.0241C5.46664 70.9957 5.34047 70.9642 5.24582 70.9358L5.27736 71.2954H5.35939C6.09758 70.98 5.72533 70.8633 5.15117 70.8096L3.25838 70.633L5.22688 71.45L5.3436 71.4973C5.63698 71.4374 5.92722 71.3711 6.21114 71.3049C6.78844 71.5604 7.33104 71.8412 7.19855 72.0589C6.94363 71.9881 6.68285 71.9406 6.41936 71.9169C6.57077 71.9863 6.66855 72.0462 6.59599 72.081C6.52344 72.1157 6.28052 72.021 5.87988 71.9074L5.31837 72.2986L5.19534 72.1251C4.79155 68.1849 5.08493 71.0336 4.99344 70.1535H5.0155H5.04077H5.08493L5.17639 70.1219L5.35939 70.0588L5.7253 69.9295L6.45406 69.6739L7.90834 69.144C10.1418 68.9452 12.1766 68.9673 15.5647 67.9389C14.6436 67.9641 15.2335 67.5603 15.0726 67.2543C14.2871 67.9136 12.4479 67.9893 10.7349 68.5856C11.6308 68.2701 11.3658 68.1723 11.1324 68.1912C12.1955 67.9767 13.2587 67.7527 14.3186 67.5035C14.1577 67.2638 14.9022 67.0871 15.6593 66.6959C15.2461 67.431 18.0632 66.2227 19.3503 65.882C19.3503 65.6864 19.0002 65.636 17.508 66.2448C19.0222 65.2416 19.8898 66.0145 21.3788 65.0303C21.0128 65.1754 20.8267 65.2826 20.6469 65.2574C21.5649 65.0618 23.5839 64.0586 23.035 64.128L22.6722 64.2795C23.8647 63.7432 25.6786 62.9324 27.2465 62.2447C28.8143 61.557 30.1487 61.0144 30.42 61.1153C30.2095 60.9552 29.9642 60.8471 29.7039 60.7999C31.3065 60.5223 32.9028 60.1973 34.4927 59.8251C33.9627 59.7178 34.9438 58.2477 32.9469 59.1027C33.6985 58.6032 34.4923 58.1704 35.3192 57.8092C34.9754 58.0616 34.6441 58.7556 35.1647 58.5064C36.3603 57.3834 36.0291 57.784 37.5591 56.5127C37.048 56.9007 37.9282 56.9953 38.7831 56.4527C38.6096 56.4685 38.5843 55.9701 38.2405 56.112C39.0449 55.8281 39.8462 55.5347 40.6412 55.2256C40.0639 55.4874 40.3257 54.9101 40.7106 54.5032C40.6286 54.6167 41.0828 54.3233 41.6223 53.9574L42.0324 53.6766L42.0576 53.6577L42.1018 53.6293L42.1806 53.582C42.2494 53.5489 42.3213 53.5224 42.3952 53.5031C42.5873 53.4542 42.7899 53.4652 42.9756 53.5347C43.1229 53.5901 43.2548 53.6799 43.3605 53.7965C43.4363 53.8783 43.4839 53.9822 43.4961 54.093C43.5353 54.2505 43.5353 54.4151 43.4961 54.5726C43.4515 54.7291 43.3704 54.8729 43.2596 54.9921C43.2176 55.0357 43.1723 55.0758 43.1239 55.112L43.086 55.1372L42.881 55.2824C42.6128 55.4685 42.3762 55.6231 42.228 55.7051L42.6444 55.3581L42.8526 55.1814L42.9567 55.0899L43.0103 55.0458L43.1049 54.9669C43.2099 54.8763 43.2911 54.7615 43.3416 54.6325C43.2878 54.7544 43.2069 54.8623 43.1049 54.948L43.0072 55.0268L42.9535 55.0647L42.8463 55.1404L42.6444 55.2792C42.5119 55.3675 42.3857 55.4496 42.2658 55.519C42.0229 55.6609 41.8084 55.7808 41.6033 55.8754C41.248 56.0409 40.8824 56.1832 40.5087 56.3013C39.601 56.5805 38.736 56.9828 37.9376 57.4969C38.2783 57.3991 38.9818 57.579 37.7704 58.3676C35.9263 58.647 34.1246 59.1568 32.4075 59.885L32.051 60.232L30.297 60.9891C32.4168 60.5018 34.5049 59.8855 36.5496 59.1437C35.6694 59.7746 36.3761 59.4402 34.9722 60.2036C34.5337 60.5853 35.8366 59.9544 36.2499 59.721C35.1773 60.3519 34.0889 60.9828 32.9942 61.5791C33.0195 61.2636 30.3191 62.6453 30.3443 62.3772C31.6062 61.8598 32.8397 61.3141 34.0826 60.7589C34.0826 60.4434 31.6598 61.21 29.3191 62.4087C28.7607 62.7968 29.9721 62.6012 29.95 62.7053C29.0844 63.0087 28.2411 63.3724 27.4263 63.7936L28.502 63.4403C27.2054 64.1533 26.1802 64.147 24.6501 65.0618C24.3725 65.188 23.9814 65.4404 23.6407 65.6454C23.3 65.8505 23.0097 66.0051 22.9309 65.9609C23.7542 65.33 23.5839 64.4498 22.8993 64.5161L21.3378 65.3268C20.5712 65.7117 19.7604 66.1344 19.445 66.3111C18.5774 66.8568 21.0223 66.2606 20.2967 66.7275C20.0147 66.7316 19.7345 66.7741 19.4639 66.8537C18.8803 67.1218 19.7794 66.9483 18.4639 67.3931C18.1484 67.248 15.7919 68.3395 17.773 67.4215C16.4669 67.8032 16.4196 67.9326 14.8959 68.4089C15.3344 68.1187 13.3785 68.3679 12.0567 68.6865C12.1482 68.7181 11.8769 68.8695 11.7413 68.9421C9.07242 69.7086 7.64021 70.1598 5.11647 70.7087C4.80101 70.8254 3.93663 71.0651 4.40352 71.0588C3.97162 71.075 3.54147 71.1224 3.11642 71.2008C2.90192 71.2828 2.91138 71.3049 2.99971 71.3018C3.151 71.2895 3.30156 71.2695 3.45081 71.2418C3.63377 71.2134 3.82306 71.1819 3.93347 71.1787C4.04388 71.1756 4.05965 71.204 3.96185 71.2765C3.81969 71.2545 3.67499 71.2545 3.53282 71.2765L3.16371 71.3112L2.94922 71.3364H2.8325H2.77885L2.82303 71.3648C3.10695 71.5699 3.49814 71.8317 3.81676 72.0494C3.3082 71.864 2.82819 71.6081 2.39084 71.2891L2.34666 71.2607C2.34666 71.2607 2.38138 71.2607 2.40031 71.2607L2.5265 71.245L2.78201 71.2071L3.27728 71.144L4.08804 71.0431C3.8517 70.9497 3.59489 70.9203 3.34355 70.9579C3.12273 70.9579 2.85458 70.98 2.5265 71.0084L1.99651 71.0588L1.70311 71.0904L1.54536 71.1093H1.50752H1.48544V71.1409C1.72836 71.3301 2.08801 71.5857 2.5265 71.8696L3.25206 72.3365L4.05966 72.8255L4.46028 73.0589L4.7253 73.2072C4.87988 73.2892 4.9966 73.3491 5.08493 73.3901C5.2616 73.4722 5.32468 73.4848 5.34044 73.469C5.35622 73.4532 5.20166 73.3018 5.35939 73.4028C7.15755 74.3492 7.88309 74.7908 8.56134 75.2041C9.4568 75.7585 10.4085 76.2163 11.4005 76.57C12.6845 76.9675 11.5615 76.3492 11.8706 76.3776C10.2933 75.6268 9.37527 75.3587 8.30899 74.8318C8.75696 75.0274 9.20493 75.2167 9.65919 75.4028C9.17023 75.1284 8.13232 74.5858 7.54555 74.3334C8.07239 74.529 9.60242 75.2798 11.3974 76.0685C13.1924 76.8571 15.243 77.6647 16.7288 78.1411C17.2304 78.3745 18.1263 78.7152 17.6752 78.6174C17.3597 78.507 17.0443 78.3934 16.7477 78.2736C16.3061 78.1663 16.7288 78.3587 17.1168 78.5259C17.5049 78.6931 17.8613 78.8414 17.2619 78.6521C18.6966 79.2621 20.1724 79.7702 21.6785 80.1727L22.0507 80.1411C21.4769 80.0411 20.9132 79.8901 20.3661 79.69C20.7321 79.8257 21.4292 80.0055 22.1359 80.1569C22.7542 80.2774 23.3602 80.4538 23.9467 80.6837L22.6596 80.4282L23.6628 80.7437C24.0161 80.8572 24.382 80.9645 24.7606 81.0591C25.5423 81.2911 26.3351 81.4838 27.136 81.6364C26.3726 81.5891 26.7669 81.5418 25.5808 81.4282C26.0981 81.4598 25.0634 81.2169 24.1076 80.9866C23.1517 80.7563 22.2778 80.5071 23.0949 80.6301C21.8772 80.4881 21.0507 80.16 19.4891 79.8414C19.5522 79.813 20.0538 79.9266 18.7131 79.526C18.6563 79.4944 18.5175 79.4345 18.4323 79.3966L18.3408 79.3682L18.4165 79.3872C18.3629 79.3619 18.3566 79.3588 18.4449 79.3872C18.6751 79.4509 18.909 79.5004 19.1453 79.5354C18.5143 79.2452 16.4165 78.5228 15.7319 78.2105C14.9496 77.9486 16.0474 78.3808 15.5963 78.2736L14.5805 77.7972C14.4353 77.8666 12.4668 77.1663 14.265 77.9329C13.7161 77.7278 13.1735 77.507 12.6277 77.3019C11.5731 76.9426 10.5435 76.5137 9.54564 76.018C8.77905 75.7025 7.70647 75.0116 8.31847 75.406C7.49826 74.9853 6.68536 74.5563 5.87988 74.1189L5.84203 74.1346C5.49501 73.9611 5.14803 73.775 4.80101 73.5826L4.25525 73.2671L3.4729 72.816L0.15419 70.8664C0.256577 70.8315 0.362289 70.8072 0.46965 70.7938L0.822983 70.7244L1.52014 70.5888C1.98073 70.4973 2.46655 70.3932 2.93974 70.2891C3.41295 70.185 3.90508 70.0714 4.40668 69.9452L4.59595 69.8979L4.72214 69.8632L4.95874 69.797C5.11333 69.7528 5.2742 69.7055 5.42563 69.655C6.52371 69.4603 7.61049 69.2065 8.68123 68.8947L8.93677 68.7023C10.0693 68.4499 12.2429 67.636 12.7539 67.6045C13.2997 67.2638 14.6278 66.8127 16.0474 66.3426C17.467 65.8726 18.9781 65.352 19.9087 64.9451L20.0443 65.0839L24.2211 63.4593L24.1896 63.6548C25.6187 63.1722 27.6597 61.9513 29.7639 60.8693C29.3863 60.9963 29.0284 61.1758 28.7008 61.4024C29.9275 60.611 31.2143 59.917 32.5495 59.3266C33.8292 58.7901 35.0502 58.123 36.1931 57.336C36.6654 57.1193 37.1101 56.8472 37.5181 56.5253C37.4724 56.5535 37.4249 56.5788 37.3761 56.601L37.6001 56.459L38.2972 55.9007C38.1135 56.0717 37.9208 56.2328 37.72 56.3833C38.1395 56.1278 38.7831 55.7524 39.4266 55.3896L39.5749 55.0458L39.72 54.9574C40.2784 54.4968 40.2563 54.7208 40.0355 55.0647C40.3509 54.8912 40.6664 54.7492 40.9125 54.6325C41.0576 54.317 41.4709 54.0836 41.8967 53.8154L42.0545 53.7145L42.0766 53.6987L42.0576 53.7145L42.0197 53.7429C41.8788 53.8731 41.7924 54.0519 41.7778 54.2432C41.7632 54.4345 41.8214 54.6243 41.9409 54.7745C41.9879 54.8698 42.0547 54.954 42.1369 55.0214C42.219 55.0889 42.3146 55.138 42.4172 55.1656C42.5166 55.1949 42.621 55.203 42.7237 55.1894C42.8264 55.1758 42.9251 55.1408 43.0135 55.0868H43.0324H43.0135L42.9314 55.1404L42.7769 55.2571C42.5832 55.3973 42.4156 55.5702 42.2816 55.7682C41.6398 56.0686 41.0152 56.4045 40.4109 56.7745C39.6001 57.2193 38.7799 57.6231 38.5181 57.5569C38.5181 57.6137 38.3509 57.7493 38.6947 57.5569C38.0501 58.0343 37.3564 58.4414 36.6253 58.7714L36.4644 59.1973C35.8776 59.3929 35.2898 59.5811 34.7009 59.762C33.8302 60.456 33.4801 60.7715 34.5432 60.4308C32.0668 61.4087 32.6062 61.3582 30.4421 62.0901L30.6283 62.2163C29.9121 62.5759 28.6534 62.923 28.2875 63.2763C27.5682 63.8441 25.5745 64.8315 23.2211 65.8757C20.8677 66.9199 18.1516 68.0114 16.0442 68.9799C16.6752 68.0714 14.1167 69.9831 13.776 69.5572C13.571 69.7907 12.9874 70.0809 13.7413 69.9673C11.4573 70.5983 10.4384 71.3175 8.75381 71.3648C8.53615 71.5951 9.30272 71.4437 9.09766 71.6046C8.7625 71.622 8.43373 71.7034 8.12915 71.8444C7.92094 72.0021 8.49825 71.8791 8.87682 71.8444C6.54552 72.5068 6.17642 72.0683 5.89252 71.6677C5.72847 71.7434 5.57706 71.8128 5.43195 71.8727L5.28052 70.3837C6.01971 70.2753 6.77446 70.3747 7.46037 70.6708C7.88625 70.532 8.59291 70.3932 7.11652 70.2828C7.53294 70.2828 8.80426 70.2828 9.98094 70.2828C11.1576 70.2828 12.2365 70.3617 12.2776 70.5573C12.7373 70.5004 13.203 70.5121 13.6593 70.5919C15.5237 70.5919 15.6878 70.5509 17.5206 70.5762L17.0127 70.6456C17.7383 71.1251 18.5396 70.756 20.0191 70.7844L19.975 70.7339C21.6659 70.5289 22.0318 70.5604 22.3946 70.5856C22.7574 70.6109 23.1107 70.633 24.7732 70.3743L24.6028 70.6897C24.9372 71.3554 27.5525 70.185 29.4957 70.3238L28.8049 70.5478C29.8806 70.7276 31.7135 69.4405 32.7608 69.2575C32.9848 69.1787 32.3885 69.1881 32.0636 69.166C34.805 68.5351 32.4517 69.5667 34.5243 69.5162C34.8871 69.2512 33.9911 68.9673 35.3729 68.8033C35.7104 68.6771 36.7294 68.7749 37.8966 68.8285C39.0638 68.8821 40.3857 68.8632 41.3068 68.5383C40.9093 68.7685 40.5118 68.9925 41.4835 69.0335C42.2217 68.9988 43.1933 68.696 44.1523 68.4689C45.1113 68.2417 46.0451 68.0808 46.7549 68.2859C46.9347 68.2102 46.9978 68.1502 47.001 68.1029C47.5688 68.1029 48.4837 68.0461 49.3481 68.0146C50.2124 67.983 51.0232 67.9641 51.3828 68.084C51.8119 67.3868 53.5627 67.289 55.1873 67.1723C56.812 67.0556 58.3105 66.9988 58.1969 66.4152L61.6323 65.8568L61.5219 65.7527C63.6892 65.2637 64.5125 65.4088 65.3359 65.5476C65.8249 65.3678 65.4337 65.3268 65.3801 65.2732C68.5347 64.3993 68.8502 64.3899 71.6231 64.4309L71.8156 63.9735C72.2005 64.0113 73.3172 63.6201 74.721 63.1501C76.2419 62.6134 77.8138 62.2339 79.412 62.0176C79.371 61.9797 79.289 61.9166 79.0303 61.9198C79.9772 61.792 80.9092 61.5712 81.8127 61.2604C82.7591 60.945 83.6771 60.557 84.5447 60.2289C85.3114 59.915 86.1041 59.6691 86.9138 59.4938C87.6047 59.3519 88.1757 59.3708 88.6142 59.6579L90.9833 59.3424C88.0968 60.3551 91.6143 59.8787 90.4975 60.5002C91.0965 60.3533 91.6655 60.1036 92.179 59.762C92.5575 59.4875 92.6111 59.3014 91.8919 59.4844L91.6963 59.6263C90.936 59.0143 95.2074 58.1468 94.9456 57.6231C95.6554 57.3897 96.3652 57.1499 97.0624 56.8975L99.1318 56.0805L101.179 55.2477C101.517 55.1057 101.854 54.97 102.189 54.8218L103.182 54.3643L107.113 52.5662C108.397 51.9353 109.665 51.3232 110.937 50.7428L110.621 51.6513L112.391 50.8153C112.792 50.4557 112.785 50.0267 111.53 50.6261C111.779 50.2885 112.35 50.1371 112.861 50.0582C113.199 49.9795 113.551 49.9795 113.889 50.0582C116.211 48.5945 112.577 49.7743 113.322 49.3894L114.359 48.9352L114.167 49.1244C115.113 48.9825 115.325 49.2285 116.814 48.4588C117.703 47.8626 117.104 47.8279 117.464 47.6102C117.438 47.5629 117.555 47.4809 118.025 47.2947L120.158 46.0739L119.558 47.0518C120.653 46.79 121.587 45.9288 120.89 47.0518C121.142 46.6323 121.76 46.1275 122.562 45.6007C122.962 45.3357 123.41 45.0707 123.874 44.7899C124.338 44.5092 124.82 44.2126 125.287 43.9319C127.18 42.8056 129.073 41.8119 129.432 41.4081C130.947 40.9602 132.224 40.1463 133.77 39.0863C133.455 39.4428 133.581 40.1715 134.906 39.2314C133.644 38.3733 137.045 37.0925 137.508 35.4742C137.228 36.1051 138.19 35.4742 139.086 34.9221C139.982 34.3701 140.852 33.8811 140.398 34.818C141.42 33.9347 140.146 34.3291 140.77 33.4521C142.218 32.7296 143.578 31.6003 144.947 30.3416C145.638 29.7106 146.322 29.0545 147.039 28.4046C147.394 28.0786 147.76 27.7631 148.136 27.4582C148.506 27.1427 148.884 26.8273 149.278 26.5118C149.452 26.6254 149.136 27.2847 149.976 26.9661C150.291 26.2626 150.622 25.5717 150.922 24.8556C151.569 24.4171 152.219 25.2594 152.834 23.7956C152.793 24.0543 152.733 24.4455 153.171 24.149C155.745 21.212 158.742 18.6472 161.613 15.8963C164.484 13.1455 167.181 10.1864 168.995 6.57116C168.61 7.64374 169.109 7.14215 169.654 6.53961C169.386 7.00334 170.068 6.88347 170.219 7.15161L171.749 4.10105C172.784 4.18307 174.005 1.3975 174.841 1.62779L174.077 2.35337C175.68 1.85493 174.462 5.19257 175.5 5.79511C174.582 6.0601 174.207 7.09798 173.696 8.20212C173.455 8.77813 173.137 9.31841 172.749 9.80784C172.317 10.3297 171.746 10.719 171.102 10.9309C170.894 11.5177 171.711 10.8205 171.708 11.2274C170.885 11.3789 170.298 11.9152 169.449 13.1392L169.654 13.1013C168.458 14.3127 167.323 15.5836 166.254 16.909L164.708 18.827C164.134 19.5084 163.484 20.2561 162.698 21.1268L162.56 20.4959C162.172 20.9248 161.853 21.4111 161.613 21.9375C160.897 22.0227 161.414 21.5432 161.91 21.0258C162.405 20.5085 162.907 19.9816 162.206 20.0132C162.165 20.4454 161.834 20.9596 161.348 21.5337C160.862 22.1079 160.225 22.6852 159.604 23.2751C158.982 23.865 158.37 24.4423 157.919 24.966C157.468 25.4897 157.187 25.9629 157.228 26.3478C156.074 27.3762 157.149 25.5812 155.995 26.6033L155.906 27.1238L155.323 27.0481C154.603 27.7579 154.49 28.4078 154.645 28.6507C154.894 28.447 155.16 28.2644 155.439 28.1049C154.704 29.2721 152.499 30.3794 152.234 30.7611L153.256 29.6538C151.528 30.8747 149.72 32.3605 147.862 33.7549C146.916 34.4489 146.004 35.1398 145.057 35.7487C144.588 36.0536 144.122 36.3459 143.657 36.6257C143.187 36.8938 142.71 37.143 142.256 37.3702L142.367 36.9948C141.504 37.3937 140.71 37.926 140.013 38.5721C139.276 39.2833 138.445 39.8904 137.543 40.3766L137.679 40.3545C137.293 40.4592 136.918 40.5997 136.559 40.774C136.148 40.9631 135.752 41.1847 135.376 41.4365C136.256 41.2157 134.294 42.7457 135.417 42.405C132.309 43.7899 133.802 42.976 131.467 43.4113L131.237 44.0139C130.417 44.1148 130.256 43.9697 128.745 44.7332C130.117 44.3262 128.114 45.7742 129.675 45.3641C128.63 46.3138 127.397 47.0348 126.057 47.4809C125.805 47.5787 125.565 47.6765 125.341 47.7743C125.122 47.8615 124.911 47.967 124.71 48.0897C124.312 48.3172 123.993 48.6606 123.795 49.074C121.852 48.9162 126.256 47.1433 125.331 47.361C125.577 47.014 125.199 47.0455 124.625 47.1686C123.993 47.3285 123.39 47.5816 122.833 47.9194C122.338 48.1938 122.066 48.708 121.599 49.32C121.332 49.6737 121.03 49.9992 120.697 50.2917C120.239 50.6897 119.726 51.0191 119.173 51.2696C119.429 51.1403 119.489 51.2034 119.738 51.0772C118.883 51.7681 117.684 51.664 116.678 52.6072C115.747 52.3737 115.148 53.3738 114.628 52.7618L117.072 51.7933C116.356 52.0236 115.587 52.0835 114.747 52.2665C113.753 52.4716 112.806 52.8645 111.959 53.4243C112.46 53.4483 112.962 53.4026 113.451 53.2886C112.889 53.7807 112.126 53.7019 111.558 54.2098C111.81 54.5252 112.558 54.2382 113.451 53.8691C114.344 53.5 115.375 52.9889 116.227 52.9227C115.949 53.2381 115.205 53.4337 114.669 53.6041C114.132 53.7744 113.788 53.8975 114.334 54.1214C112.836 53.6167 111.785 55.3833 109.681 55.4022L109.978 55.7713C109.468 55.8256 108.966 55.9389 108.482 56.1089C108.877 56.1688 109.261 56.2035 109.656 56.2508C108.888 56.37 108.158 56.6647 107.523 57.1121C106.873 57.5127 106.239 57.9354 105.485 58.0869C108.441 56.9449 105.946 57.3266 107.063 56.5348C105.141 56.9701 104.735 57.4465 104.28 57.9891C104.026 58.3215 103.72 58.6112 103.375 58.8471C102.705 59.2497 101.982 59.5556 101.227 59.7557C101.81 59.6169 103.23 58.7651 102.287 58.885C101.528 59.2192 100.812 59.6428 100.154 60.1469C97.3936 61.0302 100.422 59.5759 99.1697 59.7367C99.0323 59.903 98.8566 60.0335 98.6577 60.117C98.4588 60.2005 98.2426 60.2346 98.0277 60.2163C97.5229 60.152 97.012 60.152 96.5072 60.2163L96.6396 60.6358C93.5954 61.9135 95.5229 60.0396 92.8194 61.2668L94.1916 61.4529C93.6837 61.5601 93.1821 61.6769 92.6742 61.7683L93.1285 62.1438C91.4029 62.2699 90.9202 62.5065 89.3902 63.0902C89.671 62.6927 88.9675 62.4151 87.5668 62.8031C86.6804 63.2984 88.2135 63.046 86.2072 63.5192C86.7245 63.6517 87.3145 63.8347 88.0716 63.2321C88.1978 63.3394 88.5889 63.3583 88.7183 63.4656C87.7719 64.0492 86.1315 64.2227 85.409 64.412C85.6725 64.3356 85.9264 64.2298 86.1662 64.0965L83.1251 64.3047C82.7086 64.5697 83.103 64.6044 83.491 64.6202C82.8948 64.7337 82.4373 64.6359 81.5635 64.8126C81.879 65.0839 81.901 65.4435 83.1692 65.2921L80.3016 65.6076C80.1502 65.7906 78.9704 66.3331 79.3552 66.3647C78.6076 66.6518 77.6202 66.6802 76.576 66.759C75.5079 66.7944 74.4483 66.9619 73.4213 67.2575C73.1596 67.2085 72.8912 67.2085 72.6295 67.2575C71.6831 67.4846 70.7872 67.778 69.8439 68.0177C68.8185 68.2757 67.7655 68.4081 66.7082 68.4121L65.5126 69.1976C63.6955 69.3774 67.1404 68.2007 64.1182 68.5067C61.9762 68.696 63.4147 69.1093 62.6986 69.3869C61.5945 69.2922 59.6827 69.0399 57.812 69.7938C58.4035 69.7687 58.9932 69.7118 59.5786 69.6235ZM37.2373 72.103C37.6758 72.1409 38.5622 72.2955 38.8619 72.0715C38.332 71.7245 37.9692 71.9264 37.2373 72.103ZM7.05345 70.0336C6.59247 70.0807 6.14592 70.2214 5.74109 70.4468C6.19164 70.3547 6.63142 70.2162 7.05345 70.0336ZM11.4132 76.7783L11.3722 76.753C10.4636 76.3934 10.7854 76.5133 11.4132 76.7625V76.7783ZM13.306 77.4975C13.489 77.589 13.47 77.5985 13.3817 77.5827C13.0506 77.4174 12.7104 77.271 12.3627 77.1442C12.6852 77.2262 12.999 77.3393 13.2997 77.4817L13.306 77.4975ZM117.76 47.6733L117.47 47.9541C118.315 47.6954 118.038 47.6891 117.76 47.6733Z" fill="url(#paint56_linear_85_524)"/>
<path d="M7.00031 72.2009C7.08113 72.1799 7.15033 72.1277 7.19274 72.0558C7.35994 72.1094 7.3631 72.1662 7.00031 72.2009Z" fill="url(#paint57_linear_85_524)"/>
<path d="M73.3613 67.3427L73.4275 67.3269C73.4607 67.3373 73.4903 67.357 73.5127 67.3837L73.3613 67.3427Z" fill="url(#paint58_linear_85_524)"/>
<path d="M19.5588 67.0777C19.8082 66.9794 20.0488 66.8602 20.2781 66.7212C20.3159 66.7527 20.1519 66.8537 19.5588 67.0777Z" fill="url(#paint59_linear_85_524)"/>
<path d="M23.4033 80.9582L22.1415 80.6049C22.7471 80.7689 22.968 80.8036 23.2771 80.8699C23.2582 80.8856 23.0121 80.8541 23.4033 80.9582Z" fill="url(#paint60_linear_85_524)"/>
<path d="M34.4803 82.5324L35.0576 82.6176L35.0008 82.6491C34.209 82.545 33.6696 82.4378 34.4803 82.5324Z" fill="url(#paint61_linear_85_524)"/>
<path d="M24.6441 80.9297C24.7639 80.8698 25.5368 81.1064 26.417 81.3083L26.2593 81.2736C26.4959 81.4376 25.5621 81.2011 24.6441 80.9297Z" fill="url(#paint62_linear_85_524)"/>
<path d="M26.6181 81.3557C26.8894 81.4188 27.167 81.4819 27.432 81.5355C27.5267 81.6018 27.1008 81.4724 26.6181 81.3557Z" fill="url(#paint63_linear_85_524)"/>
<path d="M15.6657 78.4566C16.079 78.5764 15.8771 78.6585 16.12 78.7026C16.3282 78.8383 15.6594 78.5701 15.2241 78.3588C14.7887 78.1474 14.5742 78.0181 15.6657 78.4566Z" fill="url(#paint64_linear_85_524)"/>
<path d="M25.4141 80.8446L25.0797 80.8635L24.6096 80.6648L25.4141 80.8446Z" fill="url(#paint65_linear_85_524)"/>
<path d="M18.565 78.974L19.9436 79.3873C19.9152 79.3873 20.0855 79.463 20.2969 79.5387C19.4514 79.2737 18.5271 78.9992 18.565 78.974Z" fill="url(#paint66_linear_85_524)"/>
<path d="M20.297 79.5386C20.7418 79.6679 21.1614 79.7941 21.4043 79.8824C21.1645 79.813 20.6503 79.6553 20.297 79.5386Z" fill="url(#paint67_linear_85_524)"/>
<path d="M23.5176 80.3336L23.1043 80.2421L22.1232 79.9834L23.5176 80.3336Z" fill="url(#paint68_linear_85_524)"/>
<path d="M4.39024 72.7844C3.89811 72.4942 3.4186 72.2103 2.94855 71.9201C2.89177 71.8317 3.3208 72.0463 3.81293 72.3491C4.10631 72.5573 4.64576 72.8728 4.39024 72.7844Z" fill="url(#paint69_linear_85_524)"/>
<path d="M8.78516 74.6521C8.56897 74.5642 8.34508 74.4966 8.11637 74.4502L8.14477 74.283L8.78516 74.6521Z" fill="url(#paint70_linear_85_524)"/>
<path d="M4.76988 72.5163C4.72572 72.4627 4.37869 72.2293 4.22727 72.1125C4.07584 71.9958 4.08531 71.98 4.66577 72.3113C4.71572 72.3632 4.77189 72.4087 4.83298 72.4469L5.18944 72.6772C5.38503 72.8097 5.39135 72.8349 4.76988 72.5163Z" fill="url(#paint71_linear_85_524)"/>
<path d="M21.6182 65.6549L21.2428 65.7969L21.1639 65.4373L21.6182 65.6549Z" fill="url(#paint72_linear_85_524)"/>
<path d="M40.6974 57.0237C39.1547 58.1026 40.18 57.0395 38.8046 58.0269C38.3755 58.1689 39.9339 57.2193 39.4986 57.3771C40.5144 56.8786 40.9813 56.5001 40.6974 57.0237Z" fill="url(#paint73_linear_85_524)"/>
<path d="M39.4922 57.3771C39.3313 57.4591 39.1546 57.5411 38.9653 57.6231C39.2619 57.478 39.4007 57.4149 39.4922 57.3771Z" fill="url(#paint74_linear_85_524)"/>
<path d="M172.633 1.99376L173.156 0.905396L173.017 1.76977L172.633 1.99376Z" fill="url(#paint75_linear_85_524)"/>
<path d="M174.778 0.820213L174.314 0.09464L175.333 0C175.137 0.186125 174.762 0.545757 174.778 0.820213Z" fill="url(#paint76_linear_85_524)"/>
<path d="M33.9663 73.2261L33.8685 73.1251C34.0452 72.9989 34.3259 72.9737 34.8906 72.9232L33.9663 73.2261Z" fill="url(#paint77_linear_85_524)"/>
<path d="M50.2213 71.3932L49.9437 71.4374L50.4043 70.939L50.2213 71.3932Z" fill="url(#paint78_linear_85_524)"/>
<path d="M63.8727 69.9137C63.3238 70.0241 62.6582 70.0304 62.1061 70.144C63.3238 70.0336 63.9169 69.3206 63.8727 69.9137Z" fill="url(#paint79_linear_85_524)"/>
<defs>
<linearGradient id="paint0_linear_85_524" x1="3.49902" y1="72.1261" x2="3.32346" y2="71.7287" gradientUnits="userSpaceOnUse">
<stop stop-color="#58ABF7"/>
<stop offset="0.213542" stop-color="#4079DB"/>
<stop offset="0.463542" stop-color="#826CDE"/>
<stop offset="0.713542" stop-color="#BB77C2"/>
<stop offset="1" stop-color="#FBDBAA"/>
</linearGradient>
<linearGradient id="paint1_linear_85_524" x1="12.2969" y1="76.4597" x2="11.997" y2="75.6205" gradientUnits="userSpaceOnUse">
<stop stop-color="#58ABF7"/>
<stop offset="0.213542" stop-color="#4079DB"/>
<stop offset="0.463542" stop-color="#826CDE"/>
<stop offset="0.713542" stop-color="#BB77C2"/>
<stop offset="1" stop-color="#FBDBAA"/>
</linearGradient>
<linearGradient id="paint2_linear_85_524" x1="18.9238" y1="78.9108" x2="18.0392" y2="75.8857" gradientUnits="userSpaceOnUse">
<stop stop-color="#58ABF7"/>
<stop offset="0.213542" stop-color="#4079DB"/>
<stop offset="0.463542" stop-color="#826CDE"/>
<stop offset="0.713542" stop-color="#BB77C2"/>
<stop offset="1" stop-color="#FBDBAA"/>
</linearGradient>
<linearGradient id="paint3_linear_85_524" x1="23.2744" y1="80.0759" x2="23.1608" y2="79.5575" gradientUnits="userSpaceOnUse">
<stop stop-color="#58ABF7"/>
<stop offset="0.213542" stop-color="#4079DB"/>
<stop offset="0.463542" stop-color="#826CDE"/>
<stop offset="0.713542" stop-color="#BB77C2"/>
<stop offset="1" stop-color="#FBDBAA"/>
</linearGradient>
<linearGradient id="paint4_linear_85_524" x1="22.4814" y1="79.8416" x2="22.4444" y2="79.6614" gradientUnits="userSpaceOnUse">
<stop stop-color="#58ABF7"/>
<stop offset="0.213542" stop-color="#4079DB"/>
<stop offset="0.463542" stop-color="#826CDE"/>
<stop offset="0.713542" stop-color="#BB77C2"/>
<stop offset="1" stop-color="#FBDBAA"/>
</linearGradient>
<linearGradient id="paint5_linear_85_524" x1="26.7627" y1="80.8703" x2="26.6497" y2="80.2339" gradientUnits="userSpaceOnUse">
<stop stop-color="#58ABF7"/>
<stop offset="0.213542" stop-color="#4079DB"/>
<stop offset="0.463542" stop-color="#826CDE"/>
<stop offset="0.713542" stop-color="#BB77C2"/>
<stop offset="1" stop-color="#FBDBAA"/>
</linearGradient>
<linearGradient id="paint6_linear_85_524" x1="27.2588" y1="81.0528" x2="27.2157" y2="80.8214" gradientUnits="userSpaceOnUse">
<stop stop-color="#58ABF7"/>
<stop offset="0.213542" stop-color="#4079DB"/>
<stop offset="0.463542" stop-color="#826CDE"/>
<stop offset="0.713542" stop-color="#BB77C2"/>
<stop offset="1" stop-color="#FBDBAA"/>
</linearGradient>
<linearGradient id="paint7_linear_85_524" x1="26.6846" y1="80.9204" x2="26.5873" y2="80.4146" gradientUnits="userSpaceOnUse">
<stop stop-color="#58ABF7"/>
<stop offset="0.213542" stop-color="#4079DB"/>
<stop offset="0.463542" stop-color="#826CDE"/>
<stop offset="0.713542" stop-color="#BB77C2"/>
<stop offset="1" stop-color="#FBDBAA"/>
</linearGradient>
<linearGradient id="paint8_linear_85_524" x1="24.7803" y1="80.4724" x2="24.6335" y2="79.7318" gradientUnits="userSpaceOnUse">
<stop stop-color="#58ABF7"/>
<stop offset="0.213542" stop-color="#4079DB"/>
<stop offset="0.463542" stop-color="#826CDE"/>
<stop offset="0.713542" stop-color="#BB77C2"/>
<stop offset="1" stop-color="#FBDBAA"/>
</linearGradient>
<linearGradient id="paint9_linear_85_524" x1="19.3145" y1="79.0814" x2="19.0883" y2="78.235" gradientUnits="userSpaceOnUse">
<stop stop-color="#58ABF7"/>
<stop offset="0.213542" stop-color="#4079DB"/>
<stop offset="0.463542" stop-color="#826CDE"/>
<stop offset="0.713542" stop-color="#BB77C2"/>
<stop offset="1" stop-color="#FBDBAA"/>
</linearGradient>
<linearGradient id="paint10_linear_85_524" x1="33.1836" y1="82.004" x2="33.1564" y2="81.7243" gradientUnits="userSpaceOnUse">
<stop stop-color="#58ABF7"/>
<stop offset="0.213542" stop-color="#4079DB"/>
<stop offset="0.463542" stop-color="#826CDE"/>
<stop offset="0.713542" stop-color="#BB77C2"/>
<stop offset="1" stop-color="#FBDBAA"/>
</linearGradient>
<linearGradient id="paint11_linear_85_524" x1="33.9629" y1="82.2012" x2="33.9164" y2="81.8423" gradientUnits="userSpaceOnUse">
<stop stop-color="#58ABF7"/>
<stop offset="0.213542" stop-color="#4079DB"/>
<stop offset="0.463542" stop-color="#826CDE"/>
<stop offset="0.713542" stop-color="#BB77C2"/>
<stop offset="1" stop-color="#FBDBAA"/>
</linearGradient>
<linearGradient id="paint12_linear_85_524" x1="27.8301" y1="81.2515" x2="27.6324" y2="80.2412" gradientUnits="userSpaceOnUse">
<stop stop-color="#58ABF7"/>
<stop offset="0.213542" stop-color="#4079DB"/>
<stop offset="0.463542" stop-color="#826CDE"/>
<stop offset="0.713542" stop-color="#BB77C2"/>
<stop offset="1" stop-color="#FBDBAA"/>
</linearGradient>
<linearGradient id="paint13_linear_85_524" x1="38.4932" y1="82.5892" x2="38.4598" y2="82.285" gradientUnits="userSpaceOnUse">
<stop stop-color="#58ABF7"/>
<stop offset="0.213542" stop-color="#4079DB"/>
<stop offset="0.463542" stop-color="#826CDE"/>
<stop offset="0.713542" stop-color="#BB77C2"/>
<stop offset="1" stop-color="#FBDBAA"/>
</linearGradient>
<linearGradient id="paint14_linear_85_524" x1="41.376" y1="83.7407" x2="40.6906" y2="82.0436" gradientUnits="userSpaceOnUse">
<stop stop-color="#58ABF7"/>
<stop offset="0.213542" stop-color="#4079DB"/>
<stop offset="0.463542" stop-color="#826CDE"/>
<stop offset="0.713542" stop-color="#BB77C2"/>
<stop offset="1" stop-color="#FBDBAA"/>
</linearGradient>
<linearGradient id="paint15_linear_85_524" x1="39.2061" y1="83.5388" x2="39.1845" y2="83.307" gradientUnits="userSpaceOnUse">
<stop stop-color="#58ABF7"/>
<stop offset="0.213542" stop-color="#4079DB"/>
<stop offset="0.463542" stop-color="#826CDE"/>
<stop offset="0.713542" stop-color="#BB77C2"/>
<stop offset="1" stop-color="#FBDBAA"/>
</linearGradient>
<linearGradient id="paint16_linear_85_524" x1="37.0645" y1="82.4945" x2="37.0611" y2="82.4081" gradientUnits="userSpaceOnUse">
<stop stop-color="#58ABF7"/>
<stop offset="0.213542" stop-color="#4079DB"/>
<stop offset="0.463542" stop-color="#826CDE"/>
<stop offset="0.713542" stop-color="#BB77C2"/>
<stop offset="1" stop-color="#FBDBAA"/>
</linearGradient>
<linearGradient id="paint17_linear_85_524" x1="37.6289" y1="82.5955" x2="37.616" y2="82.4197" gradientUnits="userSpaceOnUse">
<stop stop-color="#58ABF7"/>
<stop offset="0.213542" stop-color="#4079DB"/>
<stop offset="0.463542" stop-color="#826CDE"/>
<stop offset="0.713542" stop-color="#BB77C2"/>
<stop offset="1" stop-color="#FBDBAA"/>
</linearGradient>
<linearGradient id="paint18_linear_85_524" x1="36.0762" y1="82.4392" x2="36.0759" y2="82.4308" gradientUnits="userSpaceOnUse">
<stop stop-color="#58ABF7"/>
<stop offset="0.213542" stop-color="#4079DB"/>
<stop offset="0.463542" stop-color="#826CDE"/>
<stop offset="0.713542" stop-color="#BB77C2"/>
<stop offset="1" stop-color="#FBDBAA"/>
</linearGradient>
<linearGradient id="paint19_linear_85_524" x1="32.0703" y1="82.0394" x2="31.9846" y2="81.5311" gradientUnits="userSpaceOnUse">
<stop stop-color="#58ABF7"/>
<stop offset="0.213542" stop-color="#4079DB"/>
<stop offset="0.463542" stop-color="#826CDE"/>
<stop offset="0.713542" stop-color="#BB77C2"/>
<stop offset="1" stop-color="#FBDBAA"/>
</linearGradient>
<linearGradient id="paint20_linear_85_524" x1="35.335" y1="82.4283" x2="35.2883" y2="82.0463" gradientUnits="userSpaceOnUse">
<stop stop-color="#58ABF7"/>
<stop offset="0.213542" stop-color="#4079DB"/>
<stop offset="0.463542" stop-color="#826CDE"/>
<stop offset="0.713542" stop-color="#BB77C2"/>
<stop offset="1" stop-color="#FBDBAA"/>
</linearGradient>
<linearGradient id="paint21_linear_85_524" x1="35.9814" y1="82.5197" x2="35.9628" y2="82.3565" gradientUnits="userSpaceOnUse">
<stop stop-color="#58ABF7"/>
<stop offset="0.213542" stop-color="#4079DB"/>
<stop offset="0.463542" stop-color="#826CDE"/>
<stop offset="0.713542" stop-color="#BB77C2"/>
<stop offset="1" stop-color="#FBDBAA"/>
</linearGradient>
<linearGradient id="paint22_linear_85_524" x1="40.9297" y1="83.5118" x2="40.9123" y2="83.2022" gradientUnits="userSpaceOnUse">
<stop stop-color="#58ABF7"/>
<stop offset="0.213542" stop-color="#4079DB"/>
<stop offset="0.463542" stop-color="#826CDE"/>
<stop offset="0.713542" stop-color="#BB77C2"/>
<stop offset="1" stop-color="#FBDBAA"/>
</linearGradient>
<linearGradient id="paint23_linear_85_524" x1="39.6631" y1="82.7457" x2="39.6623" y2="82.7307" gradientUnits="userSpaceOnUse">
<stop stop-color="#58ABF7"/>
<stop offset="0.213542" stop-color="#4079DB"/>
<stop offset="0.463542" stop-color="#826CDE"/>
<stop offset="0.713542" stop-color="#BB77C2"/>
<stop offset="1" stop-color="#FBDBAA"/>
</linearGradient>
<linearGradient id="paint24_linear_85_524" x1="41.3516" y1="83.4756" x2="40.8308" y2="82.6936" gradientUnits="userSpaceOnUse">
<stop stop-color="#58ABF7"/>
<stop offset="0.213542" stop-color="#4079DB"/>
<stop offset="0.463542" stop-color="#826CDE"/>
<stop offset="0.713542" stop-color="#BB77C2"/>
<stop offset="1" stop-color="#FBDBAA"/>
</linearGradient>
<linearGradient id="paint25_linear_85_524" x1="37.1211" y1="83.2579" x2="37.1153" y2="83.1442" gradientUnits="userSpaceOnUse">
<stop stop-color="#58ABF7"/>
<stop offset="0.213542" stop-color="#4079DB"/>
<stop offset="0.463542" stop-color="#826CDE"/>
<stop offset="0.713542" stop-color="#BB77C2"/>
<stop offset="1" stop-color="#FBDBAA"/>
</linearGradient>
<linearGradient id="paint26_linear_85_524" x1="39.915" y1="82.7468" x2="39.9147" y2="82.736" gradientUnits="userSpaceOnUse">
<stop stop-color="#58ABF7"/>
<stop offset="0.213542" stop-color="#4079DB"/>
<stop offset="0.463542" stop-color="#826CDE"/>
<stop offset="0.713542" stop-color="#BB77C2"/>
<stop offset="1" stop-color="#FBDBAA"/>
</linearGradient>
<linearGradient id="paint27_linear_85_524" x1="40.6094" y1="82.8195" x2="40.6013" y2="82.6889" gradientUnits="userSpaceOnUse">
<stop stop-color="#58ABF7"/>
<stop offset="0.213542" stop-color="#4079DB"/>
<stop offset="0.463542" stop-color="#826CDE"/>
<stop offset="0.713542" stop-color="#BB77C2"/>
<stop offset="1" stop-color="#FBDBAA"/>
</linearGradient>
<linearGradient id="paint28_linear_85_524" x1="32.9209" y1="82.5191" x2="32.5686" y2="80.5774" gradientUnits="userSpaceOnUse">
<stop stop-color="#58ABF7"/>
<stop offset="0.213542" stop-color="#4079DB"/>
<stop offset="0.463542" stop-color="#826CDE"/>
<stop offset="0.713542" stop-color="#BB77C2"/>
<stop offset="1" stop-color="#FBDBAA"/>
</linearGradient>
<linearGradient id="paint29_linear_85_524" x1="34.6064" y1="82.9394" x2="34.5239" y2="82.196" gradientUnits="userSpaceOnUse">
<stop stop-color="#58ABF7"/>
<stop offset="0.213542" stop-color="#4079DB"/>
<stop offset="0.463542" stop-color="#826CDE"/>
<stop offset="0.713542" stop-color="#BB77C2"/>
<stop offset="1" stop-color="#FBDBAA"/>
</linearGradient>
<linearGradient id="paint30_linear_85_524" x1="38.458" y1="83.34" x2="38.3982" y2="82.6255" gradientUnits="userSpaceOnUse">
<stop stop-color="#58ABF7"/>
<stop offset="0.213542" stop-color="#4079DB"/>
<stop offset="0.463542" stop-color="#826CDE"/>
<stop offset="0.713542" stop-color="#BB77C2"/>
<stop offset="1" stop-color="#FBDBAA"/>
</linearGradient>
<linearGradient id="paint31_linear_85_524" x1="33.0088" y1="82.3183" x2="33.0033" y2="82.2667" gradientUnits="userSpaceOnUse">
<stop stop-color="#58ABF7"/>
<stop offset="0.213542" stop-color="#4079DB"/>
<stop offset="0.463542" stop-color="#826CDE"/>
<stop offset="0.713542" stop-color="#BB77C2"/>
<stop offset="1" stop-color="#FBDBAA"/>
</linearGradient>
<linearGradient id="paint32_linear_85_524" x1="35.1182" y1="82.4623" x2="35.069" y2="81.896" gradientUnits="userSpaceOnUse">
<stop stop-color="#58ABF7"/>
<stop offset="0.213542" stop-color="#4079DB"/>
<stop offset="0.463542" stop-color="#826CDE"/>
<stop offset="0.713542" stop-color="#BB77C2"/>
<stop offset="1" stop-color="#FBDBAA"/>
</linearGradient>
<linearGradient id="paint33_linear_85_524" x1="41.2803" y1="83.2961" x2="41.1486" y2="82.6557" gradientUnits="userSpaceOnUse">
<stop stop-color="#58ABF7"/>
<stop offset="0.213542" stop-color="#4079DB"/>
<stop offset="0.463542" stop-color="#826CDE"/>
<stop offset="0.713542" stop-color="#BB77C2"/>
<stop offset="1" stop-color="#FBDBAA"/>
</linearGradient>
<linearGradient id="paint34_linear_85_524" x1="31.4668" y1="82.6238" x2="31.352" y2="82.0778" gradientUnits="userSpaceOnUse">
<stop stop-color="#58ABF7"/>
<stop offset="0.213542" stop-color="#4079DB"/>
<stop offset="0.463542" stop-color="#826CDE"/>
<stop offset="0.713542" stop-color="#BB77C2"/>
<stop offset="1" stop-color="#FBDBAA"/>
</linearGradient>
<linearGradient id="paint35_linear_85_524" x1="28.5215" y1="82.0908" x2="28.4542" y2="81.7685" gradientUnits="userSpaceOnUse">
<stop stop-color="#58ABF7"/>
<stop offset="0.213542" stop-color="#4079DB"/>
<stop offset="0.463542" stop-color="#826CDE"/>
<stop offset="0.713542" stop-color="#BB77C2"/>
<stop offset="1" stop-color="#FBDBAA"/>
</linearGradient>
<linearGradient id="paint36_linear_85_524" x1="49.2852" y1="71.1163" x2="49.2849" y2="71.098" gradientUnits="userSpaceOnUse">
<stop stop-color="#58ABF7"/>
<stop offset="0.213542" stop-color="#4079DB"/>
<stop offset="0.463542" stop-color="#826CDE"/>
<stop offset="0.713542" stop-color="#BB77C2"/>
<stop offset="1" stop-color="#FBDBAA"/>
</linearGradient>
<linearGradient id="paint37_linear_85_524" x1="44.1797" y1="71.6424" x2="44.0949" y2="71.4522" gradientUnits="userSpaceOnUse">
<stop stop-color="#58ABF7"/>
<stop offset="0.213542" stop-color="#4079DB"/>
<stop offset="0.463542" stop-color="#826CDE"/>
<stop offset="0.713542" stop-color="#BB77C2"/>
<stop offset="1" stop-color="#FBDBAA"/>
</linearGradient>
<linearGradient id="paint38_linear_85_524" x1="39.7109" y1="55.9007" x2="38.6915" y2="54.4245" gradientUnits="userSpaceOnUse">
<stop stop-color="#58ABF7"/>
<stop offset="0.213542" stop-color="#4079DB"/>
<stop offset="0.463542" stop-color="#826CDE"/>
<stop offset="0.713542" stop-color="#BB77C2"/>
<stop offset="1" stop-color="#FBDBAA"/>
</linearGradient>
<linearGradient id="paint39_linear_85_524" x1="6.47949" y1="71.3017" x2="6.36245" y2="70.835" gradientUnits="userSpaceOnUse">
<stop stop-color="#58ABF7"/>
<stop offset="0.213542" stop-color="#4079DB"/>
<stop offset="0.463542" stop-color="#826CDE"/>
<stop offset="0.713542" stop-color="#BB77C2"/>
<stop offset="1" stop-color="#FBDBAA"/>
</linearGradient>
<linearGradient id="paint40_linear_85_524" x1="8.30566" y1="72.3271" x2="8.29121" y2="72.1286" gradientUnits="userSpaceOnUse">
<stop stop-color="#58ABF7"/>
<stop offset="0.213542" stop-color="#4079DB"/>
<stop offset="0.463542" stop-color="#826CDE"/>
<stop offset="0.713542" stop-color="#BB77C2"/>
<stop offset="1" stop-color="#FBDBAA"/>
</linearGradient>
<linearGradient id="paint41_linear_85_524" x1="74.3174" y1="67.6801" x2="74.1711" y2="67.1881" gradientUnits="userSpaceOnUse">
<stop stop-color="#58ABF7"/>
<stop offset="0.213542" stop-color="#4079DB"/>
<stop offset="0.463542" stop-color="#826CDE"/>
<stop offset="0.713542" stop-color="#BB77C2"/>
<stop offset="1" stop-color="#FBDBAA"/>
</linearGradient>
<linearGradient id="paint42_linear_85_524" x1="2.9248" y1="70.9169" x2="2.69507" y2="69.7122" gradientUnits="userSpaceOnUse">
<stop stop-color="#58ABF7"/>
<stop offset="0.213542" stop-color="#4079DB"/>
<stop offset="0.463542" stop-color="#826CDE"/>
<stop offset="0.713542" stop-color="#BB77C2"/>
<stop offset="1" stop-color="#FBDBAA"/>
</linearGradient>
<linearGradient id="paint43_linear_85_524" x1="46.998" y1="68.0997" x2="46.9622" y2="67.8892" gradientUnits="userSpaceOnUse">
<stop stop-color="#58ABF7"/>
<stop offset="0.213542" stop-color="#4079DB"/>
<stop offset="0.463542" stop-color="#826CDE"/>
<stop offset="0.713542" stop-color="#BB77C2"/>
<stop offset="1" stop-color="#FBDBAA"/>
</linearGradient>
<linearGradient id="paint44_linear_85_524" x1="5.83301" y1="70.226" x2="5.63742" y2="69.1145" gradientUnits="userSpaceOnUse">
<stop stop-color="#58ABF7"/>
<stop offset="0.213542" stop-color="#4079DB"/>
<stop offset="0.463542" stop-color="#826CDE"/>
<stop offset="0.713542" stop-color="#BB77C2"/>
<stop offset="1" stop-color="#FBDBAA"/>
</linearGradient>
<linearGradient id="paint45_linear_85_524" x1="155.583" y1="28.105" x2="155.421" y2="27.944" gradientUnits="userSpaceOnUse">
<stop stop-color="#58ABF7"/>
<stop offset="0.213542" stop-color="#4079DB"/>
<stop offset="0.463542" stop-color="#826CDE"/>
<stop offset="0.713542" stop-color="#BB77C2"/>
<stop offset="1" stop-color="#FBDBAA"/>
</linearGradient>
<linearGradient id="paint46_linear_85_524" x1="170.405" y1="6.54913" x2="169.691" y2="5.75229" gradientUnits="userSpaceOnUse">
<stop stop-color="#58ABF7"/>
<stop offset="0.213542" stop-color="#4079DB"/>
<stop offset="0.463542" stop-color="#826CDE"/>
<stop offset="0.713542" stop-color="#BB77C2"/>
<stop offset="1" stop-color="#FBDBAA"/>
</linearGradient>
<linearGradient id="paint47_linear_85_524" x1="17.7637" y1="79.2767" x2="17.7191" y2="79.1184" gradientUnits="userSpaceOnUse">
<stop stop-color="#58ABF7"/>
<stop offset="0.213542" stop-color="#4079DB"/>
<stop offset="0.463542" stop-color="#826CDE"/>
<stop offset="0.713542" stop-color="#BB77C2"/>
<stop offset="1" stop-color="#FBDBAA"/>
</linearGradient>
<linearGradient id="paint48_linear_85_524" x1="20.3662" y1="79.6932" x2="20.2955" y2="79.523" gradientUnits="userSpaceOnUse">
<stop stop-color="#58ABF7"/>
<stop offset="0.213542" stop-color="#4079DB"/>
<stop offset="0.463542" stop-color="#826CDE"/>
<stop offset="0.713542" stop-color="#BB77C2"/>
<stop offset="1" stop-color="#FBDBAA"/>
</linearGradient>
<linearGradient id="paint49_linear_85_524" x1="11.7793" y1="68.9741" x2="11.7477" y2="68.888" gradientUnits="userSpaceOnUse">
<stop stop-color="#58ABF7"/>
<stop offset="0.213542" stop-color="#4079DB"/>
<stop offset="0.463542" stop-color="#826CDE"/>
<stop offset="0.713542" stop-color="#BB77C2"/>
<stop offset="1" stop-color="#FBDBAA"/>
</linearGradient>
<linearGradient id="paint50_linear_85_524" x1="18.3564" y1="79.4125" x2="18.272" y2="79.0502" gradientUnits="userSpaceOnUse">
<stop stop-color="#58ABF7"/>
<stop offset="0.213542" stop-color="#4079DB"/>
<stop offset="0.463542" stop-color="#826CDE"/>
<stop offset="0.713542" stop-color="#BB77C2"/>
<stop offset="1" stop-color="#FBDBAA"/>
</linearGradient>
<linearGradient id="paint51_linear_85_524" x1="18.7422" y1="79.5873" x2="18.6689" y2="79.3014" gradientUnits="userSpaceOnUse">
<stop stop-color="#58ABF7"/>
<stop offset="0.213542" stop-color="#4079DB"/>
<stop offset="0.463542" stop-color="#826CDE"/>
<stop offset="0.713542" stop-color="#BB77C2"/>
<stop offset="1" stop-color="#FBDBAA"/>
</linearGradient>
<linearGradient id="paint52_linear_85_524" x1="17.624" y1="79.2137" x2="17.4772" y2="78.6843" gradientUnits="userSpaceOnUse">
<stop stop-color="#58ABF7"/>
<stop offset="0.213542" stop-color="#4079DB"/>
<stop offset="0.463542" stop-color="#826CDE"/>
<stop offset="0.713542" stop-color="#BB77C2"/>
<stop offset="1" stop-color="#FBDBAA"/>
</linearGradient>
<linearGradient id="paint53_linear_85_524" x1="113.925" y1="53.2917" x2="113.881" y2="53.0801" gradientUnits="userSpaceOnUse">
<stop stop-color="#58ABF7"/>
<stop offset="0.213542" stop-color="#4079DB"/>
<stop offset="0.463542" stop-color="#826CDE"/>
<stop offset="0.713542" stop-color="#BB77C2"/>
<stop offset="1" stop-color="#FBDBAA"/>
</linearGradient>
<linearGradient id="paint54_linear_85_524" x1="32.9414" y1="59.1311" x2="32.907" y2="59.0629" gradientUnits="userSpaceOnUse">
<stop stop-color="#58ABF7"/>
<stop offset="0.213542" stop-color="#4079DB"/>
<stop offset="0.463542" stop-color="#826CDE"/>
<stop offset="0.713542" stop-color="#BB77C2"/>
<stop offset="1" stop-color="#FBDBAA"/>
</linearGradient>
<linearGradient id="paint55_linear_85_524" x1="32.8643" y1="59.9812" x2="32.3666" y2="58.6015" gradientUnits="userSpaceOnUse">
<stop stop-color="#58ABF7"/>
<stop offset="0.213542" stop-color="#4079DB"/>
<stop offset="0.463542" stop-color="#826CDE"/>
<stop offset="0.713542" stop-color="#BB77C2"/>
<stop offset="1" stop-color="#FBDBAA"/>
</linearGradient>
<linearGradient id="paint56_linear_85_524" x1="175.5" y1="81.6364" x2="128.593" y2="-45.6993" gradientUnits="userSpaceOnUse">
<stop stop-color="#58ABF7"/>
<stop offset="0.213542" stop-color="#4079DB"/>
<stop offset="0.463542" stop-color="#826CDE"/>
<stop offset="0.713542" stop-color="#BB77C2"/>
<stop offset="1" stop-color="#FBDBAA"/>
</linearGradient>
<linearGradient id="paint57_linear_85_524" x1="7.30176" y1="72.2009" x2="7.21322" y2="71.9731" gradientUnits="userSpaceOnUse">
<stop stop-color="#58ABF7"/>
<stop offset="0.213542" stop-color="#4079DB"/>
<stop offset="0.463542" stop-color="#826CDE"/>
<stop offset="0.713542" stop-color="#BB77C2"/>
<stop offset="1" stop-color="#FBDBAA"/>
</linearGradient>
<linearGradient id="paint58_linear_85_524" x1="73.5127" y1="67.3837" x2="73.4842" y2="67.2897" gradientUnits="userSpaceOnUse">
<stop stop-color="#58ABF7"/>
<stop offset="0.213542" stop-color="#4079DB"/>
<stop offset="0.463542" stop-color="#826CDE"/>
<stop offset="0.713542" stop-color="#BB77C2"/>
<stop offset="1" stop-color="#FBDBAA"/>
</linearGradient>
<linearGradient id="paint59_linear_85_524" x1="20.2832" y1="67.0777" x2="20.0622" y2="66.5212" gradientUnits="userSpaceOnUse">
<stop stop-color="#58ABF7"/>
<stop offset="0.213542" stop-color="#4079DB"/>
<stop offset="0.463542" stop-color="#826CDE"/>
<stop offset="0.713542" stop-color="#BB77C2"/>
<stop offset="1" stop-color="#FBDBAA"/>
</linearGradient>
<linearGradient id="paint60_linear_85_524" x1="23.4033" y1="80.9582" x2="23.266" y2="80.3507" gradientUnits="userSpaceOnUse">
<stop stop-color="#58ABF7"/>
<stop offset="0.213542" stop-color="#4079DB"/>
<stop offset="0.463542" stop-color="#826CDE"/>
<stop offset="0.713542" stop-color="#BB77C2"/>
<stop offset="1" stop-color="#FBDBAA"/>
</linearGradient>
<linearGradient id="paint61_linear_85_524" x1="35.0576" y1="82.6491" x2="35.0232" y2="82.3765" gradientUnits="userSpaceOnUse">
<stop stop-color="#58ABF7"/>
<stop offset="0.213542" stop-color="#4079DB"/>
<stop offset="0.463542" stop-color="#826CDE"/>
<stop offset="0.713542" stop-color="#BB77C2"/>
<stop offset="1" stop-color="#FBDBAA"/>
</linearGradient>
<linearGradient id="paint62_linear_85_524" x1="26.417" y1="81.3277" x2="26.285" y2="80.6159" gradientUnits="userSpaceOnUse">
<stop stop-color="#58ABF7"/>
<stop offset="0.213542" stop-color="#4079DB"/>
<stop offset="0.463542" stop-color="#826CDE"/>
<stop offset="0.713542" stop-color="#BB77C2"/>
<stop offset="1" stop-color="#FBDBAA"/>
</linearGradient>
<linearGradient id="paint63_linear_85_524" x1="27.4453" y1="81.5535" x2="27.3788" y2="81.2089" gradientUnits="userSpaceOnUse">
<stop stop-color="#58ABF7"/>
<stop offset="0.213542" stop-color="#4079DB"/>
<stop offset="0.463542" stop-color="#826CDE"/>
<stop offset="0.713542" stop-color="#BB77C2"/>
<stop offset="1" stop-color="#FBDBAA"/>
</linearGradient>
<linearGradient id="paint64_linear_85_524" x1="16.1592" y1="78.7394" x2="15.8276" y2="77.8186" gradientUnits="userSpaceOnUse">
<stop stop-color="#58ABF7"/>
<stop offset="0.213542" stop-color="#4079DB"/>
<stop offset="0.463542" stop-color="#826CDE"/>
<stop offset="0.713542" stop-color="#BB77C2"/>
<stop offset="1" stop-color="#FBDBAA"/>
</linearGradient>
<linearGradient id="paint65_linear_85_524" x1="25.4141" y1="80.8635" x2="25.3452" y2="80.5181" gradientUnits="userSpaceOnUse">
<stop stop-color="#58ABF7"/>
<stop offset="0.213542" stop-color="#4079DB"/>
<stop offset="0.463542" stop-color="#826CDE"/>
<stop offset="0.713542" stop-color="#BB77C2"/>
<stop offset="1" stop-color="#FBDBAA"/>
</linearGradient>
<linearGradient id="paint66_linear_85_524" x1="20.2969" y1="79.5387" x2="20.0458" y2="78.5842" gradientUnits="userSpaceOnUse">
<stop stop-color="#58ABF7"/>
<stop offset="0.213542" stop-color="#4079DB"/>
<stop offset="0.463542" stop-color="#826CDE"/>
<stop offset="0.713542" stop-color="#BB77C2"/>
<stop offset="1" stop-color="#FBDBAA"/>
</linearGradient>
<linearGradient id="paint67_linear_85_524" x1="21.4043" y1="79.8824" x2="21.2577" y2="79.2978" gradientUnits="userSpaceOnUse">
<stop stop-color="#58ABF7"/>
<stop offset="0.213542" stop-color="#4079DB"/>
<stop offset="0.463542" stop-color="#826CDE"/>
<stop offset="0.713542" stop-color="#BB77C2"/>
<stop offset="1" stop-color="#FBDBAA"/>
</linearGradient>
<linearGradient id="paint68_linear_85_524" x1="23.5176" y1="80.3336" x2="23.3944" y2="79.7257" gradientUnits="userSpaceOnUse">
<stop stop-color="#58ABF7"/>
<stop offset="0.213542" stop-color="#4079DB"/>
<stop offset="0.463542" stop-color="#826CDE"/>
<stop offset="0.713542" stop-color="#BB77C2"/>
<stop offset="1" stop-color="#FBDBAA"/>
</linearGradient>
<linearGradient id="paint69_linear_85_524" x1="4.45703" y1="72.7997" x2="3.82292" y2="71.4781" gradientUnits="userSpaceOnUse">
<stop stop-color="#58ABF7"/>
<stop offset="0.213542" stop-color="#4079DB"/>
<stop offset="0.463542" stop-color="#826CDE"/>
<stop offset="0.713542" stop-color="#BB77C2"/>
<stop offset="1" stop-color="#FBDBAA"/>
</linearGradient>
<linearGradient id="paint70_linear_85_524" x1="8.78516" y1="74.6521" x2="8.53722" y2="74.0955" gradientUnits="userSpaceOnUse">
<stop stop-color="#58ABF7"/>
<stop offset="0.213542" stop-color="#4079DB"/>
<stop offset="0.463542" stop-color="#826CDE"/>
<stop offset="0.713542" stop-color="#BB77C2"/>
<stop offset="1" stop-color="#FBDBAA"/>
</linearGradient>
<linearGradient id="paint71_linear_85_524" x1="5.30664" y1="72.7699" x2="4.77072" y2="71.7177" gradientUnits="userSpaceOnUse">
<stop stop-color="#58ABF7"/>
<stop offset="0.213542" stop-color="#4079DB"/>
<stop offset="0.463542" stop-color="#826CDE"/>
<stop offset="0.713542" stop-color="#BB77C2"/>
<stop offset="1" stop-color="#FBDBAA"/>
</linearGradient>
<linearGradient id="paint72_linear_85_524" x1="21.6182" y1="65.7969" x2="21.3233" y2="65.3354" gradientUnits="userSpaceOnUse">
<stop stop-color="#58ABF7"/>
<stop offset="0.213542" stop-color="#4079DB"/>
<stop offset="0.463542" stop-color="#826CDE"/>
<stop offset="0.713542" stop-color="#BB77C2"/>
<stop offset="1" stop-color="#FBDBAA"/>
</linearGradient>
<linearGradient id="paint73_linear_85_524" x1="40.7793" y1="58.0414" x2="39.8616" y2="56.2056" gradientUnits="userSpaceOnUse">
<stop stop-color="#58ABF7"/>
<stop offset="0.213542" stop-color="#4079DB"/>
<stop offset="0.463542" stop-color="#826CDE"/>
<stop offset="0.713542" stop-color="#BB77C2"/>
<stop offset="1" stop-color="#FBDBAA"/>
</linearGradient>
<linearGradient id="paint74_linear_85_524" x1="39.4922" y1="57.6231" x2="39.3454" y2="57.2338" gradientUnits="userSpaceOnUse">
<stop stop-color="#58ABF7"/>
<stop offset="0.213542" stop-color="#4079DB"/>
<stop offset="0.463542" stop-color="#826CDE"/>
<stop offset="0.713542" stop-color="#BB77C2"/>
<stop offset="1" stop-color="#FBDBAA"/>
</linearGradient>
<linearGradient id="paint75_linear_85_524" x1="173.156" y1="1.99376" x2="172.291" y2="1.4781" gradientUnits="userSpaceOnUse">
<stop stop-color="#58ABF7"/>
<stop offset="0.213542" stop-color="#4079DB"/>
<stop offset="0.463542" stop-color="#826CDE"/>
<stop offset="0.713542" stop-color="#BB77C2"/>
<stop offset="1" stop-color="#FBDBAA"/>
</linearGradient>
<linearGradient id="paint76_linear_85_524" x1="175.333" y1="0.820213" x2="174.656" y2="-0.222049" gradientUnits="userSpaceOnUse">
<stop stop-color="#58ABF7"/>
<stop offset="0.213542" stop-color="#4079DB"/>
<stop offset="0.463542" stop-color="#826CDE"/>
<stop offset="0.713542" stop-color="#BB77C2"/>
<stop offset="1" stop-color="#FBDBAA"/>
</linearGradient>
<linearGradient id="paint77_linear_85_524" x1="34.8906" y1="73.2261" x2="34.7668" y2="72.7084" gradientUnits="userSpaceOnUse">
<stop stop-color="#58ABF7"/>
<stop offset="0.213542" stop-color="#4079DB"/>
<stop offset="0.463542" stop-color="#826CDE"/>
<stop offset="0.713542" stop-color="#BB77C2"/>
<stop offset="1" stop-color="#FBDBAA"/>
</linearGradient>
<linearGradient id="paint78_linear_85_524" x1="50.4043" y1="71.4374" x2="49.958" y2="70.9265" gradientUnits="userSpaceOnUse">
<stop stop-color="#58ABF7"/>
<stop offset="0.213542" stop-color="#4079DB"/>
<stop offset="0.463542" stop-color="#826CDE"/>
<stop offset="0.713542" stop-color="#BB77C2"/>
<stop offset="1" stop-color="#FBDBAA"/>
</linearGradient>
<linearGradient id="paint79_linear_85_524" x1="63.875" y1="70.144" x2="63.7055" y2="69.3425" gradientUnits="userSpaceOnUse">
<stop stop-color="#58ABF7"/>
<stop offset="0.213542" stop-color="#4079DB"/>
<stop offset="0.463542" stop-color="#826CDE"/>
<stop offset="0.713542" stop-color="#BB77C2"/>
<stop offset="1" stop-color="#FBDBAA"/>
</linearGradient>
</defs>
</svg>
