<svg width="176" height="84" viewBox="0 0 176 84" fill="none" xmlns="http://www.w3.org/2000/svg">
<path d="M172.115 72.0715L172.481 71.8633C171.689 72.2986 172.115 72.0589 172.115 72.0715Z" fill="url(#paint0_linear_85_440)"/>
<path d="M164.247 76.0023L164.386 75.936L163.203 76.4597L164.247 76.0023Z" fill="url(#paint1_linear_85_440)"/>
<path d="M156.576 78.9108C157.327 78.7121 159.393 77.9644 160.759 77.4408L160.986 77.3587L161.592 77.0938C159.942 77.7562 157.769 78.5512 156.576 78.9108Z" fill="url(#paint2_linear_85_440)"/>
<path d="M152.345 80.0276C152.61 79.9803 151.437 80.2863 153.333 79.7753L153.153 79.8163L152.345 80.0276Z" fill="url(#paint3_linear_85_440)"/>
<path d="M153.153 79.8131C153.986 79.5923 152.601 79.9393 153.153 79.8131V79.8131Z" fill="url(#paint4_linear_85_440)"/>
<path d="M149.285 80.7815C149.654 80.6964 150.02 80.5986 150.389 80.5071C150.156 80.5512 149.168 80.7721 149.531 80.6774C148.395 80.933 148.632 80.8983 149.285 80.7815Z" fill="url(#paint5_linear_85_440)"/>
<path d="M148.241 81.0528L148.815 80.9203C148.622 80.9532 148.43 80.9974 148.241 81.0528Z" fill="url(#paint6_linear_85_440)"/>
<path d="M150.033 80.6301C149.629 80.7374 149.222 80.8226 148.815 80.9204C149.007 80.9013 149.196 80.8579 149.377 80.791C149.601 80.7626 149.821 80.7086 150.033 80.6301Z" fill="url(#paint7_linear_85_440)"/>
<path d="M150.72 80.4724C151.351 80.3367 152.149 80.1569 151.035 80.4377C151.516 80.335 151.99 80.2044 152.455 80.0465C152.379 80.056 151.78 80.2232 150.72 80.4724Z" fill="url(#paint8_linear_85_440)"/>
<path d="M156.187 79.0812C156.462 79.0023 156.733 78.9171 157.004 78.8288L157.701 78.5796C157.354 78.7058 156.137 79.0906 156.187 79.0812Z" fill="url(#paint9_linear_85_440)"/>
<path d="M142.316 81.996C142.474 82.0067 142.632 82.0067 142.79 81.996L143.613 81.8478C143.187 81.9077 142.376 82.0213 142.316 81.996Z" fill="url(#paint10_linear_85_440)"/>
<path d="M142.777 81.9993L141.537 82.2012C142.66 82.0497 142.862 82.0214 142.777 81.9993Z" fill="url(#paint11_linear_85_440)"/>
<path d="M148.061 81.1663C148.727 80.9991 149.399 80.8508 150.064 80.671C149.269 80.8761 148.468 81.059 147.67 81.2515L148.061 81.1663Z" fill="url(#paint12_linear_85_440)"/>
<path d="M137.556 82.5229L138.259 82.4188L137.007 82.5892L137.556 82.5229Z" fill="url(#paint13_linear_85_440)"/>
<path d="M134.398 82.7154C134.654 82.687 134.477 82.6744 134.304 82.6618H134.209C134.262 82.6608 134.315 82.6704 134.364 82.6902C134.424 82.7144 134.478 82.7515 134.522 82.7989C134.566 82.8464 134.599 82.9029 134.619 82.9646C134.651 83.0656 134.619 83.1129 134.654 83.1602C134.689 83.2075 134.654 83.2422 134.654 83.2391C134.66 83.2046 134.66 83.1695 134.654 83.135V83.1129C134.417 83.1413 135.181 83.0467 134.124 83.176H134.152L134.275 83.1602L134.531 83.1161L134.654 83.0877V83.0309C134.646 82.9579 134.619 82.8883 134.575 82.829C134.516 82.7444 134.431 82.6822 134.332 82.6523C134.292 82.6471 134.252 82.6471 134.212 82.6523H134.238H134.291C134.394 82.6724 134.487 82.7272 134.555 82.8075C134.623 82.8879 134.661 82.9889 134.663 83.094C134.685 83.1895 134.685 83.2887 134.663 83.3842C134.646 83.4521 134.614 83.5155 134.57 83.5699C134.526 83.6244 134.471 83.6686 134.408 83.6997C134.36 83.7252 134.307 83.7392 134.253 83.7407H134.335L134.651 83.7249L135.241 83.6839C135.619 83.6524 135.973 83.6145 136.307 83.5766C135.951 83.6082 135.585 83.6334 135.181 83.6492C134.979 83.6492 134.771 83.6492 134.55 83.6492H134.26C134.333 83.6421 134.403 83.6148 134.462 83.5703C134.509 83.5322 134.546 83.4841 134.573 83.4296C134.599 83.375 134.613 83.3154 134.613 83.2549C134.616 83.2329 134.616 83.2106 134.613 83.1886V83.1602L134.197 83.2107L134.348 83.1886L134.496 83.1634L134.572 83.1476C134.6 83.1476 134.622 83.1476 134.613 83.1476V83.1066C134.616 83.0857 134.616 83.0644 134.613 83.0435C134.598 82.9933 134.574 82.9465 134.541 82.9059C134.508 82.8652 134.467 82.8316 134.421 82.8069C134.384 82.7879 134.345 82.7761 134.304 82.7722H134.446L134.398 82.7154Z" fill="url(#paint14_linear_85_440)"/>
<path d="M137.414 83.4094L136.294 83.5388C136.679 83.5072 137.048 83.4599 137.414 83.4094Z" fill="url(#paint15_linear_85_440)"/>
<path d="M139.423 82.4472C139.093 82.4434 138.763 82.4592 138.436 82.4945H138.931L139.423 82.4472Z" fill="url(#paint16_linear_85_440)"/>
<path d="M138.95 82.4977H138.931C138.401 82.5545 138.029 82.5797 137.871 82.5955C138.007 82.5829 138.332 82.5608 138.95 82.4977Z" fill="url(#paint17_linear_85_440)"/>
<path d="M139.547 82.4346H139.424C139.465 82.4408 139.506 82.4408 139.547 82.4346Z" fill="url(#paint18_linear_85_440)"/>
<path d="M144.815 81.7501C144.093 81.9047 142.575 82.1634 144.055 81.9709C144.572 81.8511 143.723 81.9773 144.815 81.7501Z" fill="url(#paint19_linear_85_440)"/>
<path d="M140.165 82.4283C140.607 82.3746 141.052 82.3336 141.49 82.2737C141.462 82.2737 141.222 82.2737 141.582 82.2137C141.111 82.2958 140.638 82.3557 140.165 82.4283Z" fill="url(#paint20_linear_85_440)"/>
<path d="M139.519 82.5197C139.733 82.4913 139.951 82.4629 140.165 82.4282L139.673 82.4818L139.519 82.5197Z" fill="url(#paint21_linear_85_440)"/>
<path d="M135.115 83.4977L137.042 83.34C136.276 83.3904 135.465 83.4315 134.727 83.463C134.62 83.4882 134.288 83.5356 135.115 83.4977Z" fill="url(#paint22_linear_85_440)"/>
<path d="M135.963 82.7374H135.837C135.916 82.75 135.979 82.7469 135.963 82.7374Z" fill="url(#paint23_linear_85_440)"/>
<path d="M134.593 83.4566H134.388H134.259C134.221 83.4566 134.287 83.4567 134.341 83.4251C134.386 83.3938 134.42 83.3486 134.438 83.2963C134.456 83.2439 134.456 83.1873 134.439 83.1349L134.148 83.1696H134.221L134.369 83.1475H134.439V83.1002C134.437 83.0692 134.428 83.039 134.414 83.0114C134.4 82.9837 134.38 82.9592 134.357 82.9393C134.323 82.9084 134.279 82.8905 134.234 82.8888H134.379C134.574 82.8888 134.742 82.8636 134.906 82.851L134.246 82.8793C134.267 82.8757 134.288 82.8757 134.309 82.8793C134.341 82.8914 134.37 82.91 134.394 82.9339C134.418 82.9578 134.436 82.9865 134.448 83.0181C134.46 83.0462 134.466 83.0761 134.467 83.1065V83.1349H134.432L134.284 83.1601H134.208H134.171L134.464 83.1222V83.138V83.157C134.473 83.1947 134.474 83.2342 134.467 83.2724C134.459 83.3106 134.443 83.3466 134.42 83.3778C134.401 83.4044 134.377 83.4268 134.35 83.4436C134.322 83.4605 134.291 83.4713 134.259 83.4756H134.376L134.742 83.4598C134.773 83.4535 134.779 83.4472 134.593 83.4566Z" fill="url(#paint24_linear_85_440)"/>
<path d="M139.379 83.1948L138.379 83.2579C138.713 83.2543 139.047 83.2332 139.379 83.1948Z" fill="url(#paint25_linear_85_440)"/>
<path d="M135.644 82.7468H135.729C135.54 82.7374 135.565 82.7405 135.644 82.7468Z" fill="url(#paint26_linear_85_440)"/>
<path d="M135.645 82.7469C135.351 82.769 135.121 82.7974 134.891 82.8195C135.238 82.7974 135.559 82.7785 135.837 82.7501L135.645 82.7469Z" fill="url(#paint27_linear_85_440)"/>
<path d="M146.068 81.6491C145.137 81.9426 144.176 82.132 143.203 82.2137C141.941 82.463 142.802 82.5544 143.938 82.5071C143.973 82.4661 143.97 82.4567 145.269 82.1917C144.806 82.2484 142.351 82.5797 143.446 82.3431C144.196 82.1955 144.953 82.0901 145.714 82.0276C145.348 82.0465 145.894 81.9267 146.474 81.7658C147.055 81.6049 147.68 81.4503 147.478 81.4093L145.982 81.7595C145.951 81.7248 146.49 81.5828 146.068 81.6491Z" fill="url(#paint28_linear_85_440)"/>
<path d="M141.433 82.8637L140.894 82.9394C141.524 82.8794 141.957 82.8353 142.786 82.7816C143.172 82.7299 143.552 82.6433 143.922 82.5229C143.036 82.6618 142.146 82.7816 141.256 82.8984L141.433 82.8637Z" fill="url(#paint29_linear_85_440)"/>
<path d="M138.455 83.2107C138.872 83.1034 140.171 82.9299 139.364 82.9425C137.786 83.1192 138.257 83.1129 137.304 83.2296C139.878 82.9804 136.569 83.3369 138.433 83.2044C137.928 83.2612 137.487 83.3085 137.042 83.34L138.38 83.258H138.31C138.2 83.258 138.162 83.258 138.288 83.258H138.342C138.378 83.2429 138.416 83.2313 138.455 83.2233C139.203 83.1634 138.575 83.2233 138.342 83.258H138.31C139.171 83.1665 140.026 83.0593 140.884 82.9425L138.455 83.2107Z" fill="url(#paint30_linear_85_440)"/>
<path d="M142.711 82.2894C142.632 82.2894 142.635 82.2894 142.629 82.2894C142.462 82.3178 142.402 82.3367 142.711 82.2894Z" fill="url(#paint31_linear_85_440)"/>
<path d="M141.657 82.4125C141.84 82.3778 141.995 82.3368 142.603 82.2547C143.127 82.1916 142.603 82.28 142.635 82.2894C142.995 82.2232 143.897 82.0528 142.758 82.2137L142.578 82.2453C141.55 82.3841 140.218 82.4882 140.398 82.4566C140.818 82.4662 141.239 82.4514 141.657 82.4125Z" fill="url(#paint32_linear_85_440)"/>
<path d="M135.669 82.9268L134.6 82.993H134.332H134.234C134.215 82.993 134.215 82.993 134.234 82.993C134.254 83.0024 134.269 83.018 134.279 83.0375C134.289 83.0569 134.292 83.079 134.288 83.1003C134.286 83.1097 134.286 83.1192 134.288 83.1287C134.295 83.137 134.3 83.1466 134.303 83.1571C134.314 83.1855 134.314 83.217 134.303 83.2454C134.281 83.3022 134.215 83.2959 134.259 83.2959H134.325H134.461L134.729 83.2801H134.25C134.228 83.2801 134.278 83.2801 134.281 83.217C134.282 83.206 134.281 83.1949 134.277 83.1846C134.273 83.1742 134.267 83.1648 134.259 83.1571C134.243 83.1413 134.259 83.1287 134.259 83.1097C134.261 83.0969 134.258 83.084 134.252 83.0727C134.245 83.0615 134.236 83.0524 134.224 83.0466H134.628L134.571 83.0182C135.783 82.9867 135.521 82.9678 135.669 82.9268Z" fill="url(#paint33_linear_85_440)"/>
<path d="M144.305 82.5008L144.033 82.6238C144.44 82.5292 144.844 82.4156 145.245 82.3083L144.305 82.5008Z" fill="url(#paint34_linear_85_440)"/>
<path d="M147.064 81.9993L146.979 82.0908L147.698 81.9047L147.064 81.9993Z" fill="url(#paint35_linear_85_440)"/>
<path d="M126.846 71.1062H126.215C126.425 71.1197 126.636 71.1197 126.846 71.1062Z" fill="url(#paint36_linear_85_440)"/>
<path d="M131.419 71.6424L131.549 71.5162C131.328 71.5699 131.233 71.6109 131.419 71.6424Z" fill="url(#paint37_linear_85_440)"/>
<path d="M137.199 55.9007C136.511 55.2698 135.802 54.5127 135.789 54.7335L135.922 55.049C136.366 55.3037 136.793 55.5883 137.199 55.9007Z" fill="url(#paint38_linear_85_440)"/>
<path d="M169.021 71.2354L169.295 71.3017L169.904 71.0272L169.021 71.2354Z" fill="url(#paint39_linear_85_440)"/>
<path d="M168.418 72.3271C168.011 72.2955 167.601 72.2577 167.194 72.2167C167.6 72.2793 168.008 72.3161 168.418 72.3271Z" fill="url(#paint40_linear_85_440)"/>
<path d="M101.987 67.3838L101.183 67.592C102.325 67.8254 101.861 67.5384 101.987 67.3838Z" fill="url(#paint41_linear_85_440)"/>
<path d="M175.465 70.9169L175.5 70.898C174.484 70.6267 173.459 70.4185 172.575 70.2261L174.351 70.6898C174.582 70.7466 174.79 70.7939 174.982 70.8286C175.175 70.8633 175.358 70.8854 175.481 70.9043C175.474 70.9073 175.469 70.9116 175.465 70.9169Z" fill="url(#paint42_linear_85_440)"/>
<path d="M129.057 67.9799C128.672 67.9799 128.499 68.0272 128.502 68.0997C128.896 68.0966 129.13 68.0682 129.057 67.9799Z" fill="url(#paint43_linear_85_440)"/>
<path d="M169.667 69.5919L170.068 69.715L170.964 69.8885L172.576 70.226L171.705 70.0083L170.815 69.797C170.437 69.708 170.053 69.6395 169.667 69.5919Z" fill="url(#paint44_linear_85_440)"/>
<path d="M20.0608 28.105C20.0176 28.0473 19.9775 27.9872 19.9409 27.9252C19.8778 27.963 19.9472 28.0261 20.0608 28.105Z" fill="url(#paint45_linear_85_440)"/>
<path d="M5.09473 5.75415C5.28401 5.93081 5.55215 6.24943 5.81084 6.54913C5.61198 6.25079 5.37074 5.98299 5.09473 5.75415Z" fill="url(#paint46_linear_85_440)"/>
<path d="M158.007 79.1821C157.443 79.3746 157.922 79.22 158.007 79.1821V79.1821Z" fill="url(#paint47_linear_85_440)"/>
<path d="M155.134 79.6932C155.213 79.6728 155.286 79.6351 155.348 79.5828C155.283 79.6312 155.211 79.6685 155.134 79.6932Z" fill="url(#paint48_linear_85_440)"/>
<path d="M163.771 68.9358L163.721 68.92C163.885 68.9958 163.856 68.9831 163.771 68.9358Z" fill="url(#paint49_linear_85_440)"/>
<path d="M157.144 79.4125C157.358 79.3526 157.607 79.2832 157.875 79.2012C157.756 79.2327 157.532 79.2958 157.144 79.4125Z" fill="url(#paint50_linear_85_440)"/>
<path d="M157.288 79.4187L156.787 79.5701C156.705 79.6048 156.774 79.6017 157.288 79.4187Z" fill="url(#paint51_linear_85_440)"/>
<path d="M158.794 78.8982C158.479 79.0181 158.163 79.1064 157.876 79.2137C157.99 79.1821 158.037 79.1726 158.008 79.1853C158.173 79.1127 158.409 79.0402 158.794 78.8982Z" fill="url(#paint52_linear_85_440)"/>
<path d="M62.049 53.2917C62.0175 53.2633 61.9796 53.2349 61.9481 53.2034C61.3203 53.1214 61.5758 53.2034 62.049 53.2917Z" fill="url(#paint53_linear_85_440)"/>
<path d="M142.625 59.1058L142.559 59.0837L142.634 59.1311L142.625 59.1058Z" fill="url(#paint54_linear_85_440)"/>
<path d="M144.566 59.9386C143.869 59.8137 143.21 59.5334 142.636 59.1184L142.951 59.9796C143.497 59.9859 144.04 59.9733 144.566 59.9386Z" fill="url(#paint55_linear_85_440)"/>
<path d="M115.921 69.6235L117.35 70.1629C115.48 70.3617 114.215 69.9863 115.533 70.6298C115.906 69.6392 121.344 71.4153 121.713 70.4184L122.66 70.7655C122.379 70.7181 122.325 70.7655 122.048 70.7244C123.893 71.4626 123.575 70.1976 126.016 70.6614C126.865 70.8443 127.445 71.0588 126.843 71.1062H128.789C129.344 71.1945 129.19 71.3491 128.635 71.2639C129.613 71.3585 130.594 71.4216 131.572 71.5005L131.546 71.5289C131.982 71.4153 132.95 71.2891 133.439 71.2292C134.168 71.4342 133.054 71.2954 133.231 71.4342L134.875 71.3491C135.506 71.6645 134.146 71.7781 133.026 71.6425C133.238 71.8458 133.497 71.9939 133.78 72.0736C134.062 72.1534 134.36 72.1624 134.647 72.0999C135.215 72.0305 136.001 71.9611 137.616 72.3554C137.102 72.3554 136.584 72.3554 136.07 72.3554C137.017 72.9863 138.231 72.8633 139.947 73.3207C139.544 73.122 136.534 72.2324 138.32 72.1251C139.012 72.2726 139.726 72.2961 140.427 72.1945C140.427 72.5289 141.348 72.51 142.512 72.551L142.405 72.9832C143.667 72.9264 143.588 72.7056 144.339 72.5447C145.739 72.6488 146.014 72.9958 146.329 73.2892C148.578 73.4501 144.802 72.693 147.468 72.7214C149.332 72.9422 150.654 72.816 152.894 72.6015C154.197 72.7687 152.657 72.8507 153.124 72.9769L154.292 72.6614C154.576 72.6614 154.481 72.7718 154.434 72.8223C155.411 72.6993 154.522 72.4122 156.055 72.3112C156.468 71.8791 159.21 72.9674 161.103 72.4248C161.569 72.5289 160.879 72.6709 161.024 72.8223C162.492 72.6622 163.947 72.4029 165.38 72.0462L167.207 72.2292C165.86 71.9895 167.557 71.5983 169.033 71.2481C168.557 71.1314 168.147 71.0273 167.876 70.9831L170.242 70.6677L170.15 71.5541C170.002 71.4753 170.04 71.4248 170.194 71.3869L170.248 70.8412C170.14 70.9143 170.025 70.9757 169.904 71.0241C170.033 70.9957 170.16 70.9642 170.254 70.9358L170.223 71.2954H170.141C169.402 70.98 169.775 70.8633 170.349 70.8096L172.242 70.633L170.273 71.45L170.156 71.4973C169.863 71.4374 169.573 71.3711 169.289 71.3049C168.712 71.5604 168.169 71.8412 168.301 72.0589C168.556 71.9881 168.817 71.9406 169.081 71.9169C168.929 71.9863 168.831 72.0462 168.904 72.081C168.977 72.1157 169.219 72.021 169.62 71.9074L170.182 72.2986L170.305 72.1251C170.708 68.1849 170.415 71.0336 170.507 70.1535H170.484H170.459H170.415L170.324 70.1219L170.141 70.0588L169.775 69.9295L169.046 69.6739L167.592 69.144C165.358 68.9452 163.323 68.9673 159.935 67.9389C160.856 67.9641 160.267 67.5603 160.427 67.2543C161.213 67.9136 163.052 67.9893 164.765 68.5856C163.869 68.2701 164.134 68.1723 164.368 68.1912C163.304 67.9767 162.241 67.7527 161.181 67.5035C161.342 67.2638 160.598 67.0871 159.841 66.6959C160.254 67.431 157.437 66.2227 156.15 65.882C156.15 65.6864 156.5 65.636 157.992 66.2448C156.478 65.2416 155.61 66.0145 154.121 65.0303C154.487 65.1754 154.673 65.2826 154.853 65.2574C153.935 65.0618 151.916 64.0586 152.465 64.128L152.828 64.2795C151.635 63.7432 149.821 62.9324 148.254 62.2447C146.686 61.557 145.351 61.0144 145.08 61.1153C145.29 60.9552 145.536 60.8471 145.796 60.7999C144.193 60.5223 142.597 60.1973 141.007 59.8251C141.537 59.7178 140.556 58.2477 142.553 59.1027C141.801 58.6032 141.008 58.1704 140.181 57.8092C140.525 58.0616 140.856 58.7556 140.335 58.5064C139.14 57.3834 139.471 57.784 137.941 56.5127C138.452 56.9007 137.572 56.9953 136.717 56.4527C136.89 56.4685 136.916 55.9701 137.26 56.112C136.455 55.8281 135.654 55.5347 134.859 55.2256C135.436 55.4874 135.174 54.9101 134.789 54.5032C134.871 54.6167 134.417 54.3233 133.878 53.9574L133.468 53.6766L133.442 53.6577L133.398 53.6293L133.319 53.582C133.251 53.5489 133.179 53.5224 133.105 53.5031C132.913 53.4542 132.71 53.4652 132.524 53.5347C132.377 53.5901 132.245 53.6799 132.14 53.7965C132.064 53.8783 132.016 53.9822 132.004 54.093C131.965 54.2505 131.965 54.4151 132.004 54.5726C132.049 54.7291 132.13 54.8729 132.24 54.9921C132.282 55.0357 132.328 55.0758 132.376 55.112L132.414 55.1372L132.619 55.2824C132.887 55.4685 133.124 55.6231 133.272 55.7051L132.856 55.3581L132.647 55.1814L132.543 55.0899L132.49 55.0458L132.395 54.9669C132.29 54.8763 132.209 54.7615 132.158 54.6325C132.212 54.7544 132.293 54.8623 132.395 54.948L132.493 55.0268L132.546 55.0647L132.654 55.1404L132.856 55.2792C132.988 55.3675 133.114 55.4496 133.234 55.519C133.477 55.6609 133.692 55.7808 133.897 55.8754C134.252 56.0409 134.618 56.1832 134.991 56.3013C135.899 56.5805 136.764 56.9828 137.562 57.4969C137.222 57.3991 136.518 57.579 137.73 58.3676C139.574 58.647 141.375 59.1568 143.093 59.885L143.449 60.232L145.203 60.9891C143.083 60.5018 140.995 59.8855 138.95 59.1437C139.831 59.7746 139.124 59.4402 140.528 60.2036C140.966 60.5853 139.663 59.9544 139.25 59.721C140.323 60.3519 141.411 60.9828 142.506 61.5791C142.481 61.2636 145.181 62.6453 145.156 62.3772C143.894 61.8598 142.66 61.3141 141.417 60.7589C141.417 60.4434 143.84 61.21 146.181 62.4087C146.739 62.7968 145.528 62.6012 145.55 62.7053C146.416 63.0087 147.259 63.3724 148.074 63.7936L146.998 63.4403C148.295 64.1533 149.32 64.147 150.85 65.0618C151.127 65.188 151.519 65.4404 151.859 65.6454C152.2 65.8505 152.49 66.0051 152.569 65.9609C151.746 65.33 151.916 64.4498 152.601 64.5161L154.162 65.3268C154.929 65.7117 155.74 66.1344 156.055 66.3111C156.923 66.8568 154.478 66.2606 155.203 66.7275C155.485 66.7316 155.766 66.7741 156.036 66.8537C156.62 67.1218 155.721 66.9483 157.036 67.3931C157.352 67.248 159.708 68.3395 157.727 67.4215C159.033 67.8032 159.08 67.9326 160.604 68.4089C160.166 68.1187 162.121 68.3679 163.443 68.6865C163.352 68.7181 163.623 68.8695 163.759 68.9421C166.428 69.7086 167.86 70.1598 170.384 70.7087C170.699 70.8254 171.563 71.0651 171.096 71.0588C171.528 71.075 171.959 71.1224 172.384 71.2008C172.598 71.2828 172.589 71.3049 172.5 71.3018C172.349 71.2895 172.198 71.2695 172.049 71.2418C171.866 71.2134 171.677 71.1819 171.567 71.1787C171.456 71.1756 171.44 71.204 171.538 71.2765C171.68 71.2545 171.825 71.2545 171.967 71.2765L172.336 71.3112L172.551 71.3364H172.667H172.721L172.677 71.3648C172.393 71.5699 172.002 71.8317 171.683 72.0494C172.192 71.864 172.672 71.6081 173.109 71.2891L173.153 71.2607C173.153 71.2607 173.119 71.2607 173.1 71.2607L172.973 71.245L172.718 71.2071L172.223 71.144L171.412 71.0431C171.648 70.9497 171.905 70.9203 172.156 70.9579C172.377 70.9579 172.645 70.98 172.973 71.0084L173.503 71.0588L173.797 71.0904L173.955 71.1093H173.992H174.015V71.1409C173.772 71.3301 173.412 71.5857 172.973 71.8696L172.248 72.3365L171.44 72.8255L171.04 73.0589L170.775 73.2072C170.62 73.2892 170.503 73.3491 170.415 73.3901C170.238 73.4722 170.175 73.4848 170.16 73.469C170.144 73.4532 170.298 73.3018 170.141 73.4028C168.342 74.3492 167.617 74.7908 166.939 75.2041C166.043 75.7585 165.091 76.2163 164.099 76.57C162.816 76.9675 163.939 76.3492 163.629 76.3776C165.207 75.6268 166.125 75.3587 167.191 74.8318C166.743 75.0274 166.295 75.2167 165.841 75.4028C166.33 75.1284 167.368 74.5858 167.954 74.3334C167.428 74.529 165.898 75.2798 164.103 76.0685C162.308 76.8571 160.257 77.6647 158.771 78.1411C158.27 78.3745 157.374 78.7152 157.825 78.6174C158.14 78.507 158.456 78.3934 158.752 78.2736C159.194 78.1663 158.771 78.3587 158.383 78.5259C157.995 78.6931 157.639 78.8414 158.238 78.6521C156.803 79.2621 155.328 79.7702 153.822 80.1727L153.449 80.1411C154.023 80.0411 154.587 79.8901 155.134 79.69C154.768 79.8257 154.071 80.0055 153.364 80.1569C152.746 80.2774 152.14 80.4538 151.553 80.6837L152.84 80.4282L151.837 80.7437C151.484 80.8572 151.118 80.9645 150.739 81.0591C149.958 81.2911 149.165 81.4838 148.364 81.6364C149.127 81.5891 148.733 81.5418 149.919 81.4282C149.402 81.4598 150.437 81.2169 151.392 80.9866C152.348 80.7563 153.222 80.5071 152.405 80.6301C153.623 80.4881 154.449 80.16 156.011 79.8414C155.948 79.813 155.446 79.9266 156.787 79.526C156.844 79.4944 156.982 79.4345 157.068 79.3966L157.159 79.3682L157.083 79.3872C157.137 79.3619 157.143 79.3588 157.055 79.3872C156.825 79.4509 156.591 79.5004 156.355 79.5354C156.986 79.2452 159.084 78.5228 159.768 78.2105C160.55 77.9486 159.453 78.3808 159.904 78.2736L160.92 77.7972C161.065 77.8666 163.033 77.1663 161.235 77.9329C161.784 77.7278 162.327 77.507 162.872 77.3019C163.927 76.9426 164.957 76.5137 165.954 76.018C166.721 75.7025 167.794 75.0116 167.182 75.406C168.002 74.9853 168.815 74.5563 169.62 74.1189L169.658 74.1346C170.005 73.9611 170.352 73.775 170.699 73.5826L171.245 73.2671L172.027 72.816L175.346 70.8664C175.243 70.8315 175.138 70.8072 175.03 70.7938L174.677 70.7244L173.98 70.5888C173.519 70.4973 173.033 70.3932 172.56 70.2891C172.087 70.185 171.595 70.0714 171.093 69.9452L170.904 69.8979L170.778 69.8632L170.541 69.797C170.387 69.7528 170.226 69.7055 170.074 69.655C168.976 69.4603 167.89 69.2065 166.819 68.8947L166.563 68.7023C165.431 68.4499 163.257 67.636 162.746 67.6045C162.2 67.2638 160.872 66.8127 159.453 66.3426C158.033 65.8726 156.522 65.352 155.591 64.9451L155.456 65.0839L151.279 63.4593L151.31 63.6548C149.881 63.1722 147.84 61.9513 145.736 60.8693C146.114 60.9963 146.472 61.1758 146.799 61.4024C145.573 60.611 144.286 59.917 142.951 59.3266C141.671 58.7901 140.45 58.123 139.307 57.336C138.835 57.1193 138.39 56.8472 137.982 56.5253C138.028 56.5535 138.075 56.5788 138.124 56.601L137.9 56.459L137.203 55.9007C137.387 56.0717 137.579 56.2328 137.78 56.3833C137.36 56.1278 136.717 55.7524 136.073 55.3896L135.925 55.0458L135.78 54.9574C135.222 54.4968 135.244 54.7208 135.465 55.0647C135.149 54.8912 134.834 54.7492 134.588 54.6325C134.442 54.317 134.029 54.0836 133.603 53.8154L133.446 53.7145L133.423 53.6987L133.442 53.7145L133.48 53.7429C133.621 53.8731 133.708 54.0519 133.722 54.2432C133.737 54.4345 133.679 54.6243 133.559 54.7745C133.512 54.8698 133.445 54.954 133.363 55.0214C133.281 55.0889 133.185 55.138 133.083 55.1656C132.983 55.1949 132.879 55.203 132.776 55.1894C132.674 55.1758 132.575 55.1408 132.487 55.0868H132.468H132.487L132.569 55.1404L132.723 55.2571C132.917 55.3973 133.084 55.5702 133.218 55.7682C133.86 56.0686 134.485 56.4045 135.089 56.7745C135.9 57.2193 136.72 57.6231 136.982 57.5569C136.982 57.6137 137.149 57.7493 136.805 57.5569C137.45 58.0343 138.144 58.4414 138.875 58.7714L139.036 59.1973C139.622 59.3929 140.21 59.5811 140.799 59.762C141.67 60.456 142.02 60.7715 140.957 60.4308C143.433 61.4087 142.894 61.3582 145.058 62.0901L144.872 62.2163C145.588 62.5759 146.847 62.923 147.213 63.2763C147.932 63.8441 149.926 64.8315 152.279 65.8757C154.632 66.9199 157.348 68.0114 159.456 68.9799C158.825 68.0714 161.383 69.9831 161.724 69.5572C161.929 69.7907 162.513 70.0809 161.759 69.9673C164.043 70.5983 165.062 71.3175 166.746 71.3648C166.964 71.5951 166.197 71.4437 166.402 71.6046C166.738 71.622 167.066 71.7034 167.371 71.8444C167.579 72.0021 167.002 71.8791 166.623 71.8444C168.954 72.5068 169.324 72.0683 169.607 71.6677C169.772 71.7434 169.923 71.8128 170.068 71.8727L170.219 70.3837C169.48 70.2753 168.726 70.3747 168.04 70.6708C167.614 70.532 166.907 70.3932 168.383 70.2828C167.967 70.2828 166.696 70.2828 165.519 70.2828C164.342 70.2828 163.263 70.3617 163.222 70.5573C162.763 70.5004 162.297 70.5121 161.841 70.5919C159.976 70.5919 159.812 70.5509 157.979 70.5762L158.487 70.6456C157.762 71.1251 156.96 70.756 155.481 70.7844L155.525 70.7339C153.834 70.5289 153.468 70.5604 153.105 70.5856C152.743 70.6109 152.389 70.633 150.727 70.3743L150.897 70.6897C150.563 71.3554 147.948 70.185 146.004 70.3238L146.695 70.5478C145.619 70.7276 143.787 69.4405 142.739 69.2575C142.515 69.1787 143.111 69.1881 143.436 69.166C140.695 68.5351 143.048 69.5667 140.976 69.5162C140.613 69.2512 141.509 68.9673 140.127 68.8033C139.79 68.6771 138.771 68.7749 137.603 68.8285C136.436 68.8821 135.114 68.8632 134.193 68.5383C134.591 68.7685 134.988 68.9925 134.017 69.0335C133.278 68.9988 132.307 68.696 131.348 68.4689C130.389 68.2417 129.455 68.0808 128.745 68.2859C128.565 68.2102 128.502 68.1502 128.499 68.1029C127.931 68.1029 127.016 68.0461 126.152 68.0146C125.288 67.983 124.477 67.9641 124.117 68.084C123.688 67.3868 121.937 67.289 120.313 67.1723C118.688 67.0556 117.19 66.9988 117.303 66.4152L113.868 65.8568L113.978 65.7527C111.811 65.2637 110.987 65.4088 110.164 65.5476C109.675 65.3678 110.066 65.3268 110.12 65.2732C106.965 64.3993 106.65 64.3899 103.877 64.4309L103.684 63.9735C103.3 64.0113 102.183 63.6201 100.779 63.1501C99.2581 62.6134 97.6862 62.2339 96.088 62.0176C96.129 61.9797 96.211 61.9166 96.4697 61.9198C95.5228 61.792 94.5908 61.5712 93.6873 61.2604C92.7409 60.945 91.8229 60.557 90.9553 60.2289C90.1886 59.915 89.3959 59.6691 88.5862 59.4938C87.8953 59.3519 87.3243 59.3708 86.8858 59.6579L84.5167 59.3424C87.4032 60.3551 83.8857 59.8787 85.0025 60.5002C84.4035 60.3533 83.8345 60.1036 83.321 59.762C82.9425 59.4875 82.8889 59.3014 83.6081 59.4844L83.8037 59.6263C84.564 59.0143 80.2926 58.1468 80.5544 57.6231C79.8446 57.3897 79.1348 57.1499 78.4376 56.8975L76.3682 56.0805L74.3208 55.2477C73.9832 55.1057 73.6457 54.97 73.3113 54.8218L72.3176 54.3643L68.3869 52.5662C67.1029 51.9353 65.8347 51.3232 64.5634 50.7428L64.8789 51.6513L63.1091 50.8153C62.7085 50.4557 62.7148 50.0267 63.9703 50.6261C63.7211 50.2885 63.1501 50.1371 62.6391 50.0582C62.3008 49.9795 61.9489 49.9795 61.6106 50.0582C59.2888 48.5945 62.923 49.7743 62.1785 49.3894L61.1406 48.9352L61.333 49.1244C60.3866 48.9825 60.1753 49.2285 58.6863 48.4588C57.7966 47.8626 58.396 47.8279 58.0364 47.6102C58.0616 47.5629 57.9449 47.4809 57.4749 47.2947L55.3423 46.0739L55.9417 47.0518C54.847 46.79 53.9132 45.9288 54.6104 47.0518C54.3581 46.6323 53.7397 46.1275 52.9385 45.6007C52.5378 45.3357 52.0899 45.0707 51.6261 44.7899C51.1624 44.5092 50.6797 44.2126 50.2128 43.9319C48.32 42.8056 46.4272 41.8119 46.0676 41.4081C44.5534 40.9602 43.2757 40.1463 41.7299 39.0863C42.0454 39.4428 41.9192 40.1715 40.5942 39.2314C41.8561 38.3733 38.4554 37.0925 37.9916 35.4742C38.2724 36.1051 37.3102 35.4742 36.4143 34.9221C35.5184 34.3701 34.6477 33.8811 35.102 34.818C34.0799 33.9347 35.3543 34.3291 34.7297 33.4521C33.2817 32.7296 31.9221 31.6003 30.5529 30.3416C29.8621 29.7106 29.1775 29.0545 28.4614 28.4046C28.106 28.0786 27.74 27.7631 27.3636 27.4582C26.9945 27.1427 26.6159 26.8273 26.2216 26.5118C26.0481 26.6254 26.3635 27.2847 25.5244 26.9661C25.2089 26.2626 24.8777 25.5717 24.578 24.8556C23.9313 24.4171 23.2814 25.2594 22.6663 23.7956C22.7073 24.0543 22.7672 24.4455 22.3287 24.149C19.7545 21.212 16.7576 18.6472 13.8868 15.8963C11.0161 13.1455 8.31885 10.1864 6.50492 6.57116C6.88979 7.64374 6.39135 7.14215 5.8456 6.53961C6.11374 7.00334 5.43233 6.88347 5.28091 7.15161L3.7509 4.10105C2.71617 4.18307 1.49531 1.3975 0.659324 1.62779L1.42275 2.35337C-0.179818 1.85493 1.03789 5.19257 0 5.79511C0.918008 6.0601 1.29341 7.09798 1.80447 8.20212C2.04501 8.77813 2.36344 9.31841 2.75087 9.80784C3.18312 10.3297 3.75392 10.719 4.39761 10.9309C4.60581 11.5177 3.78875 10.8205 3.79191 11.2274C4.61527 11.3789 5.20204 11.9152 6.05065 13.1392L5.8456 13.1013C7.04227 14.3127 8.17728 15.5836 9.24633 16.909L10.7921 18.827C11.3663 19.5084 12.0161 20.2561 12.8016 21.1268L12.9404 20.4959C13.3283 20.9248 13.6475 21.4111 13.8868 21.9375C14.6029 22.0227 14.0856 21.5432 13.5903 21.0258C13.095 20.5085 12.5934 19.9816 13.2938 20.0132C13.3348 20.4454 13.666 20.9596 14.1518 21.5337C14.6377 22.1079 15.2749 22.6852 15.8964 23.2751C16.5178 23.865 17.1298 24.4423 17.581 24.966C18.0321 25.4897 18.3128 25.9629 18.2718 26.3478C19.4264 27.3762 18.3507 25.5812 19.5053 26.6033L19.5936 27.1238L20.1772 27.0481C20.8965 27.7579 21.0101 28.4078 20.8555 28.6507C20.6061 28.447 20.3402 28.2644 20.0605 28.1049C20.7956 29.2721 23.0007 30.3794 23.2657 30.7611L22.2436 29.6538C23.9723 30.8747 25.7799 32.3605 27.638 33.7549C28.5844 34.4489 29.4961 35.1398 30.4425 35.7487C30.9115 36.0536 31.3784 36.3459 31.8432 36.6257C32.3132 36.8938 32.7896 37.143 33.2439 37.3702L33.1335 36.9948C33.9959 37.3937 34.7901 37.926 35.4868 38.5721C36.2242 39.2833 37.0552 39.8904 37.9569 40.3766L37.8213 40.3545C38.2068 40.4592 38.5818 40.5997 38.9412 40.774C39.3525 40.9631 39.7481 41.1847 40.1242 41.4365C39.2441 41.2157 41.2063 42.7457 40.0832 42.405C43.1905 43.7899 41.6984 42.976 44.0328 43.4113L44.2631 44.0139C45.0833 44.1148 45.2442 43.9697 46.7553 44.7332C45.383 44.3262 47.3862 45.7742 45.8247 45.3641C46.8704 46.3138 48.1028 47.0348 49.4431 47.4809C49.6955 47.5787 49.9352 47.6765 50.1592 47.7743C50.378 47.8615 50.5891 47.967 50.7901 48.0897C51.188 48.3172 51.5071 48.6606 51.705 49.074C53.6483 48.9162 49.2443 47.1433 50.1687 47.361C49.9226 47.014 50.3012 47.0455 50.8753 47.1686C51.5065 47.3285 52.1104 47.5816 52.6671 47.9194C53.1624 48.1938 53.4337 48.708 53.9006 49.32C54.1676 49.6737 54.4699 49.9992 54.8029 50.2917C55.2607 50.6897 55.774 51.0191 56.3266 51.2696C56.071 51.1403 56.0111 51.2034 55.7619 51.0772C56.6168 51.7681 57.8156 51.664 58.8219 52.6072C59.7525 52.3737 60.3519 53.3738 60.8724 52.7618L58.4276 51.7933C59.1437 52.0236 59.9134 52.0835 60.7526 52.2665C61.7473 52.4716 62.6938 52.8645 63.5413 53.4243C63.04 53.4483 62.5378 53.4026 62.0491 53.2886C62.6107 53.7807 63.3741 53.7019 63.9419 54.2098C63.6896 54.5252 62.9419 54.2382 62.0491 53.8691C61.1564 53.5 60.1248 52.9889 59.273 52.9227C59.5506 53.2381 60.2951 53.4337 60.8314 53.6041C61.3677 53.7744 61.7116 53.8975 61.1658 54.1214C62.6643 53.6167 63.7148 55.3833 65.819 55.4022L65.5224 55.7713C66.0322 55.8256 66.534 55.9389 67.0177 56.1089C66.6234 56.1688 66.2385 56.2035 65.8442 56.2508C66.6119 56.37 67.3417 56.6647 67.9768 57.1121C68.6266 57.5127 69.2607 57.9354 70.0147 58.0869C67.0587 56.9449 69.5541 57.3266 68.4373 56.5348C70.3585 56.9701 70.7655 57.4465 71.2197 57.9891C71.4739 58.3215 71.7796 58.6112 72.1251 58.8471C72.7948 59.2497 73.5181 59.5556 74.2735 59.7557C73.6899 59.6169 72.2702 58.7651 73.2135 58.885C73.972 59.2192 74.688 59.6428 75.3461 60.1469C78.1064 61.0302 75.0779 59.5759 76.3303 59.7367C76.4677 59.903 76.6434 60.0335 76.8423 60.117C77.0412 60.2005 77.2574 60.2346 77.4723 60.2163C77.9771 60.152 78.488 60.152 78.9928 60.2163L78.8604 60.6358C81.9046 61.9135 79.9771 60.0396 82.6806 61.2668L81.3084 61.4529C81.8163 61.5601 82.3179 61.6769 82.8258 61.7683L82.3715 62.1438C84.0971 62.2699 84.5798 62.5065 86.1098 63.0902C85.829 62.6927 86.5325 62.4151 87.9332 62.8031C88.8196 63.2984 87.2865 63.046 89.2928 63.5192C88.7755 63.6517 88.1855 63.8347 87.4284 63.2321C87.3022 63.3394 86.9111 63.3583 86.7817 63.4656C87.7281 64.0492 89.3685 64.2227 90.091 64.412C89.8275 64.3356 89.5736 64.2298 89.3338 64.0965L92.3749 64.3047C92.7914 64.5697 92.397 64.6044 92.009 64.6202C92.6052 64.7337 93.0627 64.6359 93.9365 64.8126C93.621 65.0839 93.599 65.4435 92.3308 65.2921L95.1984 65.6076C95.3498 65.7906 96.5296 66.3331 96.1448 66.3647C96.8924 66.6518 97.8798 66.6802 98.924 66.759C99.9921 66.7944 101.052 66.9619 102.079 67.2575C102.34 67.2085 102.609 67.2085 102.871 67.2575C103.817 67.4846 104.713 67.778 105.656 68.0177C106.682 68.2757 107.734 68.4081 108.792 68.4121L109.987 69.1976C111.805 69.3774 108.36 68.2007 111.382 68.5067C113.524 68.696 112.085 69.1093 112.801 69.3869C113.906 69.2922 115.817 69.0399 117.688 69.7938C117.096 69.7687 116.507 69.7118 115.921 69.6235ZM138.263 72.103C137.824 72.1409 136.938 72.2955 136.638 72.0715C137.168 71.7245 137.531 71.9264 138.263 72.103ZM168.447 70.0336C168.908 70.0807 169.354 70.2214 169.759 70.4468C169.308 70.3547 168.869 70.2162 168.447 70.0336ZM164.087 76.7783L164.128 76.753C165.036 76.3934 164.715 76.5133 164.087 76.7625V76.7783ZM162.194 77.4975C162.011 77.589 162.03 77.5985 162.118 77.5827C162.449 77.4174 162.79 77.271 163.137 77.1442C162.815 77.2262 162.501 77.3393 162.2 77.4817L162.194 77.4975ZM57.7399 47.6733L58.0301 47.9541C57.1846 47.6954 57.4622 47.6891 57.7399 47.6733Z" fill="url(#paint56_linear_85_440)"/>
<path d="M168.5 72.2009C168.419 72.1799 168.35 72.1277 168.307 72.0558C168.14 72.1094 168.137 72.1662 168.5 72.2009Z" fill="url(#paint57_linear_85_440)"/>
<path d="M102.139 67.3427L102.072 67.3269C102.039 67.3373 102.01 67.357 101.987 67.3837L102.139 67.3427Z" fill="url(#paint58_linear_85_440)"/>
<path d="M155.941 67.0777C155.692 66.9794 155.451 66.8602 155.222 66.7212C155.184 66.7527 155.348 66.8537 155.941 67.0777Z" fill="url(#paint59_linear_85_440)"/>
<path d="M152.097 80.9582L153.359 80.6049C152.753 80.7689 152.532 80.8036 152.223 80.8699C152.242 80.8856 152.488 80.8541 152.097 80.9582Z" fill="url(#paint60_linear_85_440)"/>
<path d="M141.02 82.5324L140.442 82.6176L140.499 82.6491C141.291 82.545 141.83 82.4378 141.02 82.5324Z" fill="url(#paint61_linear_85_440)"/>
<path d="M150.856 80.9297C150.736 80.8698 149.963 81.1064 149.083 81.3083L149.241 81.2736C149.004 81.4376 149.938 81.2011 150.856 80.9297Z" fill="url(#paint62_linear_85_440)"/>
<path d="M148.882 81.3557C148.611 81.4188 148.333 81.4819 148.068 81.5355C147.973 81.6018 148.399 81.4724 148.882 81.3557Z" fill="url(#paint63_linear_85_440)"/>
<path d="M159.834 78.4566C159.421 78.5764 159.623 78.6585 159.38 78.7026C159.172 78.8383 159.841 78.5701 160.276 78.3588C160.711 78.1474 160.926 78.0181 159.834 78.4566Z" fill="url(#paint64_linear_85_440)"/>
<path d="M150.086 80.8446L150.42 80.8635L150.89 80.6648L150.086 80.8446Z" fill="url(#paint65_linear_85_440)"/>
<path d="M156.935 78.974L155.556 79.3873C155.585 79.3873 155.414 79.463 155.203 79.5387C156.049 79.2737 156.973 78.9992 156.935 78.974Z" fill="url(#paint66_linear_85_440)"/>
<path d="M155.203 79.5386C154.758 79.6679 154.339 79.7941 154.096 79.8824C154.335 79.813 154.85 79.6553 155.203 79.5386Z" fill="url(#paint67_linear_85_440)"/>
<path d="M151.982 80.3336L152.396 80.2421L153.377 79.9834L151.982 80.3336Z" fill="url(#paint68_linear_85_440)"/>
<path d="M171.11 72.7844C171.602 72.4942 172.081 72.2103 172.551 71.9201C172.608 71.8317 172.179 72.0463 171.687 72.3491C171.394 72.5573 170.854 72.8728 171.11 72.7844Z" fill="url(#paint69_linear_85_440)"/>
<path d="M166.715 74.6521C166.931 74.5642 167.155 74.4966 167.384 74.4502L167.355 74.283L166.715 74.6521Z" fill="url(#paint70_linear_85_440)"/>
<path d="M170.73 72.5163C170.774 72.4627 171.121 72.2293 171.273 72.1125C171.424 71.9958 171.415 71.98 170.834 72.3113C170.784 72.3632 170.728 72.4087 170.667 72.4469L170.311 72.6772C170.115 72.8097 170.109 72.8349 170.73 72.5163Z" fill="url(#paint71_linear_85_440)"/>
<path d="M153.882 65.6549L154.257 65.7969L154.336 65.4373L153.882 65.6549Z" fill="url(#paint72_linear_85_440)"/>
<path d="M134.803 57.0237C136.345 58.1026 135.32 57.0395 136.695 58.0269C137.124 58.1689 135.566 57.2193 136.001 57.3771C134.986 56.8786 134.519 56.5001 134.803 57.0237Z" fill="url(#paint73_linear_85_440)"/>
<path d="M136.008 57.3771C136.169 57.4591 136.345 57.5411 136.535 57.6231C136.238 57.478 136.099 57.4149 136.008 57.3771Z" fill="url(#paint74_linear_85_440)"/>
<path d="M2.86743 1.99376L2.34375 0.905396L2.48256 1.76977L2.86743 1.99376Z" fill="url(#paint75_linear_85_440)"/>
<path d="M0.722212 0.820213L1.18595 0.09464L0.166992 0C0.362582 0.186125 0.737985 0.545757 0.722212 0.820213Z" fill="url(#paint76_linear_85_440)"/>
<path d="M141.534 73.2261L141.631 73.1251C141.455 72.9989 141.174 72.9737 140.609 72.9232L141.534 73.2261Z" fill="url(#paint77_linear_85_440)"/>
<path d="M125.279 71.3932L125.556 71.4374L125.096 70.939L125.279 71.3932Z" fill="url(#paint78_linear_85_440)"/>
<path d="M111.627 69.9137C112.176 70.0241 112.842 70.0304 113.394 70.144C112.176 70.0336 111.583 69.3206 111.627 69.9137Z" fill="url(#paint79_linear_85_440)"/>
<defs>
<linearGradient id="paint0_linear_85_440" x1="172.001" y1="72.1261" x2="172.177" y2="71.7287" gradientUnits="userSpaceOnUse">
<stop stop-color="#58ABF7"/>
<stop offset="0.213542" stop-color="#4079DB"/>
<stop offset="0.463542" stop-color="#826CDE"/>
<stop offset="0.713542" stop-color="#BB77C2"/>
<stop offset="1" stop-color="#FBDBAA"/>
</linearGradient>
<linearGradient id="paint1_linear_85_440" x1="163.203" y1="76.4597" x2="163.503" y2="75.6205" gradientUnits="userSpaceOnUse">
<stop stop-color="#58ABF7"/>
<stop offset="0.213542" stop-color="#4079DB"/>
<stop offset="0.463542" stop-color="#826CDE"/>
<stop offset="0.713542" stop-color="#BB77C2"/>
<stop offset="1" stop-color="#FBDBAA"/>
</linearGradient>
<linearGradient id="paint2_linear_85_440" x1="156.576" y1="78.9108" x2="157.461" y2="75.8857" gradientUnits="userSpaceOnUse">
<stop stop-color="#58ABF7"/>
<stop offset="0.213542" stop-color="#4079DB"/>
<stop offset="0.463542" stop-color="#826CDE"/>
<stop offset="0.713542" stop-color="#BB77C2"/>
<stop offset="1" stop-color="#FBDBAA"/>
</linearGradient>
<linearGradient id="paint3_linear_85_440" x1="152.226" y1="80.0759" x2="152.339" y2="79.5575" gradientUnits="userSpaceOnUse">
<stop stop-color="#58ABF7"/>
<stop offset="0.213542" stop-color="#4079DB"/>
<stop offset="0.463542" stop-color="#826CDE"/>
<stop offset="0.713542" stop-color="#BB77C2"/>
<stop offset="1" stop-color="#FBDBAA"/>
</linearGradient>
<linearGradient id="paint4_linear_85_440" x1="153.019" y1="79.8416" x2="153.056" y2="79.6614" gradientUnits="userSpaceOnUse">
<stop stop-color="#58ABF7"/>
<stop offset="0.213542" stop-color="#4079DB"/>
<stop offset="0.463542" stop-color="#826CDE"/>
<stop offset="0.713542" stop-color="#BB77C2"/>
<stop offset="1" stop-color="#FBDBAA"/>
</linearGradient>
<linearGradient id="paint5_linear_85_440" x1="148.737" y1="80.8703" x2="148.85" y2="80.2339" gradientUnits="userSpaceOnUse">
<stop stop-color="#58ABF7"/>
<stop offset="0.213542" stop-color="#4079DB"/>
<stop offset="0.463542" stop-color="#826CDE"/>
<stop offset="0.713542" stop-color="#BB77C2"/>
<stop offset="1" stop-color="#FBDBAA"/>
</linearGradient>
<linearGradient id="paint6_linear_85_440" x1="148.241" y1="81.0528" x2="148.284" y2="80.8214" gradientUnits="userSpaceOnUse">
<stop stop-color="#58ABF7"/>
<stop offset="0.213542" stop-color="#4079DB"/>
<stop offset="0.463542" stop-color="#826CDE"/>
<stop offset="0.713542" stop-color="#BB77C2"/>
<stop offset="1" stop-color="#FBDBAA"/>
</linearGradient>
<linearGradient id="paint7_linear_85_440" x1="148.815" y1="80.9204" x2="148.913" y2="80.4146" gradientUnits="userSpaceOnUse">
<stop stop-color="#58ABF7"/>
<stop offset="0.213542" stop-color="#4079DB"/>
<stop offset="0.463542" stop-color="#826CDE"/>
<stop offset="0.713542" stop-color="#BB77C2"/>
<stop offset="1" stop-color="#FBDBAA"/>
</linearGradient>
<linearGradient id="paint8_linear_85_440" x1="150.72" y1="80.4724" x2="150.866" y2="79.7318" gradientUnits="userSpaceOnUse">
<stop stop-color="#58ABF7"/>
<stop offset="0.213542" stop-color="#4079DB"/>
<stop offset="0.463542" stop-color="#826CDE"/>
<stop offset="0.713542" stop-color="#BB77C2"/>
<stop offset="1" stop-color="#FBDBAA"/>
</linearGradient>
<linearGradient id="paint9_linear_85_440" x1="156.186" y1="79.0814" x2="156.412" y2="78.235" gradientUnits="userSpaceOnUse">
<stop stop-color="#58ABF7"/>
<stop offset="0.213542" stop-color="#4079DB"/>
<stop offset="0.463542" stop-color="#826CDE"/>
<stop offset="0.713542" stop-color="#BB77C2"/>
<stop offset="1" stop-color="#FBDBAA"/>
</linearGradient>
<linearGradient id="paint10_linear_85_440" x1="142.316" y1="82.004" x2="142.344" y2="81.7243" gradientUnits="userSpaceOnUse">
<stop stop-color="#58ABF7"/>
<stop offset="0.213542" stop-color="#4079DB"/>
<stop offset="0.463542" stop-color="#826CDE"/>
<stop offset="0.713542" stop-color="#BB77C2"/>
<stop offset="1" stop-color="#FBDBAA"/>
</linearGradient>
<linearGradient id="paint11_linear_85_440" x1="141.537" y1="82.2012" x2="141.584" y2="81.8423" gradientUnits="userSpaceOnUse">
<stop stop-color="#58ABF7"/>
<stop offset="0.213542" stop-color="#4079DB"/>
<stop offset="0.463542" stop-color="#826CDE"/>
<stop offset="0.713542" stop-color="#BB77C2"/>
<stop offset="1" stop-color="#FBDBAA"/>
</linearGradient>
<linearGradient id="paint12_linear_85_440" x1="147.67" y1="81.2515" x2="147.868" y2="80.2412" gradientUnits="userSpaceOnUse">
<stop stop-color="#58ABF7"/>
<stop offset="0.213542" stop-color="#4079DB"/>
<stop offset="0.463542" stop-color="#826CDE"/>
<stop offset="0.713542" stop-color="#BB77C2"/>
<stop offset="1" stop-color="#FBDBAA"/>
</linearGradient>
<linearGradient id="paint13_linear_85_440" x1="137.007" y1="82.5892" x2="137.04" y2="82.285" gradientUnits="userSpaceOnUse">
<stop stop-color="#58ABF7"/>
<stop offset="0.213542" stop-color="#4079DB"/>
<stop offset="0.463542" stop-color="#826CDE"/>
<stop offset="0.713542" stop-color="#BB77C2"/>
<stop offset="1" stop-color="#FBDBAA"/>
</linearGradient>
<linearGradient id="paint14_linear_85_440" x1="134.124" y1="83.7407" x2="134.809" y2="82.0436" gradientUnits="userSpaceOnUse">
<stop stop-color="#58ABF7"/>
<stop offset="0.213542" stop-color="#4079DB"/>
<stop offset="0.463542" stop-color="#826CDE"/>
<stop offset="0.713542" stop-color="#BB77C2"/>
<stop offset="1" stop-color="#FBDBAA"/>
</linearGradient>
<linearGradient id="paint15_linear_85_440" x1="136.294" y1="83.5388" x2="136.316" y2="83.307" gradientUnits="userSpaceOnUse">
<stop stop-color="#58ABF7"/>
<stop offset="0.213542" stop-color="#4079DB"/>
<stop offset="0.463542" stop-color="#826CDE"/>
<stop offset="0.713542" stop-color="#BB77C2"/>
<stop offset="1" stop-color="#FBDBAA"/>
</linearGradient>
<linearGradient id="paint16_linear_85_440" x1="138.436" y1="82.4945" x2="138.439" y2="82.4081" gradientUnits="userSpaceOnUse">
<stop stop-color="#58ABF7"/>
<stop offset="0.213542" stop-color="#4079DB"/>
<stop offset="0.463542" stop-color="#826CDE"/>
<stop offset="0.713542" stop-color="#BB77C2"/>
<stop offset="1" stop-color="#FBDBAA"/>
</linearGradient>
<linearGradient id="paint17_linear_85_440" x1="137.871" y1="82.5955" x2="137.884" y2="82.4197" gradientUnits="userSpaceOnUse">
<stop stop-color="#58ABF7"/>
<stop offset="0.213542" stop-color="#4079DB"/>
<stop offset="0.463542" stop-color="#826CDE"/>
<stop offset="0.713542" stop-color="#BB77C2"/>
<stop offset="1" stop-color="#FBDBAA"/>
</linearGradient>
<linearGradient id="paint18_linear_85_440" x1="139.424" y1="82.4392" x2="139.424" y2="82.4308" gradientUnits="userSpaceOnUse">
<stop stop-color="#58ABF7"/>
<stop offset="0.213542" stop-color="#4079DB"/>
<stop offset="0.463542" stop-color="#826CDE"/>
<stop offset="0.713542" stop-color="#BB77C2"/>
<stop offset="1" stop-color="#FBDBAA"/>
</linearGradient>
<linearGradient id="paint19_linear_85_440" x1="143.43" y1="82.0394" x2="143.515" y2="81.5311" gradientUnits="userSpaceOnUse">
<stop stop-color="#58ABF7"/>
<stop offset="0.213542" stop-color="#4079DB"/>
<stop offset="0.463542" stop-color="#826CDE"/>
<stop offset="0.713542" stop-color="#BB77C2"/>
<stop offset="1" stop-color="#FBDBAA"/>
</linearGradient>
<linearGradient id="paint20_linear_85_440" x1="140.165" y1="82.4283" x2="140.212" y2="82.0463" gradientUnits="userSpaceOnUse">
<stop stop-color="#58ABF7"/>
<stop offset="0.213542" stop-color="#4079DB"/>
<stop offset="0.463542" stop-color="#826CDE"/>
<stop offset="0.713542" stop-color="#BB77C2"/>
<stop offset="1" stop-color="#FBDBAA"/>
</linearGradient>
<linearGradient id="paint21_linear_85_440" x1="139.519" y1="82.5197" x2="139.537" y2="82.3565" gradientUnits="userSpaceOnUse">
<stop stop-color="#58ABF7"/>
<stop offset="0.213542" stop-color="#4079DB"/>
<stop offset="0.463542" stop-color="#826CDE"/>
<stop offset="0.713542" stop-color="#BB77C2"/>
<stop offset="1" stop-color="#FBDBAA"/>
</linearGradient>
<linearGradient id="paint22_linear_85_440" x1="134.57" y1="83.5118" x2="134.588" y2="83.2022" gradientUnits="userSpaceOnUse">
<stop stop-color="#58ABF7"/>
<stop offset="0.213542" stop-color="#4079DB"/>
<stop offset="0.463542" stop-color="#826CDE"/>
<stop offset="0.713542" stop-color="#BB77C2"/>
<stop offset="1" stop-color="#FBDBAA"/>
</linearGradient>
<linearGradient id="paint23_linear_85_440" x1="135.837" y1="82.7457" x2="135.838" y2="82.7307" gradientUnits="userSpaceOnUse">
<stop stop-color="#58ABF7"/>
<stop offset="0.213542" stop-color="#4079DB"/>
<stop offset="0.463542" stop-color="#826CDE"/>
<stop offset="0.713542" stop-color="#BB77C2"/>
<stop offset="1" stop-color="#FBDBAA"/>
</linearGradient>
<linearGradient id="paint24_linear_85_440" x1="134.148" y1="83.4756" x2="134.669" y2="82.6936" gradientUnits="userSpaceOnUse">
<stop stop-color="#58ABF7"/>
<stop offset="0.213542" stop-color="#4079DB"/>
<stop offset="0.463542" stop-color="#826CDE"/>
<stop offset="0.713542" stop-color="#BB77C2"/>
<stop offset="1" stop-color="#FBDBAA"/>
</linearGradient>
<linearGradient id="paint25_linear_85_440" x1="138.379" y1="83.2579" x2="138.385" y2="83.1442" gradientUnits="userSpaceOnUse">
<stop stop-color="#58ABF7"/>
<stop offset="0.213542" stop-color="#4079DB"/>
<stop offset="0.463542" stop-color="#826CDE"/>
<stop offset="0.713542" stop-color="#BB77C2"/>
<stop offset="1" stop-color="#FBDBAA"/>
</linearGradient>
<linearGradient id="paint26_linear_85_440" x1="135.585" y1="82.7468" x2="135.585" y2="82.736" gradientUnits="userSpaceOnUse">
<stop stop-color="#58ABF7"/>
<stop offset="0.213542" stop-color="#4079DB"/>
<stop offset="0.463542" stop-color="#826CDE"/>
<stop offset="0.713542" stop-color="#BB77C2"/>
<stop offset="1" stop-color="#FBDBAA"/>
</linearGradient>
<linearGradient id="paint27_linear_85_440" x1="134.891" y1="82.8195" x2="134.899" y2="82.6889" gradientUnits="userSpaceOnUse">
<stop stop-color="#58ABF7"/>
<stop offset="0.213542" stop-color="#4079DB"/>
<stop offset="0.463542" stop-color="#826CDE"/>
<stop offset="0.713542" stop-color="#BB77C2"/>
<stop offset="1" stop-color="#FBDBAA"/>
</linearGradient>
<linearGradient id="paint28_linear_85_440" x1="142.579" y1="82.5191" x2="142.931" y2="80.5774" gradientUnits="userSpaceOnUse">
<stop stop-color="#58ABF7"/>
<stop offset="0.213542" stop-color="#4079DB"/>
<stop offset="0.463542" stop-color="#826CDE"/>
<stop offset="0.713542" stop-color="#BB77C2"/>
<stop offset="1" stop-color="#FBDBAA"/>
</linearGradient>
<linearGradient id="paint29_linear_85_440" x1="140.894" y1="82.9394" x2="140.976" y2="82.196" gradientUnits="userSpaceOnUse">
<stop stop-color="#58ABF7"/>
<stop offset="0.213542" stop-color="#4079DB"/>
<stop offset="0.463542" stop-color="#826CDE"/>
<stop offset="0.713542" stop-color="#BB77C2"/>
<stop offset="1" stop-color="#FBDBAA"/>
</linearGradient>
<linearGradient id="paint30_linear_85_440" x1="137.042" y1="83.34" x2="137.102" y2="82.6255" gradientUnits="userSpaceOnUse">
<stop stop-color="#58ABF7"/>
<stop offset="0.213542" stop-color="#4079DB"/>
<stop offset="0.463542" stop-color="#826CDE"/>
<stop offset="0.713542" stop-color="#BB77C2"/>
<stop offset="1" stop-color="#FBDBAA"/>
</linearGradient>
<linearGradient id="paint31_linear_85_440" x1="142.491" y1="82.3183" x2="142.497" y2="82.2667" gradientUnits="userSpaceOnUse">
<stop stop-color="#58ABF7"/>
<stop offset="0.213542" stop-color="#4079DB"/>
<stop offset="0.463542" stop-color="#826CDE"/>
<stop offset="0.713542" stop-color="#BB77C2"/>
<stop offset="1" stop-color="#FBDBAA"/>
</linearGradient>
<linearGradient id="paint32_linear_85_440" x1="140.382" y1="82.4623" x2="140.431" y2="81.896" gradientUnits="userSpaceOnUse">
<stop stop-color="#58ABF7"/>
<stop offset="0.213542" stop-color="#4079DB"/>
<stop offset="0.463542" stop-color="#826CDE"/>
<stop offset="0.713542" stop-color="#BB77C2"/>
<stop offset="1" stop-color="#FBDBAA"/>
</linearGradient>
<linearGradient id="paint33_linear_85_440" x1="134.22" y1="83.2961" x2="134.351" y2="82.6557" gradientUnits="userSpaceOnUse">
<stop stop-color="#58ABF7"/>
<stop offset="0.213542" stop-color="#4079DB"/>
<stop offset="0.463542" stop-color="#826CDE"/>
<stop offset="0.713542" stop-color="#BB77C2"/>
<stop offset="1" stop-color="#FBDBAA"/>
</linearGradient>
<linearGradient id="paint34_linear_85_440" x1="144.033" y1="82.6238" x2="144.148" y2="82.0778" gradientUnits="userSpaceOnUse">
<stop stop-color="#58ABF7"/>
<stop offset="0.213542" stop-color="#4079DB"/>
<stop offset="0.463542" stop-color="#826CDE"/>
<stop offset="0.713542" stop-color="#BB77C2"/>
<stop offset="1" stop-color="#FBDBAA"/>
</linearGradient>
<linearGradient id="paint35_linear_85_440" x1="146.979" y1="82.0908" x2="147.046" y2="81.7685" gradientUnits="userSpaceOnUse">
<stop stop-color="#58ABF7"/>
<stop offset="0.213542" stop-color="#4079DB"/>
<stop offset="0.463542" stop-color="#826CDE"/>
<stop offset="0.713542" stop-color="#BB77C2"/>
<stop offset="1" stop-color="#FBDBAA"/>
</linearGradient>
<linearGradient id="paint36_linear_85_440" x1="126.215" y1="71.1163" x2="126.215" y2="71.098" gradientUnits="userSpaceOnUse">
<stop stop-color="#58ABF7"/>
<stop offset="0.213542" stop-color="#4079DB"/>
<stop offset="0.463542" stop-color="#826CDE"/>
<stop offset="0.713542" stop-color="#BB77C2"/>
<stop offset="1" stop-color="#FBDBAA"/>
</linearGradient>
<linearGradient id="paint37_linear_85_440" x1="131.32" y1="71.6424" x2="131.405" y2="71.4522" gradientUnits="userSpaceOnUse">
<stop stop-color="#58ABF7"/>
<stop offset="0.213542" stop-color="#4079DB"/>
<stop offset="0.463542" stop-color="#826CDE"/>
<stop offset="0.713542" stop-color="#BB77C2"/>
<stop offset="1" stop-color="#FBDBAA"/>
</linearGradient>
<linearGradient id="paint38_linear_85_440" x1="135.789" y1="55.9007" x2="136.808" y2="54.4245" gradientUnits="userSpaceOnUse">
<stop stop-color="#58ABF7"/>
<stop offset="0.213542" stop-color="#4079DB"/>
<stop offset="0.463542" stop-color="#826CDE"/>
<stop offset="0.713542" stop-color="#BB77C2"/>
<stop offset="1" stop-color="#FBDBAA"/>
</linearGradient>
<linearGradient id="paint39_linear_85_440" x1="169.021" y1="71.3017" x2="169.138" y2="70.835" gradientUnits="userSpaceOnUse">
<stop stop-color="#58ABF7"/>
<stop offset="0.213542" stop-color="#4079DB"/>
<stop offset="0.463542" stop-color="#826CDE"/>
<stop offset="0.713542" stop-color="#BB77C2"/>
<stop offset="1" stop-color="#FBDBAA"/>
</linearGradient>
<linearGradient id="paint40_linear_85_440" x1="167.194" y1="72.3271" x2="167.209" y2="72.1286" gradientUnits="userSpaceOnUse">
<stop stop-color="#58ABF7"/>
<stop offset="0.213542" stop-color="#4079DB"/>
<stop offset="0.463542" stop-color="#826CDE"/>
<stop offset="0.713542" stop-color="#BB77C2"/>
<stop offset="1" stop-color="#FBDBAA"/>
</linearGradient>
<linearGradient id="paint41_linear_85_440" x1="101.183" y1="67.6801" x2="101.329" y2="67.1881" gradientUnits="userSpaceOnUse">
<stop stop-color="#58ABF7"/>
<stop offset="0.213542" stop-color="#4079DB"/>
<stop offset="0.463542" stop-color="#826CDE"/>
<stop offset="0.713542" stop-color="#BB77C2"/>
<stop offset="1" stop-color="#FBDBAA"/>
</linearGradient>
<linearGradient id="paint42_linear_85_440" x1="172.575" y1="70.9169" x2="172.805" y2="69.7122" gradientUnits="userSpaceOnUse">
<stop stop-color="#58ABF7"/>
<stop offset="0.213542" stop-color="#4079DB"/>
<stop offset="0.463542" stop-color="#826CDE"/>
<stop offset="0.713542" stop-color="#BB77C2"/>
<stop offset="1" stop-color="#FBDBAA"/>
</linearGradient>
<linearGradient id="paint43_linear_85_440" x1="128.502" y1="68.0997" x2="128.538" y2="67.8892" gradientUnits="userSpaceOnUse">
<stop stop-color="#58ABF7"/>
<stop offset="0.213542" stop-color="#4079DB"/>
<stop offset="0.463542" stop-color="#826CDE"/>
<stop offset="0.713542" stop-color="#BB77C2"/>
<stop offset="1" stop-color="#FBDBAA"/>
</linearGradient>
<linearGradient id="paint44_linear_85_440" x1="169.667" y1="70.226" x2="169.863" y2="69.1145" gradientUnits="userSpaceOnUse">
<stop stop-color="#58ABF7"/>
<stop offset="0.213542" stop-color="#4079DB"/>
<stop offset="0.463542" stop-color="#826CDE"/>
<stop offset="0.713542" stop-color="#BB77C2"/>
<stop offset="1" stop-color="#FBDBAA"/>
</linearGradient>
<linearGradient id="paint45_linear_85_440" x1="19.917" y1="28.105" x2="20.0795" y2="27.944" gradientUnits="userSpaceOnUse">
<stop stop-color="#58ABF7"/>
<stop offset="0.213542" stop-color="#4079DB"/>
<stop offset="0.463542" stop-color="#826CDE"/>
<stop offset="0.713542" stop-color="#BB77C2"/>
<stop offset="1" stop-color="#FBDBAA"/>
</linearGradient>
<linearGradient id="paint46_linear_85_440" x1="5.09473" y1="6.54913" x2="5.80876" y2="5.75229" gradientUnits="userSpaceOnUse">
<stop stop-color="#58ABF7"/>
<stop offset="0.213542" stop-color="#4079DB"/>
<stop offset="0.463542" stop-color="#826CDE"/>
<stop offset="0.713542" stop-color="#BB77C2"/>
<stop offset="1" stop-color="#FBDBAA"/>
</linearGradient>
<linearGradient id="paint47_linear_85_440" x1="157.736" y1="79.2767" x2="157.781" y2="79.1184" gradientUnits="userSpaceOnUse">
<stop stop-color="#58ABF7"/>
<stop offset="0.213542" stop-color="#4079DB"/>
<stop offset="0.463542" stop-color="#826CDE"/>
<stop offset="0.713542" stop-color="#BB77C2"/>
<stop offset="1" stop-color="#FBDBAA"/>
</linearGradient>
<linearGradient id="paint48_linear_85_440" x1="155.134" y1="79.6932" x2="155.204" y2="79.523" gradientUnits="userSpaceOnUse">
<stop stop-color="#58ABF7"/>
<stop offset="0.213542" stop-color="#4079DB"/>
<stop offset="0.463542" stop-color="#826CDE"/>
<stop offset="0.713542" stop-color="#BB77C2"/>
<stop offset="1" stop-color="#FBDBAA"/>
</linearGradient>
<linearGradient id="paint49_linear_85_440" x1="163.721" y1="68.9741" x2="163.752" y2="68.888" gradientUnits="userSpaceOnUse">
<stop stop-color="#58ABF7"/>
<stop offset="0.213542" stop-color="#4079DB"/>
<stop offset="0.463542" stop-color="#826CDE"/>
<stop offset="0.713542" stop-color="#BB77C2"/>
<stop offset="1" stop-color="#FBDBAA"/>
</linearGradient>
<linearGradient id="paint50_linear_85_440" x1="157.144" y1="79.4125" x2="157.228" y2="79.0502" gradientUnits="userSpaceOnUse">
<stop stop-color="#58ABF7"/>
<stop offset="0.213542" stop-color="#4079DB"/>
<stop offset="0.463542" stop-color="#826CDE"/>
<stop offset="0.713542" stop-color="#BB77C2"/>
<stop offset="1" stop-color="#FBDBAA"/>
</linearGradient>
<linearGradient id="paint51_linear_85_440" x1="156.758" y1="79.5873" x2="156.831" y2="79.3014" gradientUnits="userSpaceOnUse">
<stop stop-color="#58ABF7"/>
<stop offset="0.213542" stop-color="#4079DB"/>
<stop offset="0.463542" stop-color="#826CDE"/>
<stop offset="0.713542" stop-color="#BB77C2"/>
<stop offset="1" stop-color="#FBDBAA"/>
</linearGradient>
<linearGradient id="paint52_linear_85_440" x1="157.876" y1="79.2137" x2="158.023" y2="78.6843" gradientUnits="userSpaceOnUse">
<stop stop-color="#58ABF7"/>
<stop offset="0.213542" stop-color="#4079DB"/>
<stop offset="0.463542" stop-color="#826CDE"/>
<stop offset="0.713542" stop-color="#BB77C2"/>
<stop offset="1" stop-color="#FBDBAA"/>
</linearGradient>
<linearGradient id="paint53_linear_85_440" x1="61.5752" y1="53.2917" x2="61.6192" y2="53.0801" gradientUnits="userSpaceOnUse">
<stop stop-color="#58ABF7"/>
<stop offset="0.213542" stop-color="#4079DB"/>
<stop offset="0.463542" stop-color="#826CDE"/>
<stop offset="0.713542" stop-color="#BB77C2"/>
<stop offset="1" stop-color="#FBDBAA"/>
</linearGradient>
<linearGradient id="paint54_linear_85_440" x1="142.559" y1="59.1311" x2="142.593" y2="59.0629" gradientUnits="userSpaceOnUse">
<stop stop-color="#58ABF7"/>
<stop offset="0.213542" stop-color="#4079DB"/>
<stop offset="0.463542" stop-color="#826CDE"/>
<stop offset="0.713542" stop-color="#BB77C2"/>
<stop offset="1" stop-color="#FBDBAA"/>
</linearGradient>
<linearGradient id="paint55_linear_85_440" x1="142.636" y1="59.9812" x2="143.133" y2="58.6015" gradientUnits="userSpaceOnUse">
<stop stop-color="#58ABF7"/>
<stop offset="0.213542" stop-color="#4079DB"/>
<stop offset="0.463542" stop-color="#826CDE"/>
<stop offset="0.713542" stop-color="#BB77C2"/>
<stop offset="1" stop-color="#FBDBAA"/>
</linearGradient>
<linearGradient id="paint56_linear_85_440" x1="-1.30643e-06" y1="81.6364" x2="46.9074" y2="-45.6993" gradientUnits="userSpaceOnUse">
<stop stop-color="#58ABF7"/>
<stop offset="0.213542" stop-color="#4079DB"/>
<stop offset="0.463542" stop-color="#826CDE"/>
<stop offset="0.713542" stop-color="#BB77C2"/>
<stop offset="1" stop-color="#FBDBAA"/>
</linearGradient>
<linearGradient id="paint57_linear_85_440" x1="168.198" y1="72.2009" x2="168.287" y2="71.9731" gradientUnits="userSpaceOnUse">
<stop stop-color="#58ABF7"/>
<stop offset="0.213542" stop-color="#4079DB"/>
<stop offset="0.463542" stop-color="#826CDE"/>
<stop offset="0.713542" stop-color="#BB77C2"/>
<stop offset="1" stop-color="#FBDBAA"/>
</linearGradient>
<linearGradient id="paint58_linear_85_440" x1="101.987" y1="67.3837" x2="102.016" y2="67.2897" gradientUnits="userSpaceOnUse">
<stop stop-color="#58ABF7"/>
<stop offset="0.213542" stop-color="#4079DB"/>
<stop offset="0.463542" stop-color="#826CDE"/>
<stop offset="0.713542" stop-color="#BB77C2"/>
<stop offset="1" stop-color="#FBDBAA"/>
</linearGradient>
<linearGradient id="paint59_linear_85_440" x1="155.217" y1="67.0777" x2="155.438" y2="66.5212" gradientUnits="userSpaceOnUse">
<stop stop-color="#58ABF7"/>
<stop offset="0.213542" stop-color="#4079DB"/>
<stop offset="0.463542" stop-color="#826CDE"/>
<stop offset="0.713542" stop-color="#BB77C2"/>
<stop offset="1" stop-color="#FBDBAA"/>
</linearGradient>
<linearGradient id="paint60_linear_85_440" x1="152.097" y1="80.9582" x2="152.234" y2="80.3507" gradientUnits="userSpaceOnUse">
<stop stop-color="#58ABF7"/>
<stop offset="0.213542" stop-color="#4079DB"/>
<stop offset="0.463542" stop-color="#826CDE"/>
<stop offset="0.713542" stop-color="#BB77C2"/>
<stop offset="1" stop-color="#FBDBAA"/>
</linearGradient>
<linearGradient id="paint61_linear_85_440" x1="140.442" y1="82.6491" x2="140.477" y2="82.3765" gradientUnits="userSpaceOnUse">
<stop stop-color="#58ABF7"/>
<stop offset="0.213542" stop-color="#4079DB"/>
<stop offset="0.463542" stop-color="#826CDE"/>
<stop offset="0.713542" stop-color="#BB77C2"/>
<stop offset="1" stop-color="#FBDBAA"/>
</linearGradient>
<linearGradient id="paint62_linear_85_440" x1="149.083" y1="81.3277" x2="149.215" y2="80.6159" gradientUnits="userSpaceOnUse">
<stop stop-color="#58ABF7"/>
<stop offset="0.213542" stop-color="#4079DB"/>
<stop offset="0.463542" stop-color="#826CDE"/>
<stop offset="0.713542" stop-color="#BB77C2"/>
<stop offset="1" stop-color="#FBDBAA"/>
</linearGradient>
<linearGradient id="paint63_linear_85_440" x1="148.055" y1="81.5535" x2="148.121" y2="81.2089" gradientUnits="userSpaceOnUse">
<stop stop-color="#58ABF7"/>
<stop offset="0.213542" stop-color="#4079DB"/>
<stop offset="0.463542" stop-color="#826CDE"/>
<stop offset="0.713542" stop-color="#BB77C2"/>
<stop offset="1" stop-color="#FBDBAA"/>
</linearGradient>
<linearGradient id="paint64_linear_85_440" x1="159.341" y1="78.7394" x2="159.672" y2="77.8186" gradientUnits="userSpaceOnUse">
<stop stop-color="#58ABF7"/>
<stop offset="0.213542" stop-color="#4079DB"/>
<stop offset="0.463542" stop-color="#826CDE"/>
<stop offset="0.713542" stop-color="#BB77C2"/>
<stop offset="1" stop-color="#FBDBAA"/>
</linearGradient>
<linearGradient id="paint65_linear_85_440" x1="150.086" y1="80.8635" x2="150.155" y2="80.5181" gradientUnits="userSpaceOnUse">
<stop stop-color="#58ABF7"/>
<stop offset="0.213542" stop-color="#4079DB"/>
<stop offset="0.463542" stop-color="#826CDE"/>
<stop offset="0.713542" stop-color="#BB77C2"/>
<stop offset="1" stop-color="#FBDBAA"/>
</linearGradient>
<linearGradient id="paint66_linear_85_440" x1="155.203" y1="79.5387" x2="155.454" y2="78.5842" gradientUnits="userSpaceOnUse">
<stop stop-color="#58ABF7"/>
<stop offset="0.213542" stop-color="#4079DB"/>
<stop offset="0.463542" stop-color="#826CDE"/>
<stop offset="0.713542" stop-color="#BB77C2"/>
<stop offset="1" stop-color="#FBDBAA"/>
</linearGradient>
<linearGradient id="paint67_linear_85_440" x1="154.096" y1="79.8824" x2="154.242" y2="79.2978" gradientUnits="userSpaceOnUse">
<stop stop-color="#58ABF7"/>
<stop offset="0.213542" stop-color="#4079DB"/>
<stop offset="0.463542" stop-color="#826CDE"/>
<stop offset="0.713542" stop-color="#BB77C2"/>
<stop offset="1" stop-color="#FBDBAA"/>
</linearGradient>
<linearGradient id="paint68_linear_85_440" x1="151.982" y1="80.3336" x2="152.106" y2="79.7257" gradientUnits="userSpaceOnUse">
<stop stop-color="#58ABF7"/>
<stop offset="0.213542" stop-color="#4079DB"/>
<stop offset="0.463542" stop-color="#826CDE"/>
<stop offset="0.713542" stop-color="#BB77C2"/>
<stop offset="1" stop-color="#FBDBAA"/>
</linearGradient>
<linearGradient id="paint69_linear_85_440" x1="171.043" y1="72.7997" x2="171.677" y2="71.4781" gradientUnits="userSpaceOnUse">
<stop stop-color="#58ABF7"/>
<stop offset="0.213542" stop-color="#4079DB"/>
<stop offset="0.463542" stop-color="#826CDE"/>
<stop offset="0.713542" stop-color="#BB77C2"/>
<stop offset="1" stop-color="#FBDBAA"/>
</linearGradient>
<linearGradient id="paint70_linear_85_440" x1="166.715" y1="74.6521" x2="166.963" y2="74.0955" gradientUnits="userSpaceOnUse">
<stop stop-color="#58ABF7"/>
<stop offset="0.213542" stop-color="#4079DB"/>
<stop offset="0.463542" stop-color="#826CDE"/>
<stop offset="0.713542" stop-color="#BB77C2"/>
<stop offset="1" stop-color="#FBDBAA"/>
</linearGradient>
<linearGradient id="paint71_linear_85_440" x1="170.193" y1="72.7699" x2="170.729" y2="71.7177" gradientUnits="userSpaceOnUse">
<stop stop-color="#58ABF7"/>
<stop offset="0.213542" stop-color="#4079DB"/>
<stop offset="0.463542" stop-color="#826CDE"/>
<stop offset="0.713542" stop-color="#BB77C2"/>
<stop offset="1" stop-color="#FBDBAA"/>
</linearGradient>
<linearGradient id="paint72_linear_85_440" x1="153.882" y1="65.7969" x2="154.177" y2="65.3354" gradientUnits="userSpaceOnUse">
<stop stop-color="#58ABF7"/>
<stop offset="0.213542" stop-color="#4079DB"/>
<stop offset="0.463542" stop-color="#826CDE"/>
<stop offset="0.713542" stop-color="#BB77C2"/>
<stop offset="1" stop-color="#FBDBAA"/>
</linearGradient>
<linearGradient id="paint73_linear_85_440" x1="134.721" y1="58.0414" x2="135.638" y2="56.2056" gradientUnits="userSpaceOnUse">
<stop stop-color="#58ABF7"/>
<stop offset="0.213542" stop-color="#4079DB"/>
<stop offset="0.463542" stop-color="#826CDE"/>
<stop offset="0.713542" stop-color="#BB77C2"/>
<stop offset="1" stop-color="#FBDBAA"/>
</linearGradient>
<linearGradient id="paint74_linear_85_440" x1="136.008" y1="57.6231" x2="136.155" y2="57.2338" gradientUnits="userSpaceOnUse">
<stop stop-color="#58ABF7"/>
<stop offset="0.213542" stop-color="#4079DB"/>
<stop offset="0.463542" stop-color="#826CDE"/>
<stop offset="0.713542" stop-color="#BB77C2"/>
<stop offset="1" stop-color="#FBDBAA"/>
</linearGradient>
<linearGradient id="paint75_linear_85_440" x1="2.34375" y1="1.99376" x2="3.20881" y2="1.4781" gradientUnits="userSpaceOnUse">
<stop stop-color="#58ABF7"/>
<stop offset="0.213542" stop-color="#4079DB"/>
<stop offset="0.463542" stop-color="#826CDE"/>
<stop offset="0.713542" stop-color="#BB77C2"/>
<stop offset="1" stop-color="#FBDBAA"/>
</linearGradient>
<linearGradient id="paint76_linear_85_440" x1="0.166992" y1="0.820213" x2="0.844203" y2="-0.222049" gradientUnits="userSpaceOnUse">
<stop stop-color="#58ABF7"/>
<stop offset="0.213542" stop-color="#4079DB"/>
<stop offset="0.463542" stop-color="#826CDE"/>
<stop offset="0.713542" stop-color="#BB77C2"/>
<stop offset="1" stop-color="#FBDBAA"/>
</linearGradient>
<linearGradient id="paint77_linear_85_440" x1="140.609" y1="73.2261" x2="140.733" y2="72.7084" gradientUnits="userSpaceOnUse">
<stop stop-color="#58ABF7"/>
<stop offset="0.213542" stop-color="#4079DB"/>
<stop offset="0.463542" stop-color="#826CDE"/>
<stop offset="0.713542" stop-color="#BB77C2"/>
<stop offset="1" stop-color="#FBDBAA"/>
</linearGradient>
<linearGradient id="paint78_linear_85_440" x1="125.096" y1="71.4374" x2="125.542" y2="70.9265" gradientUnits="userSpaceOnUse">
<stop stop-color="#58ABF7"/>
<stop offset="0.213542" stop-color="#4079DB"/>
<stop offset="0.463542" stop-color="#826CDE"/>
<stop offset="0.713542" stop-color="#BB77C2"/>
<stop offset="1" stop-color="#FBDBAA"/>
</linearGradient>
<linearGradient id="paint79_linear_85_440" x1="111.625" y1="70.144" x2="111.794" y2="69.3425" gradientUnits="userSpaceOnUse">
<stop stop-color="#58ABF7"/>
<stop offset="0.213542" stop-color="#4079DB"/>
<stop offset="0.463542" stop-color="#826CDE"/>
<stop offset="0.713542" stop-color="#BB77C2"/>
<stop offset="1" stop-color="#FBDBAA"/>
</linearGradient>
</defs>
</svg>
