<svg width="19" height="20" viewBox="0 0 19 20" fill="none" xmlns="http://www.w3.org/2000/svg">
<path d="M16.6534 2.49687H13.8374V1.08885C13.8374 0.96437 13.788 0.844992 13.6999 0.756973C13.6119 0.668955 13.4925 0.619507 13.3681 0.619507C13.2436 0.619507 13.1242 0.668955 13.0362 0.756973C12.9482 0.844992 12.8987 0.96437 12.8987 1.08885V2.49687H6.32798V1.08885C6.32798 0.96437 6.27853 0.844992 6.19051 0.756973C6.10249 0.668955 5.98311 0.619507 5.85864 0.619507C5.73416 0.619507 5.61478 0.668955 5.52676 0.756973C5.43875 0.844992 5.3893 0.96437 5.3893 1.08885V2.49687H2.57326C1.95111 2.49761 1.35465 2.74509 0.914718 3.18502C0.474788 3.62495 0.227308 4.22141 0.226562 4.84356V17.0464C0.227308 17.6685 0.474788 18.265 0.914718 18.7049C1.35465 19.1449 1.95111 19.3923 2.57326 19.3931H16.6534C17.2757 19.3926 17.8723 19.1452 18.3123 18.7052C18.7522 18.2652 18.9996 17.6686 19.0001 17.0464V4.84356C18.9996 4.22133 18.7522 3.62473 18.3123 3.18475C17.8723 2.74476 17.2757 2.49736 16.6534 2.49687ZM18.0615 17.0464C18.0615 17.4198 17.9131 17.778 17.6491 18.042C17.385 18.3061 17.0269 18.4544 16.6534 18.4544H2.57326C2.19983 18.4544 1.8417 18.3061 1.57764 18.042C1.31359 17.778 1.16524 17.4198 1.16524 17.0464V9.06762H18.0615V17.0464ZM18.0615 8.12894H1.16524V4.84356C1.16524 4.06634 1.79416 3.43554 2.57326 3.43554H5.3893V4.84356C5.3893 4.96804 5.43875 5.08742 5.52676 5.17544C5.61478 5.26345 5.73416 5.3129 5.85864 5.3129C5.98311 5.3129 6.10249 5.26345 6.19051 5.17544C6.27853 5.08742 6.32798 4.96804 6.32798 4.84356V3.43554H12.8987V4.84356C12.8987 4.96804 12.9482 5.08742 13.0362 5.17544C13.1242 5.26345 13.2436 5.3129 13.3681 5.3129C13.4925 5.3129 13.6119 5.26345 13.6999 5.17544C13.788 5.08742 13.8374 4.96804 13.8374 4.84356V3.43554H16.6534C17.0269 3.43554 17.385 3.58389 17.6491 3.84794C17.9131 4.112 18.0615 4.47013 18.0615 4.84356V8.12894Z" fill="white"/>
</svg>
