<svg width="18" height="18" viewBox="0 0 18 18" fill="none" xmlns="http://www.w3.org/2000/svg">
<path d="M15.0126 2.64616H12.4803V1.38005C12.4803 1.26812 12.4359 1.16077 12.3567 1.08162C12.2776 1.00247 12.1702 0.958008 12.0583 0.958008C11.9464 0.958008 11.839 1.00247 11.7599 1.08162C11.6807 1.16077 11.6363 1.26812 11.6363 1.38005V2.64616H5.72772V1.38005C5.72772 1.26812 5.68325 1.16077 5.6041 1.08162C5.52496 1.00247 5.41761 0.958008 5.30568 0.958008C5.19375 0.958008 5.0864 1.00247 5.00725 1.08162C4.9281 1.16077 4.88364 1.26812 4.88364 1.38005V2.64616H2.35141C1.79195 2.64683 1.25561 2.86937 0.860013 3.26497C0.46442 3.66056 0.241881 4.19691 0.241211 4.75636V15.7294C0.241881 16.2888 0.46442 16.8252 0.860013 17.2208C1.25561 17.6164 1.79195 17.8389 2.35141 17.8396H15.0126C15.5721 17.8391 16.1086 17.6167 16.5042 17.221C16.8999 16.8254 17.1223 16.2889 17.1228 15.7294V4.75636C17.1223 4.19684 16.8999 3.66036 16.5042 3.26472C16.1086 2.86908 15.5721 2.64661 15.0126 2.64616ZM16.2787 15.7294C16.2787 16.0652 16.1453 16.3872 15.9079 16.6247C15.6704 16.8621 15.3484 16.9955 15.0126 16.9955H2.35141C2.01561 16.9955 1.69357 16.8621 1.45613 16.6247C1.21868 16.3872 1.08529 16.0652 1.08529 15.7294V8.55471H16.2787V15.7294ZM16.2787 7.71063H1.08529V4.75636C1.08529 4.05746 1.65082 3.49024 2.35141 3.49024H4.88364V4.75636C4.88364 4.86829 4.9281 4.97564 5.00725 5.05478C5.0864 5.13393 5.19375 5.1784 5.30568 5.1784C5.41761 5.1784 5.52496 5.13393 5.6041 5.05478C5.68325 4.97564 5.72772 4.86829 5.72772 4.75636V3.49024H11.6363V4.75636C11.6363 4.86829 11.6807 4.97564 11.7599 5.05478C11.839 5.13393 11.9464 5.1784 12.0583 5.1784C12.1702 5.1784 12.2776 5.13393 12.3567 5.05478C12.4359 4.97564 12.4803 4.86829 12.4803 4.75636V3.49024H15.0126C15.3484 3.49024 15.6704 3.62364 15.9079 3.86108C16.1453 4.09852 16.2787 4.42056 16.2787 4.75636V7.71063Z" fill="url(#paint0_linear_77_482)"/>
<defs>
<linearGradient id="paint0_linear_77_482" x1="0.241211" y1="17.8396" x2="15.1519" y2="-0.632826" gradientUnits="userSpaceOnUse">
<stop stop-color="#58ABF7"/>
<stop offset="0.213542" stop-color="#4079DB"/>
<stop offset="0.463542" stop-color="#826CDE"/>
<stop offset="0.713542" stop-color="#BB77C2"/>
<stop offset="1" stop-color="#FBDBAA"/>
</linearGradient>
</defs>
</svg>
