<svg width="23" height="23" viewBox="0 0 23 23" fill="none" xmlns="http://www.w3.org/2000/svg">
<path fill-rule="evenodd" clip-rule="evenodd" d="M7.11543 0.0935715C8.31201 0.0384863 8.69352 0.0262451 11.7416 0.0262451C14.7896 0.0262451 15.1711 0.0395064 16.3667 0.0935715C17.5622 0.147637 18.3783 0.338395 19.0924 0.614841C19.8401 0.897408 20.5185 1.33911 21.0795 1.91036C21.6508 2.4704 22.0915 3.14774 22.373 3.89649C22.6505 4.61056 22.8402 5.42664 22.8953 6.62015C22.9504 7.81877 22.9626 8.20028 22.9626 11.2473C22.9626 14.2954 22.9494 14.6769 22.8953 15.8735C22.8412 17.067 22.6505 17.883 22.373 18.5971C22.0915 19.346 21.6501 20.0244 21.0795 20.5853C20.5185 21.1565 19.8401 21.5972 19.0924 21.8788C18.3783 22.1562 17.5622 22.346 16.3687 22.4011C15.1711 22.4561 14.7896 22.4684 11.7416 22.4684C8.69352 22.4684 8.31201 22.4551 7.11543 22.4011C5.92192 22.347 5.10584 22.1562 4.39178 21.8788C3.64294 21.5972 2.96448 21.1558 2.40361 20.5853C1.83274 20.0249 1.39097 19.3468 1.1091 18.5981C0.832657 17.8841 0.642919 17.068 0.587834 15.8745C0.532749 14.6759 0.520508 14.2943 0.520508 11.2473C0.520508 8.19926 0.533769 7.81775 0.587834 6.62219C0.641899 5.42664 0.832657 4.61056 1.1091 3.89649C1.39139 3.14782 1.83349 2.4697 2.40463 1.90934C2.9647 1.3386 3.64249 0.89684 4.39076 0.614841C5.10482 0.338395 5.9209 0.148657 7.11441 0.0935715H7.11543ZM16.2759 2.11336C15.0926 2.0593 14.7376 2.04808 11.7416 2.04808C8.74555 2.04808 8.39056 2.0593 7.20724 2.11336C6.11268 2.16335 5.51898 2.34595 5.12319 2.49998C4.59988 2.704 4.2255 2.94576 3.83276 3.3385C3.46047 3.70069 3.17396 4.1416 2.99424 4.62892C2.84021 5.02472 2.65761 5.61842 2.60763 6.71298C2.55356 7.89629 2.54234 8.25129 2.54234 11.2473C2.54234 14.2433 2.55356 14.5983 2.60763 15.7816C2.65761 16.8762 2.84021 17.4699 2.99424 17.8657C3.17378 18.3523 3.46043 18.794 3.83276 19.1561C4.1949 19.5285 4.6366 19.8151 5.12319 19.9946C5.51898 20.1487 6.11268 20.3313 7.20724 20.3813C8.39056 20.4353 8.74453 20.4465 11.7416 20.4465C14.7386 20.4465 15.0926 20.4353 16.2759 20.3813C17.3705 20.3313 17.9642 20.1487 18.36 19.9946C18.8833 19.7906 19.2576 19.5489 19.6504 19.1561C20.0227 18.794 20.3094 18.3523 20.4889 17.8657C20.6429 17.4699 20.8255 16.8762 20.8755 15.7816C20.9296 14.5983 20.9408 14.2433 20.9408 11.2473C20.9408 8.25129 20.9296 7.89629 20.8755 6.71298C20.8255 5.61842 20.6429 5.02472 20.4889 4.62892C20.2849 4.10561 20.0431 3.73124 19.6504 3.3385C19.2882 2.96624 18.8473 2.67973 18.36 2.49998C17.9642 2.34595 17.3705 2.16335 16.2759 2.11336ZM10.3083 14.7065C11.1088 15.0397 12 15.0846 12.8299 14.8337C13.6598 14.5828 14.3769 14.0515 14.8586 13.3306C15.3403 12.6097 15.5568 11.744 15.4711 10.8812C15.3854 10.0184 15.0028 9.21219 14.3887 8.60016C13.9972 8.20893 13.5239 7.90936 13.0028 7.72303C12.4816 7.53669 11.9256 7.46822 11.3748 7.52255C10.8241 7.57687 10.2922 7.75264 9.81747 8.0372C9.34277 8.32176 8.93707 8.70803 8.62957 9.1682C8.32207 9.62837 8.12042 10.151 8.03915 10.6985C7.95787 11.2459 7.99899 11.8046 8.15954 12.3342C8.3201 12.8639 8.59609 13.3514 8.96765 13.7616C9.33921 14.1718 9.79709 14.4945 10.3083 14.7065ZM7.66323 7.16896C8.1988 6.63339 8.83462 6.20855 9.53439 5.91869C10.2342 5.62884 10.9842 5.47966 11.7416 5.47966C12.499 5.47966 13.249 5.62884 13.9488 5.91869C14.6485 6.20854 15.2843 6.63339 15.8199 7.16896C16.3555 7.70454 16.7803 8.34036 17.0702 9.04012C17.36 9.73989 17.5092 10.4899 17.5092 11.2473C17.5092 12.0047 17.36 12.7547 17.0702 13.4545C16.7803 14.1543 16.3555 14.7901 15.8199 15.3257C14.7383 16.4073 13.2713 17.015 11.7416 17.015C10.2119 17.015 8.74487 16.4073 7.66323 15.3257C6.58158 14.244 5.97392 12.777 5.97392 11.2473C5.97392 9.71763 6.58158 8.25061 7.66323 7.16896ZM18.7884 6.3386C18.9211 6.21341 19.0274 6.06285 19.1009 5.89586C19.1744 5.72886 19.2136 5.54881 19.2162 5.36638C19.2189 5.18395 19.1849 5.00284 19.1163 4.83377C19.0478 4.6647 18.9459 4.51111 18.8169 4.3821C18.6879 4.25309 18.5343 4.15127 18.3653 4.08268C18.1962 4.01409 18.0151 3.98012 17.8326 3.98278C17.6502 3.98544 17.4702 4.02467 17.3032 4.09816C17.1362 4.17165 16.9856 4.2779 16.8604 4.41062C16.6169 4.66874 16.4836 5.01158 16.4888 5.36638C16.494 5.72118 16.6372 6.05999 16.8881 6.3109C17.139 6.56181 17.4778 6.70505 17.8326 6.71023C18.1874 6.7154 18.5303 6.58209 18.7884 6.3386Z" fill="url(#paint0_linear_77_272)"/>
<defs>
<linearGradient id="paint0_linear_77_272" x1="27.5021" y1="-5.8579" x2="1.32093" y2="19.1673" gradientUnits="userSpaceOnUse">
<stop stop-color="#5E54F2"/>
<stop offset="1" stop-color="#58ABF7"/>
</linearGradient>
</defs>
</svg>
