<svg width="156" height="2345" viewBox="0 0 156 2345" fill="none" xmlns="http://www.w3.org/2000/svg">
<g opacity="0.5" filter="url(#filter0_f_205_250)">
<path d="M-408.587 137.537C-366.041 317.788 -235.029 434.551 -115.964 398.334C3.10177 362.117 65.1332 186.635 22.5872 6.38423C-19.9587 -173.867 -150.971 -290.63 -270.036 -254.413C-389.102 -218.196 -451.133 -42.7139 -408.587 137.537Z" fill="url(#paint0_linear_205_250)"/>
<path d="M35.7409 396.921C35.7409 254.432 -64.1485 138.921 -187.368 138.921C-310.588 138.921 -410.478 254.432 -410.478 396.921C-410.478 539.411 -310.588 654.921 -187.368 654.921C-64.1485 654.921 35.7409 539.411 35.7409 396.921Z" fill="url(#paint1_linear_205_250)"/>
</g>
<g opacity="0.5" filter="url(#filter1_f_205_250)">
<path d="M-408.587 1707.54C-366.041 1887.79 -235.029 2004.55 -115.964 1968.33C3.10177 1932.12 65.1332 1756.64 22.5872 1576.38C-19.9587 1396.13 -150.971 1279.37 -270.036 1315.59C-389.102 1351.8 -451.133 1527.29 -408.587 1707.54Z" fill="url(#paint2_linear_205_250)"/>
<path d="M35.7409 1966.92C35.7409 1824.43 -64.1485 1708.92 -187.368 1708.92C-310.588 1708.92 -410.478 1824.43 -410.478 1966.92C-410.478 2109.41 -310.588 2224.92 -187.368 2224.92C-64.1485 2224.92 35.7409 2109.41 35.7409 1966.92Z" fill="url(#paint3_linear_205_250)"/>
</g>
<defs>
<filter id="filter0_f_205_250" x="-542" y="-381" width="698" height="1155.92" filterUnits="userSpaceOnUse" color-interpolation-filters="sRGB">
<feFlood flood-opacity="0" result="BackgroundImageFix"/>
<feBlend mode="normal" in="SourceGraphic" in2="BackgroundImageFix" result="shape"/>
<feGaussianBlur stdDeviation="60" result="effect1_foregroundBlur_205_250"/>
</filter>
<filter id="filter1_f_205_250" x="-542" y="1189" width="698" height="1155.92" filterUnits="userSpaceOnUse" color-interpolation-filters="sRGB">
<feFlood flood-opacity="0" result="BackgroundImageFix"/>
<feBlend mode="normal" in="SourceGraphic" in2="BackgroundImageFix" result="shape"/>
<feGaussianBlur stdDeviation="60" result="effect1_foregroundBlur_205_250"/>
</filter>
<linearGradient id="paint0_linear_205_250" x1="36" y1="404.921" x2="-596.695" y2="53.6745" gradientUnits="userSpaceOnUse">
<stop stop-color="#58ABF7"/>
<stop offset="0.213542" stop-color="#4079DB"/>
<stop offset="0.463542" stop-color="#826CDE"/>
<stop offset="0.713542" stop-color="#BB77C2"/>
<stop offset="1" stop-color="#FBDBAA"/>
</linearGradient>
<linearGradient id="paint1_linear_205_250" x1="-147.483" y1="619.921" x2="-259.787" y2="231.559" gradientUnits="userSpaceOnUse">
<stop stop-color="#FFC83A"/>
<stop offset="0.504191" stop-color="#AA73CA"/>
<stop offset="1" stop-color="#6100FF"/>
</linearGradient>
<linearGradient id="paint2_linear_205_250" x1="36" y1="1974.92" x2="-596.695" y2="1623.67" gradientUnits="userSpaceOnUse">
<stop stop-color="#58ABF7"/>
<stop offset="0.213542" stop-color="#4079DB"/>
<stop offset="0.463542" stop-color="#826CDE"/>
<stop offset="0.713542" stop-color="#BB77C2"/>
<stop offset="1" stop-color="#FBDBAA"/>
</linearGradient>
<linearGradient id="paint3_linear_205_250" x1="-147.483" y1="2189.92" x2="-259.787" y2="1801.56" gradientUnits="userSpaceOnUse">
<stop stop-color="#FFC83A"/>
<stop offset="0.504191" stop-color="#AA73CA"/>
<stop offset="1" stop-color="#6100FF"/>
</linearGradient>
</defs>
</svg>
