<svg width="16" height="28" viewBox="0 0 16 28" fill="none" xmlns="http://www.w3.org/2000/svg">
<path d="M0.809758 3.19024C0.152407 2.53289 0.152407 1.46711 0.809758 0.809757C1.46711 0.152405 2.53289 0.152405 3.19024 0.809758L0.809758 3.19024ZM12.9001 12.9001L14.0903 11.7098L14.0903 11.7098L12.9001 12.9001ZM12.9001 15.0999L11.7098 13.9097L11.7098 13.9097L12.9001 15.0999ZM3.19024 27.1902C2.53289 27.8476 1.46711 27.8476 0.809756 27.1902C0.152405 26.5329 0.152405 25.4671 0.809756 24.8098L3.19024 27.1902ZM3.19024 0.809758L14.0903 11.7098L11.7098 14.0903L0.809758 3.19024L3.19024 0.809758ZM14.0903 16.2902L3.19024 27.1902L0.809756 24.8098L11.7098 13.9097L14.0903 16.2902ZM14.0903 11.7098C15.3551 12.9746 15.3551 15.0254 14.0903 16.2902L11.7098 13.9097C11.6599 13.9596 11.6599 14.0404 11.7098 14.0903L14.0903 11.7098Z" fill="url(#paint0_linear_84_542)"/>
<defs>
<linearGradient id="paint0_linear_84_542" x1="14" y1="26" x2="-5.41638" y2="13.9729" gradientUnits="userSpaceOnUse">
<stop stop-color="#58ABF7"/>
<stop offset="0.213542" stop-color="#4079DB"/>
<stop offset="0.463542" stop-color="#826CDE"/>
<stop offset="0.713542" stop-color="#BB77C2"/>
<stop offset="1" stop-color="#FBDBAA"/>
</linearGradient>
</defs>
</svg>
