<svg width="25" height="28" viewBox="0 0 25 28" fill="none" xmlns="http://www.w3.org/2000/svg">
<path d="M6.75 6.75L12.5 6.75M6.75 18.25H11.0625M6.75 12.5L15.375 12.5M21.125 12.5V9.625C21.125 5.55914 21.125 3.5262 19.8619 2.2631C18.5988 1 16.5659 1 12.5 1H9.625C5.55914 1 3.5262 1 2.2631 2.2631C1 3.5262 1 5.55914 1 9.625V18.25C1 22.3159 1 24.3488 2.2631 25.6119C3.5262 26.875 5.55914 26.875 9.625 26.875H11.0625M24 26.875L21.8438 24.7188M22.5625 21.8438C22.5625 23.8285 20.9535 25.4375 18.9688 25.4375C16.984 25.4375 15.375 23.8285 15.375 21.8438C15.375 19.859 16.984 18.25 18.9688 18.25C20.9535 18.25 22.5625 19.859 22.5625 21.8438Z" stroke="white" stroke-linecap="round"/>
</svg>
