<svg enable-background="new 0 0 155.35 155.354" height="155.354" id="Layer_1" overflow="visible" version="1.1" viewBox="0 0 155.35 155.354" width="155.35" xml:space="preserve" xmlns="http://www.w3.org/2000/svg" xmlns:xlink="http://www.w3.org/1999/xlink">
    <path d="M77.675,0c42.899,0,77.675,34.776,77.675,77.675c0,42.896-34.775,77.678-77.675,77.678S0,120.571,0,77.675   C0,34.776,34.776,0,77.675,0z"  fill="url('#myGradient')"/><path d="M47.209,91.788c3.572,0,6.799-1.331,9.337-3.476l29.542,14.771c-0.027,0.283-0.09,0.538-0.09,0.827   c0,8.048,6.503,14.564,14.55,14.564c8.034,0,14.551-6.517,14.551-14.564c0-8.033-6.517-14.543-14.551-14.543   c-3.578,0-6.806,1.331-9.337,3.482L61.677,78.075c0.014-0.279,0.069-0.542,0.069-0.824c0-0.286-0.062-0.555-0.069-0.838   l29.535-14.778c2.531,2.141,5.759,3.486,9.337,3.486c8.034,0,14.551-6.51,14.551-14.554c0-8.03-6.517-14.536-14.551-14.536   c-8.047,0-14.55,6.506-14.55,14.54c0,0.29,0.063,0.555,0.09,0.834L56.546,66.173c-2.538-2.138-5.765-3.482-9.337-3.482   c-8.041,0-14.55,6.517-14.55,14.561C32.659,85.285,39.168,91.788,47.209,91.788z" fill="#FFFFFF"/>

    <defs>
    <linearGradient id="myGradient" gradientTransform="rotate(90)">
      <stop offset="5%"  stop-color="#58ABF7" />
      <stop offset="12%" stop-color="#4079DB" />
      <stop offset="46%" stop-color="#826CDE" />
      <stop offset="71%" stop-color="#BB77C2" />
      <stop offset="100%" stop-color="#FBDBAA" />
    </linearGradient>
  </defs>
</svg>