<svg width="236" height="23" viewBox="0 0 236 23" fill="none" xmlns="http://www.w3.org/2000/svg">
<path fill-rule="evenodd" clip-rule="evenodd" d="M142.408 11.1247C142.408 15.3308 141.521 17.1085 137.102 17.1085C132.697 17.1085 131.817 15.3308 131.817 11.1457C131.817 6.95348 132.69 5.16183 137.102 5.16183C141.521 5.16183 142.408 6.91149 142.408 11.1247ZM139.987 11.1247C139.987 8.46519 139.994 7.26841 137.102 7.26841C134.217 7.26841 134.238 8.47218 134.238 11.1247C134.238 13.7702 134.217 15.0019 137.102 15.0019C140.008 15.0019 139.987 13.8121 139.987 11.1247ZM218.541 7.45038V13.6582C218.541 14.8409 219.062 14.9599 220.258 14.9599C221.462 14.9599 221.905 14.8549 221.905 13.6582V13.3852H224.22C224.206 14.4 224.101 15.6248 223.439 16.2967C222.764 16.9895 221.145 17.0595 220.23 17.0595C217.676 17.0595 216.106 16.2337 216.106 13.6512C216.106 7.82831 216.106 6.98847 216.106 2.7263H218.534V5.34379H223.594V7.45038H218.541ZM212.898 5.35079V16.9055H210.47V5.35079H212.898ZM212.898 0.717688V3.2512H210.47V0.717688H212.898ZM199.942 5.88968C200.766 5.23181 201.871 5.16183 203.018 5.16183C206.283 5.16183 207.5 6.21862 207.5 9.51498V16.8985H205.072V9.20704C205.072 7.43638 204.517 7.26142 202.849 7.26142C200.365 7.26142 199.942 7.98927 199.942 10.3548V16.8915H197.522V5.33679H199.95V5.88968H199.942ZM192.138 16.1287C191.238 16.9265 190.154 17.0875 188.796 17.0875C186.044 17.0875 184.644 16.1567 184.644 13.2872V5.35079H187.072V12.8953C187.072 14.603 187.417 14.9809 189.148 14.9809C191.449 14.9809 192.012 14.351 192.012 12.0905V5.34379H194.439V16.8985H192.138V16.1287ZM3.39132 12.3774C3.39835 13.0703 3.44762 13.9871 3.8417 14.407C4.48207 15.0859 6.52281 15.0929 7.66984 15.0929C8.78873 15.0929 11.0828 15.0299 11.6598 14.2041C12.0891 13.5952 12.1384 11.5236 11.6739 10.9217C11.0617 10.1239 8.61279 10.2148 7.69797 10.1589C3.79242 9.9139 1.03393 9.50798 1.03393 5.47676C1.03393 1.54353 3.96133 0.794674 7.66984 0.794674C9.13354 0.794674 11.4839 0.836666 12.6661 1.82347C13.6654 2.65631 13.9398 3.97206 13.9891 5.21782H11.505C11.4839 4.70692 11.4065 4.11902 11.1109 3.75509C10.5409 3.06223 9.50647 2.85227 7.85277 2.85227C5.47425 2.85227 3.52502 2.80329 3.52502 5.37179C3.52502 6.62454 3.89094 7.12844 5.14353 7.43638C6.07242 7.66034 7.61351 7.72332 8.56351 7.77232C11.8146 7.94028 14.4817 8.72413 14.4817 12.3354C14.4817 13.5882 14.3269 15.0159 13.4191 15.9677C12.2157 17.2345 9.30243 17.3045 7.66984 17.3045C4.06688 17.3045 0.907227 17.0105 0.907227 12.7204V12.3774H3.39132ZM19.5272 9.73194H19.6117L23.5242 5.34379H26.5642L21.5961 10.6838L27.4228 16.8915H24.2139L19.6187 11.8245H19.5343V16.8915H17.1065V0.710693H19.5343V9.73194H19.5272ZM35.9586 16.1357C35.0649 16.9265 33.9813 17.0875 32.6301 17.0875C29.8787 17.0875 28.4783 16.1567 28.4783 13.2872V5.35079H30.9061V12.8953C30.9061 14.603 31.2509 14.9809 32.982 14.9809C35.2831 14.9809 35.8461 14.351 35.8461 12.0905V5.34379H38.2739V18.2563C38.2739 21.1257 36.8735 22.6934 34.122 22.6934C33.5942 22.6934 33.2776 22.6934 32.7779 22.6934C30.1672 22.6934 28.7739 21.8536 28.6402 19.3201H31.0961C31.2298 20.3419 31.7153 20.5938 33.1298 20.5938C33.3479 20.5938 33.5168 20.5938 33.7772 20.5938C35.5153 20.5938 35.9727 19.9989 35.9727 18.2913V16.1357H35.9586ZM57.0205 3.99306L53.129 16.8985H49.9694L44.952 0.717688H47.5838L51.5175 13.8401L55.4301 0.717688H58.5897L62.4531 13.8471L66.5064 0.717688H69.1594L64.0083 16.8985H60.7853L57.0205 3.99306ZM79.7571 11.1247C79.7571 15.3308 78.8704 17.1085 74.4512 17.1085C70.046 17.1085 69.1664 15.3308 69.1664 11.1457C69.1664 6.95348 70.039 5.16183 74.4512 5.16183C78.8704 5.16183 79.7571 6.91149 79.7571 11.1247ZM77.3293 11.1247C77.3293 8.46519 77.3364 7.26841 74.4441 7.26841C71.559 7.26841 71.5801 8.47218 71.5801 11.1247C71.5801 13.7702 71.559 15.0019 74.4441 15.0019C77.3575 15.0019 77.3293 13.8121 77.3293 11.1247ZM84.4579 6.12064C85.3586 5.32279 86.013 5.16183 87.3711 5.16183C90.1226 5.16183 91.0234 6.09264 91.0234 8.96208V9.08806H88.6026C88.6097 7.60435 88.4338 7.16344 87.0475 7.17744C84.7464 7.17744 84.5845 7.89829 84.5845 10.1589V16.9055H82.1567V5.35079H84.4579V6.12064ZM95.2878 0.717688V16.8985H92.8601V0.717688H95.2878ZM105.463 5.97367V0.717688H107.891V16.8985H105.491L105.52 16.2407C104.717 16.9545 103.817 17.0595 102.48 17.0595C101.129 17.0595 99.6437 16.8286 98.7289 15.7438C97.7297 14.561 97.6875 12.6294 97.6875 11.1597C97.6875 9.64795 97.7367 7.68134 98.75 6.46357C99.6226 5.40678 100.988 5.14083 102.297 5.14083C103.387 5.14083 104.584 5.23881 105.463 5.97367ZM102.705 7.24742C102.057 7.24742 101.072 7.28941 100.608 7.8283C100.34 8.13624 100.242 8.59815 100.186 8.99708C100.094 9.68294 100.108 10.4248 100.108 11.1107C100.108 11.9575 100.038 13.6792 100.622 14.365C101.1 14.9179 102.086 14.9739 102.761 14.9739C103.437 14.9739 104.295 14.9039 104.788 14.393C105.477 13.6862 105.463 12.0345 105.463 11.1177C105.463 10.2078 105.484 8.55616 104.802 7.8563C104.295 7.3174 103.387 7.24742 102.705 7.24742ZM130.135 12.3354C130.065 13.5042 129.804 14.9039 129.03 15.7718C127.771 17.1785 125.076 17.2975 123.323 17.2975C121.789 17.2975 119.432 17.1925 118.186 16.1847C116.314 14.666 116.265 11.3696 116.265 9.16505C116.265 6.93948 116.329 3.46815 118.207 1.92145C119.453 0.899654 121.782 0.780673 123.323 0.780673C125.061 0.780673 127.7 0.913654 128.89 2.38337C129.621 3.30019 129.818 4.59494 129.91 5.76371H127.44C127.356 5.07784 127.208 4.23801 126.8 3.78309C126.138 3.04824 124.217 3.04824 123.323 3.04824C122.416 3.04824 120.776 3.10423 120.037 3.69911C118.777 4.71392 118.806 7.61835 118.806 9.08806C118.806 10.5228 118.763 13.3922 119.995 14.386C120.734 14.9809 122.416 15.0229 123.323 15.0229C124.301 15.0229 126.37 15.0229 127.095 14.2321C127.475 13.8191 127.637 12.9723 127.686 12.3284H130.135V12.3354ZM153.773 6.60354C154.659 5.53275 155.982 5.14783 157.418 5.14783C160.437 5.14783 161.696 6.37259 161.696 9.382V16.9055H159.268V9.27703C159.268 7.61835 158.874 7.25441 157.214 7.25441C155.637 7.25441 154.434 7.66734 154.434 9.382V16.9055H152.006V9.403C152.006 7.60435 151.668 7.25441 149.846 7.25441C147.594 7.25441 147.165 8.24123 147.165 10.3268V16.9055H144.744V5.35079H147.172V6.14163C148.002 5.42077 149.086 5.14083 150.268 5.14083C151.584 5.14083 153.041 5.48376 153.773 6.60354ZM233.692 16.1357C232.798 16.9265 231.715 17.0875 230.356 17.0875C227.605 17.0875 226.205 16.1567 226.205 13.2872V5.35079H228.632V12.8953C228.632 14.603 228.977 14.9809 230.708 14.9809C233.009 14.9809 233.572 14.351 233.572 12.0905V5.34379H236V18.2563C236 21.1257 234.6 22.6934 231.848 22.6934C231.321 22.6934 231.004 22.6934 230.497 22.6934C227.886 22.6934 226.493 21.8536 226.359 19.3201H228.815C228.949 20.3419 229.435 20.5938 230.856 20.5938C231.074 20.5938 231.243 20.5938 231.503 20.5938C233.242 20.5938 233.699 19.9989 233.699 18.2913V16.1357H233.692ZM173.828 6.60354C174.715 5.53275 176.038 5.14783 177.473 5.14783C180.492 5.14783 181.752 6.37259 181.752 9.382V16.9055H179.324V9.27703C179.324 7.61835 178.93 7.25441 177.269 7.25441C175.693 7.25441 174.49 7.66734 174.49 9.382V16.9055H172.062V9.403C172.062 7.60435 171.724 7.25441 169.901 7.25441C167.65 7.25441 167.22 8.24123 167.22 10.3268V16.9055H164.793V5.35079H167.22V6.14163C168.051 5.42077 169.134 5.14083 170.31 5.14083C171.64 5.14083 173.089 5.48376 173.828 6.60354Z" fill="url(#paint0_linear_165_3098)"/>
<defs>
<linearGradient id="paint0_linear_165_3098" x1="13.7638" y1="29.1499" x2="19.5075" y2="-25.8611" gradientUnits="userSpaceOnUse">
<stop stop-color="#5E54F2"/>
<stop offset="1" stop-color="#58ABF7"/>
</linearGradient>
</defs>
</svg>
