<svg width="216" height="21" viewBox="0 0 216 21" fill="none" xmlns="http://www.w3.org/2000/svg">
<path fill-rule="evenodd" clip-rule="evenodd" d="M129.776 10.1575C129.776 13.9957 128.967 15.6179 124.935 15.6179C120.915 15.6179 120.112 13.9957 120.112 10.1767C120.112 6.35122 120.909 4.71629 124.935 4.71629C128.967 4.71629 129.776 6.3129 129.776 10.1575ZM127.568 10.1575C127.568 7.73068 127.574 6.6386 124.935 6.6386C122.302 6.6386 122.321 7.73707 122.321 10.1575C122.321 12.5716 122.302 13.6956 124.935 13.6956C127.587 13.6956 127.568 12.6099 127.568 10.1575ZM199.25 6.80465V12.4694C199.25 13.5487 199.725 13.6573 200.817 13.6573C201.915 13.6573 202.319 13.5615 202.319 12.4694V12.2203H204.432C204.419 13.1463 204.323 14.264 203.719 14.8771C203.103 15.5093 201.626 15.5732 200.791 15.5732C198.46 15.5732 197.028 14.8196 197.028 12.463C197.028 7.14952 197.028 6.38315 197.028 2.49383H199.244V4.88234H203.861V6.80465H199.25ZM194.1 4.88873V15.4327H191.885V4.88873H194.1ZM194.1 0.660924V2.97281H191.885V0.660924H194.1ZM182.278 5.38048C183.029 4.78015 184.038 4.71629 185.084 4.71629C188.064 4.71629 189.175 5.68064 189.175 8.68864V15.4263H186.959V8.40763C186.959 6.79187 186.452 6.63222 184.93 6.63222C182.663 6.63222 182.278 7.2964 182.278 9.455V15.4199H180.069V4.87595H182.285V5.38048H182.278ZM175.157 14.7238C174.335 15.4518 173.346 15.5987 172.107 15.5987C169.596 15.5987 168.318 14.7493 168.318 12.1309V4.88873H170.533V11.7733C170.533 13.3316 170.848 13.6764 172.428 13.6764C174.527 13.6764 175.041 13.1016 175.041 11.0388V4.88234H177.257V15.4263H175.157V14.7238ZM2.92108 11.3007C2.9275 11.9329 2.97246 12.7695 3.33206 13.1527C3.91641 13.7722 5.77863 13.7786 6.82533 13.7786C7.84633 13.7786 9.93971 13.7211 10.4663 12.9675C10.858 12.4119 10.9029 10.5215 10.4791 9.9723C9.92046 9.24425 7.68578 9.32728 6.851 9.27619C3.2871 9.05266 0.769917 8.68225 0.769917 5.00368C0.769917 1.41452 3.44123 0.731175 6.82533 0.731175C8.16098 0.731175 10.3057 0.769494 11.3845 1.66998C12.2964 2.42996 12.5468 3.63061 12.5918 4.76739H10.325C10.3057 4.30118 10.2351 3.76471 9.96538 3.43262C9.44524 2.80037 8.50129 2.60878 6.99225 2.60878C4.8218 2.60878 3.04309 2.56408 3.04309 4.90789C3.04309 6.05105 3.377 6.51087 4.52001 6.79188C5.36764 6.99624 6.77393 7.05372 7.64082 7.09842C10.6075 7.25169 13.0413 7.96697 13.0413 11.2624C13.0413 12.4055 12.9 13.7084 12.0716 14.5769C10.9736 15.7328 8.3151 15.7967 6.82533 15.7967C3.53755 15.7967 0.654297 15.5285 0.654297 11.6136V11.3007H2.92108ZM17.6454 8.88661H17.7225L21.2928 4.88234H24.0669L19.5333 9.75517L24.8503 15.4199H21.9221L17.7289 10.7962H17.6519V15.4199H15.4365V0.654541H17.6519V8.88661H17.6454ZM32.6395 14.7302C31.8239 15.4518 30.835 15.5987 29.6021 15.5987C27.0914 15.5987 25.8135 14.7493 25.8135 12.1309V4.88873H28.0289V11.7733C28.0289 13.3316 28.3435 13.6764 29.9232 13.6764C32.023 13.6764 32.5367 13.1016 32.5367 11.0388V4.88234H34.7521V16.6652C34.7521 19.2837 33.4743 20.7142 30.9635 20.7142C30.4819 20.7142 30.1929 20.7142 29.737 20.7142C27.3546 20.7142 26.0832 19.9479 25.9612 17.636H28.2023C28.3243 18.5684 28.7674 18.7983 30.0581 18.7983C30.2571 18.7983 30.4112 18.7983 30.6488 18.7983C32.2349 18.7983 32.6523 18.2555 32.6523 16.6972V14.7302H32.6395ZM51.8588 3.64977L48.3078 15.4263H45.4246L40.8461 0.660924H43.2477L46.8373 12.6354L50.4076 0.660924H53.2908L56.8162 12.6418L60.5149 0.660924H62.9358L58.2353 15.4263H55.2943L51.8588 3.64977ZM72.6065 10.1575C72.6065 13.9957 71.7974 15.6179 67.7647 15.6179C63.7449 15.6179 62.9422 13.9957 62.9422 10.1767C62.9422 6.35122 63.7385 4.71629 67.7647 4.71629C71.7974 4.71629 72.6065 6.3129 72.6065 10.1575ZM70.3911 10.1575C70.3911 7.73068 70.3975 6.6386 67.7583 6.6386C65.1255 6.6386 65.1448 7.73707 65.1448 10.1575C65.1448 12.5716 65.1255 13.6956 67.7583 13.6956C70.4168 13.6956 70.3911 12.6099 70.3911 10.1575ZM76.896 5.59123C77.718 4.86318 78.3151 4.71629 79.5545 4.71629C82.0652 4.71629 82.8872 5.56568 82.8872 8.18411V8.29907H80.6782C80.6846 6.94515 80.5241 6.54281 79.2591 6.55558C77.1593 6.55558 77.0116 7.21338 77.0116 9.27619V15.4327H74.7962V4.88873H76.896V5.59123ZM86.7786 0.660924V15.4263H84.5632V0.660924H86.7786ZM96.064 5.45712V0.660924H98.2794V15.4263H96.0896L96.1154 14.826C95.3833 15.4774 94.5614 15.5732 93.3413 15.5732C92.1084 15.5732 90.7534 15.3624 89.9187 14.3725C89.0068 13.2932 88.9683 11.5306 88.9683 10.1894C88.9683 8.80997 89.0133 7.0154 89.9379 5.90417C90.7342 4.93982 91.9799 4.69714 93.1743 4.69714C94.1696 4.69714 95.2613 4.78655 96.064 5.45712ZM93.5468 6.61944C92.956 6.61944 92.057 6.65776 91.6332 7.14951C91.3892 7.43051 91.2993 7.85202 91.2479 8.21604C91.1644 8.84191 91.1773 9.51887 91.1773 10.1447C91.1773 10.9175 91.113 12.4885 91.646 13.1144C92.0827 13.6189 92.9817 13.67 93.5982 13.67C94.2146 13.67 94.998 13.6062 95.4475 13.14C96.0768 12.4949 96.064 10.9877 96.064 10.1511C96.064 9.32089 96.0832 7.81369 95.4604 7.17505C94.998 6.6833 94.1697 6.61944 93.5468 6.61944ZM118.578 11.2624C118.513 12.3289 118.276 13.6062 117.569 14.3981C116.42 15.6818 113.961 15.7903 112.362 15.7903C110.962 15.7903 108.811 15.6945 107.674 14.7749C105.966 13.389 105.921 10.381 105.921 8.36932C105.921 6.33844 105.979 3.17078 107.693 1.75939C108.83 0.826971 110.955 0.718399 112.362 0.718399C113.948 0.718399 116.356 0.839746 117.441 2.18089C118.109 3.01751 118.289 4.199 118.372 5.26553H116.118C116.041 4.63966 115.906 3.87329 115.534 3.45817C114.93 2.7876 113.177 2.7876 112.362 2.7876C111.533 2.7876 110.037 2.83869 109.363 3.38154C108.213 4.30757 108.239 6.95792 108.239 8.29907C108.239 9.60828 108.2 12.2267 109.324 13.1336C109.998 13.6764 111.533 13.7147 112.362 13.7147C113.254 13.7147 115.142 13.7147 115.803 12.9931C116.15 12.6163 116.298 11.8435 116.343 11.256H118.578V11.2624ZM140.147 6.03189C140.956 5.05477 142.163 4.70352 143.473 4.70352C146.228 4.70352 147.378 5.82114 147.378 8.56729V15.4327H145.162V8.4715C145.162 6.95793 144.803 6.62582 143.287 6.62582C141.849 6.62582 140.751 7.00263 140.751 8.56729V15.4327H138.535V8.58645C138.535 6.94515 138.227 6.62582 136.564 6.62582C134.509 6.62582 134.117 7.52631 134.117 9.42946V15.4327H131.908V4.88873H134.124V5.61039C134.882 4.95259 135.87 4.69714 136.949 4.69714C138.15 4.69714 139.479 5.01007 140.147 6.03189ZM213.075 14.7302C212.26 15.4518 211.271 15.5987 210.032 15.5987C207.521 15.5987 206.243 14.7493 206.243 12.1309V4.88873H208.458V11.7733C208.458 13.3316 208.773 13.6764 210.353 13.6764C212.452 13.6764 212.966 13.1016 212.966 11.0388V4.88234H215.182V16.6652C215.182 19.2837 213.904 20.7142 211.393 20.7142C210.911 20.7142 210.622 20.7142 210.16 20.7142C207.778 20.7142 206.506 19.9479 206.384 17.636H208.625C208.747 18.5684 209.19 18.7983 210.488 18.7983C210.687 18.7983 210.841 18.7983 211.078 18.7983C212.664 18.7983 213.082 18.2555 213.082 16.6972V14.7302H213.075ZM158.448 6.03189C159.257 5.05477 160.465 4.70352 161.775 4.70352C164.529 4.70352 165.679 5.82114 165.679 8.56729V15.4327H163.463V8.4715C163.463 6.95793 163.104 6.62582 161.588 6.62582C160.15 6.62582 159.052 7.00263 159.052 8.56729V15.4327H156.836V8.58645C156.836 6.94515 156.528 6.62582 154.865 6.62582C152.81 6.62582 152.418 7.52631 152.418 9.42946V15.4327H150.203V4.88873H152.418V5.61039C153.176 4.95259 154.165 4.69714 155.238 4.69714C156.451 4.69714 157.774 5.01007 158.448 6.03189Z" fill="url(#paint0_linear_34_87)"/>
<defs>
<linearGradient id="paint0_linear_34_87" x1="12.3862" y1="26.6059" x2="17.6275" y2="-23.5927" gradientUnits="userSpaceOnUse">
<stop stop-color="#5E54F2"/>
<stop offset="1" stop-color="#58ABF7"/>
</linearGradient>
</defs>
</svg>
