<svg width="1095" height="135" viewBox="0 0 1095 135" fill="none" xmlns="http://www.w3.org/2000/svg">
<g opacity="0.5" filter="url(#filter0_f_13_5224)">
<path d="M603.361 -399.495C435.311 -359.829 326.451 -237.685 360.217 -126.678C393.982 -15.6715 557.586 42.1613 725.637 2.49512C893.688 -37.1711 1002.55 -159.315 968.782 -270.322C935.016 -381.329 771.412 -439.161 603.361 -399.495Z" fill="url(#paint0_linear_13_5224)"/>
<path d="M361.534 14.7586C494.379 14.7586 602.071 -78.3698 602.071 -193.249C602.071 -308.129 494.379 -401.257 361.534 -401.257C228.689 -401.257 120.997 -308.129 120.997 -193.249C120.997 -78.3698 228.689 14.7586 361.534 14.7586Z" fill="url(#paint1_linear_13_5224)"/>
</g>
<defs>
<filter id="filter0_f_13_5224" x="0.99707" y="-532" width="1093.93" height="667" filterUnits="userSpaceOnUse" color-interpolation-filters="sRGB">
<feFlood flood-opacity="0" result="BackgroundImageFix"/>
<feBlend mode="normal" in="SourceGraphic" in2="BackgroundImageFix" result="shape"/>
<feGaussianBlur stdDeviation="60" result="effect1_foregroundBlur_13_5224"/>
</filter>
<linearGradient id="paint0_linear_13_5224" x1="354.075" y1="15" x2="681.548" y2="-574.87" gradientUnits="userSpaceOnUse">
<stop stop-color="#58ABF7"/>
<stop offset="0.213542" stop-color="#4079DB"/>
<stop offset="0.463542" stop-color="#826CDE"/>
<stop offset="0.713542" stop-color="#BB77C2"/>
<stop offset="1" stop-color="#FBDBAA"/>
</linearGradient>
<linearGradient id="paint1_linear_13_5224" x1="153.628" y1="-156.064" x2="515.703" y2="-260.767" gradientUnits="userSpaceOnUse">
<stop stop-color="#FFC83A"/>
<stop offset="0.504191" stop-color="#AA73CA"/>
<stop offset="1" stop-color="#6100FF"/>
</linearGradient>
</defs>
</svg>
