<svg width="20" height="20" viewBox="0 0 20 20" fill="none" xmlns="http://www.w3.org/2000/svg">
<path d="M13 13V12H12V13H13ZM18.2929 19.7071C18.6834 20.0976 19.3166 20.0976 19.7071 19.7071C20.0976 19.3166 20.0976 18.6834 19.7071 18.2929L18.2929 19.7071ZM13 7H12V8H13V7ZM19.7071 1.70711C20.0976 1.31658 20.0976 0.683417 19.7071 0.292893C19.3166 -0.0976311 18.6834 -0.0976311 18.2929 0.292893L19.7071 1.70711ZM7 13H8V12H7V13ZM0.292893 18.2929C-0.0976311 18.6834 -0.0976311 19.3166 0.292893 19.7071C0.683417 20.0976 1.31658 20.0976 1.70711 19.7071L0.292893 18.2929ZM7 7V8H8V7H7ZM1.70711 0.292893C1.31658 -0.0976311 0.683417 -0.0976311 0.292893 0.292893C-0.0976311 0.683417 -0.0976311 1.31658 0.292893 1.70711L1.70711 0.292893ZM14 18V13H12V18H14ZM13 14H18V12H13V14ZM12.2929 13.7071L18.2929 19.7071L19.7071 18.2929L13.7071 12.2929L12.2929 13.7071ZM12 2V7H14V2H12ZM13 8H18V6H13V8ZM13.7071 7.70711L19.7071 1.70711L18.2929 0.292893L12.2929 6.29289L13.7071 7.70711ZM8 18V13H6V18H8ZM7 12H2V14H7V12ZM6.29289 12.2929L0.292893 18.2929L1.70711 19.7071L7.70711 13.7071L6.29289 12.2929ZM6 2V7H8V2H6ZM7 6H2V8H7V6ZM7.70711 6.29289L1.70711 0.292893L0.292893 1.70711L6.29289 7.70711L7.70711 6.29289Z" fill="url('#myGradient')"/>

<defs>
    <linearGradient id="myGradient" gradientTransform="rotate(90)">
      <stop offset="5%"  stop-color="#58ABF7" />
      <stop offset="12%" stop-color="#4079DB" />
      <stop offset="46%" stop-color="#826CDE" />
      <stop offset="71%" stop-color="#BB77C2" />
      <stop offset="100%" stop-color="#FBDBAA" />
    </linearGradient>
  </defs>
</svg>
